font.ufo
<glyph name="hookrhoticmod" format="1">
	<unicode hex="02DE"/>
	<advance width="204"/>
	<outline>
		<contour>
			<point x="139" y="225" type="curve" smooth="yes"/>
			<point x="175" y="225"/>
			<point x="202" y="236"/>
			<point x="224" y="250" type="curve"/>
			<point x="191" y="329" type="line"/>
			<point x="180" y="324"/>
			<point x="167" y="319"/>
			<point x="150" y="319" type="curve" smooth="yes"/>
			<point x="125" y="319"/>
			<point x="102" y="352"/>
			<point x="82" y="472" type="curve"/>
			<point x="-122" y="384" type="line"/>
			<point x="-122" y="262" type="line"/>
			<point x="14" y="322" type="line"/>
			<point x="42" y="246"/>
			<point x="90" y="225"/>
		</contour>
	</outline>
</glyph>
<glyph name="acutecmb" format="1">
	<unicode hex="0301"/>
	<outline>
		<contour>
			<point x="20" y="572" type="line"/>
			<point x="210" y="730" type="line"/>
			<point x="94" y="844" type="line"/>
			<point x="-64" y="656" type="line"/>
		</contour>
		<contour>
			<point name="_aboveLC" x="0" y="522" type="move"/>
		</contour>
	</outline>
</glyph>
<glyph name="tildeoverlaycmb" format="1">
	<unicode hex="0334"/>
	<outline>
		<component base="tildecmb" yOffset="-398"/>
		<contour>
			<point name="_center" x="0" y="250" type="move"/>
		</contour>
	</outline>
</glyph>
<glyph name="kai" format="1">
	<unicode hex="03D7"/>
	<advance width="566"/>
	<outline>
		<contour>
			<point x="444" y="-188" type="line"/>
			<point x="472" y="-152"/>
			<point x="528" y="-70"/>
			<point x="572" y="0" type="curve"/>
			<point x="388" y="8" type="line"/>
			<point x="352" y="-50"/>
			<point x="296" y="-118"/>
			<point x="242" y="-176" type="curve"/>
		</contour>
		<component base="kappa"/>
	</outline>
</glyph>
<glyph name="Ie" format="1">
	<unicode hex="0415"/>
	<advance width="556"/>
	<outline>
		<component base="E"/>
		<contour>
			<point name="aboveUC" x="290" y="672" type="move"/>
		</contour>
	</outline>
</glyph>
<glyph name="Ka" format="1">
	<unicode hex="041A"/>
	<advance width="638"/>
	<outline>
		<contour>
			<point x="72" y="0" type="line"/>
			<point x="244" y="0" type="line"/>
			<point x="244" y="264" type="line"/>
			<point x="300" y="264" type="line"/>
			<point x="462" y="0" type="line"/>
			<point x="642" y="0" type="line"/>
			<point x="400" y="402" type="line"/>
			<point x="244" y="402" type="line"/>
			<point x="244" y="650" type="line"/>
			<point x="72" y="650" type="line"/>
		</contour>
		<contour>
			<point x="432" y="340" type="line"/>
			<point x="498" y="452" type="line" smooth="yes"/>
			<point x="519" y="488"/>
			<point x="536" y="502"/>
			<point x="566" y="502" type="curve" smooth="yes"/>
			<point x="572" y="502"/>
			<point x="584" y="502"/>
			<point x="596" y="498" type="curve"/>
			<point x="624" y="652" type="line"/>
			<point x="608" y="660"/>
			<point x="584" y="662"/>
			<point x="564" y="662" type="curve" smooth="yes"/>
			<point x="484" y="662"/>
			<point x="430" y="630"/>
			<point x="382" y="546" type="curve" smooth="yes"/>
			<point x="284" y="374" type="line"/>
		</contour>
		<contour>
			<point name="aboveUC" x="346" y="682" type="move"/>
		</contour>
	</outline>
</glyph>
<glyph name="ocyr" format="1">
	<unicode hex="043E"/>
	<advance width="560"/>
	<outline>
		<component base="o"/>
		<contour>
			<point name="aboveLC" x="280" y="522" type="move"/>
		</contour>
	</outline>
</glyph>
<glyph name="ucyr" format="1">
	<unicode hex="0443"/>
	<advance width="542"/>
	<outline>
		<component base="y"/>
		<contour>
			<point name="aboveLC" x="276" y="522" type="move"/>
		</contour>
	</outline>
</glyph>
<glyph name="lenisgrave" format="1">
	<unicode hex="1FCD"/>
	<advance width="560"/>
	<outline>
		<component base="lenisgravecmb" xOffset="280"/>
		<contour>
			<point name="_aboveLC" x="280" y="522" type="move"/>
		</contour>
	</outline>
</glyph>
<glyph name="dialytikagrave" format="1">
	<unicode hex="1FED"/>
	<advance width="560"/>
	<outline>
		<component base="dialytikagravecmb" xOffset="280"/>
		<contour>
			<point name="_aboveLC" x="280" y="522" type="move"/>
		</contour>
	</outline>
</glyph>
<glyph name="tugrik" format="1">
	<unicode hex="20AE"/>
	<advance width="540"/>
	<outline>
		<contour>
			<point x="184" y="0" type="line"/>
			<point x="356" y="0" type="line"/>
			<point x="356" y="510" type="line"/>
			<point x="508" y="510" type="line"/>
			<point x="508" y="634" type="line"/>
			<point x="32" y="634" type="line"/>
			<point x="32" y="510" type="line"/>
			<point x="184" y="510" type="line"/>
		</contour>
		<contour>
			<point x="80" y="48" type="line"/>
			<point x="186" y="106" type="line"/>
			<point x="354" y="186" type="line"/>
			<point x="460" y="244" type="line"/>
			<point x="460" y="336" type="line"/>
			<point x="354" y="278" type="line"/>
			<point x="186" y="198" type="line"/>
			<point x="80" y="140" type="line"/>
		</contour>
		<contour>
			<point x="80" y="188" type="line"/>
			<point x="186" y="246" type="line"/>
			<point x="354" y="326" type="line"/>
			<point x="460" y="384" type="line"/>
			<point x="460" y="476" type="line"/>
			<point x="354" y="418" type="line"/>
			<point x="186" y="338" type="line"/>
			<point x="80" y="280" type="line"/>
		</contour>
	</outline>
</glyph>
<glyph name="triangleblackdown" format="1">
	<unicode hex="25BC"/>
	<advance width="870"/>
	<outline>
		<contour>
			<point x="825" y="720" type="line"/>
			<point x="45" y="720" type="line"/>
			<point x="45" y="718" type="line"/>
			<point x="433" y="-80" type="line"/>
			<point x="437" y="-80" type="line"/>
			<point x="825" y="718" type="line"/>
		</contour>
	</outline>
</glyph>
<glyph name="A.sups" format="1">
  <advance width="397"/>
  <outline>
    <contour>
      <point x="-7" y="260" type="line"/>
      <point x="116" y="260" type="line"/>
      <point x="164" y="470" type="line" smooth="yes"/>
      <point x="173" y="510"/>
      <point x="186" y="561"/>
      <point x="195" y="604" type="curve"/>
      <point x="197" y="604" type="line"/>
      <point x="208" y="562"/>
      <point x="220" y="510"/>
      <point x="229" y="470" type="curve" smooth="yes"/>
      <point x="277" y="260" type="line"/>
      <point x="405" y="260" type="line"/>
      <point x="272" y="692" type="line"/>
      <point x="126" y="692" type="line"/>
    </contour>
    <contour>
      <point x="89" y="350" type="line"/>
      <point x="305" y="350" type="line"/>
      <point x="305" y="441" type="line"/>
      <point x="89" y="441" type="line"/>
    </contour>
  </outline>
</glyph>
<glyph name="Acyr" format="1">
  <advance width="584"/>
  <outline>
    <contour>
      <point x="288" y="672" type="move" name="aboveUC"/>
    </contour>
    <component base="A"/>
  </outline>
</glyph>
<glyph name="Alpha.sc" format="1">
  <advance width="516"/>
  <outline>
    <contour>
      <point x="254" y="564" type="move" name="aboveLC"/>
    </contour>
    <contour>
      <point x="254" y="-22" type="move" name="belowLC"/>
    </contour>
    <component base="A.sc"/>
  </outline>
</glyph>
<glyph name="Aogonek" format="1">
  <advance width="584"/>
  <outline>
    <contour>
      <point x="292" y="672" type="move" name="aboveUC"/>
    </contour>
    <contour>
      <point x="498" y="-228" type="curve" smooth="yes"/>
      <point x="536" y="-228"/>
      <point x="584" y="-212"/>
      <point x="612" y="-190" type="curve"/>
      <point x="574" y="-104" type="line"/>
      <point x="565" y="-111"/>
      <point x="551" y="-118"/>
      <point x="536" y="-118" type="curve" smooth="yes"/>
      <point x="516" y="-118"/>
      <point x="500" y="-106"/>
      <point x="500" y="-84" type="curve" smooth="yes"/>
      <point x="500" y="-44"/>
      <point x="536" y="0"/>
      <point x="594" y="0" type="curve"/>
      <point x="396" y="650" type="line"/>
      <point x="188" y="650" type="line"/>
      <point x="-10" y="0" type="line"/>
      <point x="166" y="0" type="line"/>
      <point x="240" y="316" type="line" smooth="yes"/>
      <point x="256" y="378"/>
      <point x="272" y="456"/>
      <point x="286" y="522" type="curve"/>
      <point x="290" y="522" type="line"/>
      <point x="306" y="457"/>
      <point x="322" y="378"/>
      <point x="338" y="316" type="curve" smooth="yes"/>
      <point x="412" y="0" type="line"/>
      <point x="460" y="0" type="line"/>
      <point x="428" y="-17"/>
      <point x="376" y="-65"/>
      <point x="376" y="-130" type="curve" smooth="yes"/>
      <point x="376" y="-192"/>
      <point x="430" y="-228"/>
    </contour>
    <contour>
      <point x="132" y="138" type="line"/>
      <point x="450" y="138" type="line"/>
      <point x="450" y="271" type="line"/>
      <point x="132" y="271" type="line"/>
    </contour>
  </outline>
</glyph>
<glyph name="Aogonek.sc" format="1">
  <advance width="516"/>
  <outline>
    <contour>
      <point x="254" y="564" type="move" name="aboveUC"/>
    </contour>
    <contour>
      <point x="430" y="-228" type="curve" smooth="yes"/>
      <point x="468" y="-228"/>
      <point x="516" y="-212"/>
      <point x="544" y="-190" type="curve"/>
      <point x="506" y="-104" type="line"/>
      <point x="497" y="-111"/>
      <point x="483" y="-118"/>
      <point x="468" y="-118" type="curve" smooth="yes"/>
      <point x="448" y="-118"/>
      <point x="432" y="-106"/>
      <point x="432" y="-84" type="curve" smooth="yes"/>
      <point x="432" y="-44"/>
      <point x="468" y="0"/>
      <point x="526" y="0" type="curve"/>
      <point x="361" y="532" type="line"/>
      <point x="155" y="532" type="line"/>
      <point x="-10" y="0" type="line"/>
      <point x="164" y="0" type="line"/>
      <point x="219" y="244" type="line" smooth="yes"/>
      <point x="230" y="292"/>
      <point x="241" y="358"/>
      <point x="252" y="409" type="curve"/>
      <point x="256" y="409" type="line"/>
      <point x="269" y="359"/>
      <point x="280" y="292"/>
      <point x="291" y="244" type="curve" smooth="yes"/>
      <point x="346" y="0" type="line"/>
      <point x="392" y="0" type="line"/>
      <point x="360" y="-17"/>
      <point x="308" y="-65"/>
      <point x="308" y="-130" type="curve" smooth="yes"/>
      <point x="308" y="-192"/>
      <point x="362" y="-228"/>
    </contour>
    <contour>
      <point x="118" y="94" type="line"/>
      <point x="397" y="94" type="line"/>
      <point x="397" y="216" type="line"/>
      <point x="118" y="216" type="line"/>
    </contour>
  </outline>
</glyph>
<glyph name="Be.sc" format="1">
  <advance width="552"/>
  <outline>
    <contour>
      <point x="72" y="0" type="line"/>
      <point x="298" y="0" type="line" smooth="yes"/>
      <point x="411" y="0"/>
      <point x="518" y="41"/>
      <point x="518" y="166" type="curve" smooth="yes"/>
      <point x="518" y="294"/>
      <point x="411" y="324"/>
      <point x="295" y="324" type="curve" smooth="yes"/>
      <point x="244" y="324" type="line"/>
      <point x="244" y="390" type="line"/>
      <point x="482" y="390" type="line"/>
      <point x="482" y="532" type="line"/>
      <point x="72" y="532" type="line"/>
    </contour>
    <contour>
      <point x="244" y="124" type="line"/>
      <point x="244" y="218" type="line"/>
      <point x="284" y="218" type="line" smooth="yes"/>
      <point x="328" y="218"/>
      <point x="352" y="208"/>
      <point x="352" y="174" type="curve" smooth="yes"/>
      <point x="352" y="143"/>
      <point x="330" y="124"/>
      <point x="284" y="124" type="curve" smooth="yes"/>
    </contour>
  </outline>
</glyph>
<glyph name="Beta.sc" format="1">
	<advance width="554"/>
	<outline>
		<component base="B.sc"/>
		<contour>
			<point name="aboveLC" x="295" y="564" type="move"/>
		</contour>
		<contour>
			<point name="belowLC" x="304" y="-22" type="move"/>
		</contour>
	</outline>
</glyph>
<glyph name="Beta.sc" format="1">
  <advance width="554"/>
  <outline>
    <contour>
      <point x="295" y="564" type="move" name="aboveLC"/>
    </contour>
    <contour>
      <point x="304" y="-22" type="move" name="belowLC"/>
    </contour>
    <component base="B.sc"/>
  </outline>
</glyph>
<glyph name="Bsmall" format="1">
  <advance width="536"/>
  <outline>
    <contour>
      <point x="266" y="502" type="move" name="aboveLC"/>
    </contour>
    <contour>
      <point x="280" y="-22" type="move" name="belowLC"/>
    </contour>
    <component base="ve"/>
  </outline>
</glyph>
<glyph name="Bstroke" format="1">
  <advance width="638"/>
  <outline>
    <contour>
      <point x="98" y="0" type="line"/>
      <point x="352" y="0" type="line" smooth="yes"/>
      <point x="492" y="0"/>
      <point x="608" y="61"/>
      <point x="608" y="202" type="curve" smooth="yes"/>
      <point x="608" y="294"/>
      <point x="562" y="345"/>
      <point x="470" y="364" type="curve"/>
      <point x="470" y="368" type="line"/>
      <point x="546" y="387"/>
      <point x="578" y="442"/>
      <point x="578" y="494" type="curve" smooth="yes"/>
      <point x="578" y="614"/>
      <point x="468" y="650"/>
      <point x="332" y="650" type="curve" smooth="yes"/>
      <point x="98" y="650" type="line"/>
    </contour>
    <contour>
      <point x="270" y="404" type="line"/>
      <point x="270" y="528" type="line"/>
      <point x="328" y="528" type="line" smooth="yes"/>
      <point x="384" y="528"/>
      <point x="414" y="512"/>
      <point x="414" y="472" type="curve" smooth="yes"/>
      <point x="414" y="432"/>
      <point x="384" y="404"/>
      <point x="328" y="404" type="curve" smooth="yes"/>
    </contour>
    <contour>
      <point x="270" y="122" type="line"/>
      <point x="270" y="304" type="line"/>
      <point x="340" y="304" type="line" smooth="yes"/>
      <point x="408" y="304"/>
      <point x="444" y="278"/>
      <point x="444" y="216" type="curve" smooth="yes"/>
      <point x="444" y="156"/>
      <point x="408" y="122"/>
      <point x="340" y="122" type="curve" smooth="yes"/>
    </contour>
    <contour>
      <point x="24" y="174" type="line"/>
      <point x="386" y="174" type="line"/>
      <point x="386" y="254" type="line"/>
      <point x="100" y="254" type="line"/>
      <point x="24" y="248" type="line"/>
    </contour>
  </outline>
</glyph>
<glyph name="C.sc" format="1">
  <advance width="526"/>
  <outline>
    <contour>
      <point x="312" y="564" type="move" name="aboveUC"/>
    </contour>
    <contour>
      <point x="312" y="0" type="move" name="baseLC"/>
    </contour>
    <contour>
      <point x="312" y="-22" type="move" name="belowLC"/>
    </contour>
    <contour>
      <point x="317" y="-12" type="curve" smooth="yes"/>
      <point x="389" y="-12"/>
      <point x="459" y="13"/>
      <point x="508" y="66" type="curve"/>
      <point x="416" y="166" type="line"/>
      <point x="395" y="146"/>
      <point x="365" y="128"/>
      <point x="325" y="128" type="curve" smooth="yes"/>
      <point x="261" y="128"/>
      <point x="218" y="174"/>
      <point x="218" y="267" type="curve" smooth="yes"/>
      <point x="218" y="354"/>
      <point x="271" y="404"/>
      <point x="329" y="404" type="curve" smooth="yes"/>
      <point x="362" y="404"/>
      <point x="384" y="393"/>
      <point x="412" y="370" type="curve"/>
      <point x="504" y="472" type="line"/>
      <point x="462" y="512"/>
      <point x="398" y="544"/>
      <point x="327" y="544" type="curve" smooth="yes"/>
      <point x="180" y="544"/>
      <point x="44" y="443"/>
      <point x="44" y="261" type="curve" smooth="yes"/>
      <point x="44" y="74"/>
      <point x="172" y="-12"/>
    </contour>
  </outline>
</glyph>
<glyph name="Chedescender.sc" format="1">
  <advance width="560"/>
  <outline>
    <contour>
      <point x="388" y="-172" type="line"/>
      <point x="536" y="-172" type="line"/>
      <point x="552" y="24" type="line"/>
      <point x="552" y="142" type="line"/>
      <point x="360" y="142" type="line"/>
      <point x="360" y="0" type="line"/>
      <point x="388" y="0" type="line"/>
    </contour>
    <component base="Che.sc" xOffset="-48"/>
  </outline>
</glyph>
<glyph name="Chi.sc" format="1">
  <advance width="530"/>
  <outline>
    <contour>
      <point x="312" y="564" type="move" name="aboveUC"/>
    </contour>
    <contour>
      <point x="312" y="0" type="move" name="baseLC"/>
    </contour>
    <contour>
      <point x="312" y="-22" type="move" name="belowLC"/>
    </contour>
    <component base="X.sc"/>
  </outline>
</glyph>
<glyph name="D.sc" format="1">
  <advance width="590"/>
  <outline>
    <contour>
      <point x="301" y="564" type="move" name="aboveUC"/>
    </contour>
    <contour>
      <point x="302" y="-22" type="move" name="belowLC"/>
    </contour>
    <contour>
      <point x="72" y="0" type="line"/>
      <point x="257" y="0" type="line" smooth="yes"/>
      <point x="414" y="0"/>
      <point x="546" y="69"/>
      <point x="546" y="269" type="curve" smooth="yes"/>
      <point x="546" y="468"/>
      <point x="414" y="532"/>
      <point x="246" y="532" type="curve" smooth="yes"/>
      <point x="72" y="532" type="line"/>
    </contour>
    <contour>
      <point x="244" y="133" type="line"/>
      <point x="244" y="399" type="line"/>
      <point x="257" y="399" type="line" smooth="yes"/>
      <point x="325" y="399"/>
      <point x="370" y="371"/>
      <point x="370" y="269" type="curve" smooth="yes"/>
      <point x="370" y="168"/>
      <point x="325" y="133"/>
      <point x="257" y="133" type="curve" smooth="yes"/>
    </contour>
  </outline>
</glyph>
<glyph name="Delta.sc" format="1">
  <advance width="592"/>
  <outline>
    <contour>
      <point x="36" y="0" type="line"/>
      <point x="556" y="0" type="line"/>
      <point x="556" y="102" type="line"/>
      <point x="399" y="532" type="line"/>
      <point x="193" y="532" type="line"/>
      <point x="36" y="102" type="line"/>
    </contour>
    <contour>
      <point x="217" y="141" type="line"/>
      <point x="252" y="262" type="line"/>
      <point x="290" y="412" type="line"/>
      <point x="294" y="412" type="line"/>
      <point x="334" y="262" type="line"/>
      <point x="371" y="141" type="line"/>
    </contour>
  </outline>
</glyph>
<glyph name="Dzhe.sc" format="1">
  <advance width="619"/>
  <outline>
    <contour>
      <point x="72" y="0" type="line"/>
      <point x="547" y="0" type="line"/>
      <point x="547" y="532" type="line"/>
      <point x="378" y="532" type="line"/>
      <point x="378" y="141" type="line"/>
      <point x="241" y="141" type="line"/>
      <point x="241" y="532" type="line"/>
      <point x="72" y="532" type="line"/>
    </contour>
    <contour>
      <point x="240" y="-157" type="line"/>
      <point x="382" y="-157" type="line"/>
      <point x="399" y="22" type="line"/>
      <point x="240" y="0" type="line"/>
    </contour>
  </outline>
</glyph>
<glyph name="E" format="1">
  <advance width="556"/>
  <outline>
    <contour>
      <point x="290" y="672" type="move" name="aboveUC"/>
    </contour>
    <contour>
      <point x="396" y="0" type="move" name="ogonekUC"/>
    </contour>
    <contour>
      <point x="294" y="-22" type="move" name="belowLC"/>
    </contour>
    <contour>
      <point x="72" y="0" type="line"/>
      <point x="502" y="0" type="line"/>
      <point x="502" y="144" type="line"/>
      <point x="244" y="144" type="line"/>
      <point x="244" y="260" type="line"/>
      <point x="456" y="260" type="line"/>
      <point x="456" y="404" type="line"/>
      <point x="244" y="404" type="line"/>
      <point x="244" y="506" type="line"/>
      <point x="492" y="506" type="line"/>
      <point x="492" y="650" type="line"/>
      <point x="72" y="650" type="line"/>
    </contour>
  </outline>
</glyph>
<glyph name="E.sups" format="1">
  <advance width="376"/>
  <outline>
    <contour>
      <point x="47" y="260" type="line"/>
      <point x="339" y="260" type="line"/>
      <point x="339" y="359" type="line"/>
      <point x="167" y="359" type="line"/>
      <point x="167" y="431" type="line"/>
      <point x="309" y="431" type="line"/>
      <point x="309" y="530" type="line"/>
      <point x="167" y="530" type="line"/>
      <point x="167" y="593" type="line"/>
      <point x="333" y="593" type="line"/>
      <point x="333" y="692" type="line"/>
      <point x="47" y="692" type="line"/>
    </contour>
  </outline>
</glyph>
<glyph name="Ef.sc" format="1">
  <advance width="691"/>
  <outline>
    <contour>
      <point x="376" y="58" type="line"/>
      <point x="540" y="58"/>
      <point x="648" y="121"/>
      <point x="648" y="268" type="curve" smooth="yes"/>
      <point x="648" y="416"/>
      <point x="540" y="478"/>
      <point x="376" y="478" type="curve" smooth="yes"/>
      <point x="316" y="478" type="line" smooth="yes"/>
      <point x="152" y="478"/>
      <point x="44" y="416"/>
      <point x="44" y="268" type="curve" smooth="yes"/>
      <point x="44" y="121"/>
      <point x="152" y="58"/>
      <point x="316" y="58" type="curve" smooth="yes"/>
    </contour>
    <contour>
      <point x="302" y="182" type="line"/>
      <point x="245" y="182"/>
      <point x="200" y="200"/>
      <point x="200" y="268" type="curve" smooth="yes"/>
      <point x="200" y="336"/>
      <point x="245" y="354"/>
      <point x="302" y="354" type="curve" smooth="yes"/>
      <point x="390" y="354" type="line" smooth="yes"/>
      <point x="447" y="354"/>
      <point x="492" y="336"/>
      <point x="492" y="268" type="curve" smooth="yes"/>
      <point x="492" y="200"/>
      <point x="447" y="182"/>
      <point x="390" y="182" type="curve" smooth="yes"/>
    </contour>
    <contour>
      <point x="274" y="-12" type="line"/>
      <point x="418" y="-12" type="line"/>
      <point x="418" y="544" type="line"/>
      <point x="274" y="544" type="line"/>
    </contour>
  </outline>
</glyph>
<glyph name="Eng.sca" format="1">
  <advance width="614"/>
  <outline>
    <contour>
      <point x="364" y="-176" type="curve" smooth="yes"/>
      <point x="498" y="-176"/>
      <point x="542" y="-80"/>
      <point x="542" y="15" type="curve" smooth="yes"/>
      <point x="542" y="532" type="line"/>
      <point x="384" y="532" type="line"/>
      <point x="384" y="424" type="line" smooth="yes"/>
      <point x="384" y="355"/>
      <point x="398" y="258"/>
      <point x="406" y="200" type="curve"/>
      <point x="402" y="200" type="line"/>
      <point x="345" y="331" type="line"/>
      <point x="244" y="532" type="line"/>
      <point x="72" y="532" type="line"/>
      <point x="72" y="0" type="line"/>
      <point x="230" y="0" type="line"/>
      <point x="230" y="107" type="line" smooth="yes"/>
      <point x="230" y="176"/>
      <point x="216" y="269"/>
      <point x="208" y="332" type="curve"/>
      <point x="212" y="332" type="line"/>
      <point x="269" y="202" type="line"/>
      <point x="374" y="0" type="line"/>
      <point x="376" y="0" type="line"/>
      <point x="376" y="-30"/>
      <point x="363" y="-46"/>
      <point x="336" y="-46" type="curve" smooth="yes"/>
      <point x="327" y="-46"/>
      <point x="319" y="-45"/>
      <point x="307" y="-42" type="curve"/>
      <point x="278" y="-164" type="line"/>
      <point x="298" y="-170"/>
      <point x="321" y="-176"/>
    </contour>
  </outline>
</glyph>
<glyph name="Eogonek" format="1">
  <advance width="556"/>
  <outline>
    <contour>
      <point x="290" y="672" type="move" name="aboveUC"/>
    </contour>
    <contour>
      <point x="410" y="-228" type="curve" smooth="yes"/>
      <point x="448" y="-228"/>
      <point x="496" y="-212"/>
      <point x="524" y="-190" type="curve"/>
      <point x="486" y="-104" type="line"/>
      <point x="477" y="-110"/>
      <point x="464" y="-118"/>
      <point x="452" y="-118" type="curve" smooth="yes"/>
      <point x="432" y="-118"/>
      <point x="412" y="-108"/>
      <point x="412" y="-84" type="curve" smooth="yes"/>
      <point x="412" y="-43"/>
      <point x="450" y="0"/>
      <point x="496" y="0" type="curve" smooth="yes"/>
      <point x="502" y="0" type="line"/>
      <point x="502" y="144" type="line"/>
      <point x="244" y="144" type="line"/>
      <point x="244" y="260" type="line"/>
      <point x="456" y="260" type="line"/>
      <point x="456" y="404" type="line"/>
      <point x="244" y="404" type="line"/>
      <point x="244" y="506" type="line"/>
      <point x="492" y="506" type="line"/>
      <point x="492" y="650" type="line"/>
      <point x="72" y="650" type="line"/>
      <point x="72" y="0" type="line"/>
      <point x="368" y="0" type="line"/>
      <point x="335" y="-20"/>
      <point x="288" y="-67"/>
      <point x="288" y="-130" type="curve" smooth="yes"/>
      <point x="288" y="-192"/>
      <point x="342" y="-228"/>
    </contour>
  </outline>
</glyph>
<glyph name="Epsilon.sc" format="1">
  <advance width="508"/>
  <outline>
    <contour>
      <point x="271" y="564" type="move" name="aboveLC"/>
    </contour>
    <contour>
      <point x="272" y="-22" type="move" name="belowLC"/>
    </contour>
    <component base="E.sc"/>
  </outline>
</glyph>
<glyph name="Eth.sc" format="1">
  <advance width="616"/>
  <outline>
    <contour>
      <point x="24" y="230" type="line"/>
      <point x="352" y="230" type="line"/>
      <point x="352" y="310" type="line"/>
      <point x="100" y="310" type="line"/>
      <point x="24" y="304" type="line"/>
    </contour>
    <component base="D.sc" xOffset="26"/>
  </outline>
</glyph>
<glyph name="Ecyr.sc" format="1">
  <advance width="521"/>
  <outline>
    <contour>
      <point x="210" y="-10" type="curve" smooth="yes"/>
      <point x="350" y="-10"/>
      <point x="478" y="79"/>
      <point x="478" y="260" type="curve" smooth="yes"/>
      <point x="478" y="441"/>
      <point x="356" y="541"/>
      <point x="214" y="541" type="curve" smooth="yes"/>
      <point x="136" y="541"/>
      <point x="68" y="508"/>
      <point x="23" y="469" type="curve"/>
      <point x="111" y="361" type="line"/>
      <point x="143" y="383"/>
      <point x="167" y="396"/>
      <point x="204" y="396" type="curve" smooth="yes"/>
      <point x="269" y="396"/>
      <point x="310" y="350"/>
      <point x="310" y="265" type="curve" smooth="yes"/>
      <point x="310" y="179"/>
      <point x="270" y="135"/>
      <point x="208" y="135" type="curve" smooth="yes"/>
      <point x="165" y="135"/>
      <point x="131" y="156"/>
      <point x="106" y="175" type="curve"/>
      <point x="18" y="69" type="line"/>
      <point x="71" y="16"/>
      <point x="138" y="-10"/>
    </contour>
    <contour>
      <point x="113" y="198" type="line"/>
      <point x="377" y="198" type="line"/>
      <point x="377" y="339" type="line"/>
      <point x="113" y="339" type="line"/>
    </contour>
  </outline>
</glyph>
<glyph name="Fita.sc" format="1">
  <advance width="626"/>
  <outline>
    <contour>
      <point x="167" y="206" type="line"/>
      <point x="480" y="206" type="line"/>
      <point x="480" y="330" type="line"/>
      <point x="167" y="330" type="line"/>
    </contour>
    <component base="O.sc"/>
  </outline>
</glyph>
<glyph name="G.sups" format="1">
  <advance width="438"/>
  <outline>
    <contour>
      <point x="250" y="252" type="curve" smooth="yes"/>
      <point x="311" y="252"/>
      <point x="368" y="279"/>
      <point x="403" y="306" type="curve"/>
      <point x="403" y="514" type="line"/>
      <point x="233" y="514" type="line"/>
      <point x="233" y="417" type="line"/>
      <point x="295" y="417" type="line"/>
      <point x="295" y="361" type="line"/>
      <point x="288" y="356"/>
      <point x="276" y="354"/>
      <point x="263" y="354" type="curve" smooth="yes"/>
      <point x="187" y="354"/>
      <point x="152" y="399"/>
      <point x="152" y="477" type="curve" smooth="yes"/>
      <point x="152" y="553"/>
      <point x="195" y="597"/>
      <point x="252" y="597" type="curve" smooth="yes"/>
      <point x="288" y="597"/>
      <point x="306" y="587"/>
      <point x="327" y="569" type="curve"/>
      <point x="394" y="645" type="line"/>
      <point x="360" y="675"/>
      <point x="314" y="700"/>
      <point x="252" y="700" type="curve" smooth="yes"/>
      <point x="131" y="700"/>
      <point x="29" y="618"/>
      <point x="29" y="473" type="curve" smooth="yes"/>
      <point x="29" y="326"/>
      <point x="128" y="252"/>
    </contour>
  </outline>
</glyph>
<glyph name="Ghe" format="1">
  <advance width="530"/>
  <outline>
    <contour>
      <point x="298" y="672" type="move" name="aboveUC"/>
    </contour>
    <component base="Gamma"/>
  </outline>
</glyph>
<glyph name="Ghe.sc" format="1">
  <advance width="482"/>
  <outline>
    <component base="Gamma.sc"/>
    <contour>
      <point x="276" y="554" type="move" name="aboveUC"/>
    </contour>
  </outline>
</glyph>
<glyph name="Ghestroke.sc" format="1">
  <advance width="556"/>
  <outline>
    <contour>
      <point x="24" y="274" type="line"/>
      <point x="386" y="274" type="line"/>
      <point x="386" y="354" type="line"/>
      <point x="100" y="354" type="line"/>
      <point x="24" y="348" type="line"/>
    </contour>
    <component base="Gamma" xOffset="26"/>
  </outline>
</glyph>
<glyph name="Gheup.sc" format="1">
  <advance width="480"/>
  <outline>
    <contour>
      <point x="72" y="0" type="line"/>
      <point x="241" y="0" type="line"/>
      <point x="241" y="390" type="line"/>
      <point x="448" y="390" type="line"/>
      <point x="439" y="531" type="line"/>
      <point x="72" y="531" type="line"/>
    </contour>
    <contour>
      <point x="260" y="390" type="line"/>
      <point x="448" y="390" type="line"/>
      <point x="457" y="672" type="line"/>
      <point x="316" y="672" type="line"/>
      <point x="291" y="531" type="line"/>
      <point x="260" y="531" type="line"/>
    </contour>
  </outline>
</glyph>
<glyph name="H.sc" format="1">
  <advance width="632"/>
  <outline>
    <contour>
      <point x="316" y="564" type="move" name="aboveUC"/>
    </contour>
    <contour>
      <point x="316" y="-22" type="move" name="belowLC"/>
    </contour>
    <contour>
      <point x="72" y="0" type="line"/>
      <point x="244" y="0" type="line"/>
      <point x="244" y="196" type="line"/>
      <point x="388" y="196" type="line"/>
      <point x="388" y="0" type="line"/>
      <point x="560" y="0" type="line"/>
      <point x="560" y="532" type="line"/>
      <point x="388" y="532" type="line"/>
      <point x="388" y="344" type="line"/>
      <point x="244" y="344" type="line"/>
      <point x="244" y="532" type="line"/>
      <point x="72" y="532" type="line"/>
    </contour>
  </outline>
</glyph>
<glyph name="H.sups" format="1">
  <advance width="459"/>
  <outline>
    <contour>
      <point x="47" y="260" type="line"/>
      <point x="167" y="260" type="line"/>
      <point x="167" y="430" type="line"/>
      <point x="293" y="430" type="line"/>
      <point x="293" y="260" type="line"/>
      <point x="413" y="260" type="line"/>
      <point x="413" y="692" type="line"/>
      <point x="293" y="692" type="line"/>
      <point x="293" y="533" type="line"/>
      <point x="167" y="533" type="line"/>
      <point x="167" y="692" type="line"/>
      <point x="47" y="692" type="line"/>
    </contour>
  </outline>
</glyph>
<glyph name="Hard.sc" format="1">
  <advance width="635"/>
  <outline>
    <contour>
      <point x="165" y="0" type="line"/>
      <point x="375" y="0" type="line" smooth="yes"/>
      <point x="494" y="0"/>
      <point x="601" y="45"/>
      <point x="601" y="186" type="curve" smooth="yes"/>
      <point x="601" y="309"/>
      <point x="490" y="359"/>
      <point x="375" y="359" type="curve" smooth="yes"/>
      <point x="335" y="359" type="line"/>
      <point x="335" y="531" type="line"/>
      <point x="24" y="531" type="line"/>
      <point x="24" y="390" type="line"/>
      <point x="165" y="390" type="line"/>
    </contour>
    <contour>
      <point x="335" y="133" type="line"/>
      <point x="335" y="226" type="line"/>
      <point x="369" y="226" type="line" smooth="yes"/>
      <point x="415" y="226"/>
      <point x="436" y="209"/>
      <point x="436" y="184" type="curve" smooth="yes"/>
      <point x="436" y="148"/>
      <point x="411" y="133"/>
      <point x="369" y="133" type="curve" smooth="yes"/>
    </contour>
  </outline>
</glyph>
<glyph name="I" format="1">
  <advance width="316"/>
  <outline>
    <contour>
      <point x="158" y="672" type="move" name="aboveUC"/>
    </contour>
    <contour>
      <point x="140" y="0" type="move" name="ogonekUC"/>
    </contour>
    <contour>
      <point x="158" y="-22" type="move" name="belowLC"/>
    </contour>
    <contour>
      <point x="72" y="0" type="line"/>
      <point x="244" y="0" type="line"/>
      <point x="244" y="650" type="line"/>
      <point x="72" y="650" type="line"/>
    </contour>
  </outline>
</glyph>
<glyph name="I.sc" format="1">
  <advance width="316"/>
  <outline>
    <contour>
      <point x="72" y="0" type="line"/>
      <point x="244" y="0" type="line"/>
      <point x="244" y="532" type="line"/>
      <point x="72" y="532" type="line"/>
    </contour>
    <contour>
      <point x="158" y="564" type="move" name="aboveUC"/>
    </contour>
    <contour>
      <point x="140" y="0" type="move" name="ogonekUC"/>
    </contour>
    <contour>
      <point x="158" y="-22" type="move" name="belowLC"/>
    </contour>
  </outline>
</glyph>
<glyph name="I.alt" format="1">
  <advance width="416"/>
  <outline>
    <contour>
      <point x="208" y="672" type="move" name="aboveUC"/>
    </contour>
    <contour>
      <point x="190" y="0" type="move" name="ogonekUC"/>
    </contour>
    <contour>
      <point x="208" y="-22" type="move" name="belowLC"/>
    </contour>
    <contour>
      <point x="54" y="0" type="line"/>
      <point x="362" y="0" type="line"/>
      <point x="362" y="144" type="line"/>
      <point x="294" y="144" type="line"/>
      <point x="294" y="506" type="line"/>
      <point x="362" y="506" type="line"/>
      <point x="362" y="650" type="line"/>
      <point x="54" y="650" type="line"/>
      <point x="54" y="506" type="line"/>
      <point x="122" y="506" type="line"/>
      <point x="122" y="144" type="line"/>
      <point x="54" y="144" type="line"/>
    </contour>
  </outline>
</glyph>
<glyph name="I.sups" format="1">
  <advance width="213"/>
  <outline>
    <contour>
      <point x="47" y="368" type="line"/>
      <point x="167" y="368" type="line"/>
      <point x="167" y="800" type="line"/>
      <point x="47" y="800" type="line"/>
    </contour>
  </outline>
</glyph>
<glyph name="Iota.sc" format="1">
	<advance width="316"/>
	<outline>
		<component base="I.sc"/>
		<contour>
			<point name="aboveLC" x="158" y="564" type="move"/>
		</contour>
		<contour>
			<point name="belowLC" x="158" y="-22" type="move"/>
		</contour>
	</outline>
</glyph>
<glyph name="Iota.sc" format="1">
  <advance width="316"/>
  <outline>
    <contour>
      <point x="158" y="564" type="move" name="aboveLC"/>
    </contour>
    <contour>
      <point x="158" y="-22" type="move" name="belowLC"/>
    </contour>
    <component base="I.sc"/>
  </outline>
</glyph>
<glyph name="J.sups" format="1">
  <advance width="353"/>
  <outline>
    <contour>
      <point x="155" y="252" type="curve" smooth="yes"/>
      <point x="261" y="252"/>
      <point x="308" y="326"/>
      <point x="308" y="413" type="curve" smooth="yes"/>
      <point x="308" y="692" type="line"/>
      <point x="188" y="692" type="line"/>
      <point x="188" y="423" type="line" smooth="yes"/>
      <point x="188" y="367"/>
      <point x="172" y="354"/>
      <point x="142" y="354" type="curve" smooth="yes"/>
      <point x="122" y="354"/>
      <point x="101" y="367"/>
      <point x="87" y="396" type="curve"/>
      <point x="6" y="336" type="line"/>
      <point x="39" y="279"/>
      <point x="85" y="252"/>
    </contour>
  </outline>
</glyph>
<glyph name="Ka.a" format="1">
  <advance width="638"/>
  <outline>
    <contour>
      <point x="72" y="0" type="line"/>
      <point x="244" y="0" type="line"/>
      <point x="244" y="264" type="line"/>
      <point x="320" y="264" type="line"/>
      <point x="400" y="402" type="line"/>
      <point x="244" y="402" type="line"/>
      <point x="244" y="650" type="line"/>
      <point x="72" y="650" type="line"/>
    </contour>
    <contour>
      <point x="432" y="340" type="line"/>
      <point x="498" y="452" type="line" smooth="yes"/>
      <point x="519" y="488"/>
      <point x="536" y="502"/>
      <point x="566" y="502" type="curve" smooth="yes"/>
      <point x="572" y="502"/>
      <point x="584" y="502"/>
      <point x="596" y="498" type="curve"/>
      <point x="624" y="652" type="line"/>
      <point x="608" y="660"/>
      <point x="584" y="662"/>
      <point x="550" y="662" type="curve" smooth="yes"/>
      <point x="484" y="662"/>
      <point x="430" y="630"/>
      <point x="382" y="546" type="curve" smooth="yes"/>
      <point x="284" y="374" type="line"/>
    </contour>
    <contour>
      <point x="558" y="-12" type="curve" smooth="yes"/>
      <point x="595" y="-12"/>
      <point x="619" y="-10"/>
      <point x="635" y="-2" type="curve"/>
      <point x="607" y="152" type="line"/>
      <point x="595" y="148"/>
      <point x="583" y="148"/>
      <point x="577" y="148" type="curve" smooth="yes"/>
      <point x="547" y="148"/>
      <point x="530" y="162"/>
      <point x="509" y="198" type="curve" smooth="yes"/>
      <point x="401" y="402" type="line"/>
      <point x="253" y="358" type="line"/>
      <point x="393" y="94" type="line" smooth="yes"/>
      <point x="441" y="10"/>
      <point x="495" y="-12"/>
    </contour>
  </outline>
</glyph>
<glyph name="Kabashkir.sc" format="1">
	<advance width="688"/>
	<outline>
		<contour>
			<point x="508" y="276" type="line"/>
			<point x="560" y="358" type="line" smooth="yes"/>
			<point x="572" y="378"/>
			<point x="588" y="388"/>
			<point x="614" y="388" type="curve" smooth="yes"/>
			<point x="624" y="388"/>
			<point x="634" y="386"/>
			<point x="641" y="384" type="curve"/>
			<point x="668" y="534" type="line"/>
			<point x="654" y="540"/>
			<point x="632" y="544"/>
			<point x="612" y="544" type="curve" smooth="yes"/>
			<point x="538" y="544"/>
			<point x="486" y="520"/>
			<point x="446" y="452" type="curve" smooth="yes"/>
			<point x="362" y="310" type="line"/>
		</contour>
		<contour>
			<point x="174" y="0" type="line"/>
			<point x="346" y="0" type="line"/>
			<point x="346" y="202" type="line"/>
			<point x="378" y="202" type="line"/>
			<point x="508" y="0" type="line"/>
			<point x="684" y="0" type="line"/>
			<point x="476" y="338" type="line"/>
			<point x="346" y="338" type="line"/>
			<point x="346" y="532" type="line"/>
			<point x="24" y="532" type="line"/>
			<point x="24" y="390" type="line"/>
			<point x="174" y="390" type="line"/>
		</contour>
	</outline>
</glyph>
<glyph name="Kadescender.a" format="1">
  <advance width="688"/>
  <outline>
    <contour>
      <point x="510" y="-192" type="line"/>
      <point x="656" y="-192" type="line"/>
      <point x="674" y="24" type="line"/>
      <point x="674" y="144" type="line"/>
      <point x="476" y="144" type="line"/>
      <point x="476" y="0" type="line"/>
      <point x="510" y="0" type="line"/>
    </contour>
    <component base="Ka.a"/>
  </outline>
</glyph>
<glyph name="Kappa.sc" format="1">
  <advance width="570"/>
  <outline>
    <contour>
      <point x="304" y="564" type="move" name="aboveLC"/>
    </contour>
    <contour>
      <point x="324" y="-22" type="move" name="belowLC"/>
    </contour>
    <component base="K.sc"/>
  </outline>
</glyph>
<glyph name="L" format="1">
  <advance width="530"/>
  <outline>
    <contour>
      <point x="72" y="0" type="line"/>
      <point x="490" y="0" type="line"/>
      <point x="490" y="144" type="line"/>
      <point x="244" y="144" type="line"/>
      <point x="244" y="650" type="line"/>
      <point x="72" y="650" type="line"/>
    </contour>
    <contour>
      <point x="162" y="672" type="move" name="aboveUC"/>
    </contour>
    <contour>
      <point x="291" y="-22" type="move" name="belowLC"/>
    </contour>
  </outline>
</glyph>
<glyph name="L.sc" format="1">
  <advance width="484"/>
  <outline>
    <contour>
      <point x="162" y="564" type="move" name="aboveUC"/>
    </contour>
    <contour>
      <point x="266" y="-22" type="move" name="belowLC"/>
    </contour>
    <contour>
      <point x="72" y="0" type="line"/>
      <point x="444" y="0" type="line"/>
      <point x="444" y="140" type="line"/>
      <point x="244" y="140" type="line"/>
      <point x="244" y="532" type="line"/>
      <point x="72" y="532" type="line"/>
    </contour>
  </outline>
</glyph>
<glyph name="Lslash" format="1">
  <advance width="538"/>
  <outline>
    <contour>
      <point x="28" y="166" type="line"/>
      <point x="99" y="210" type="line"/>
      <point x="235" y="268" type="line"/>
      <point x="460" y="392" type="line"/>
      <point x="402" y="494" type="line"/>
      <point x="235" y="400" type="line"/>
      <point x="99" y="342" type="line"/>
      <point x="-30" y="268" type="line"/>
    </contour>
    <component base="L" xOffset="8"/>
  </outline>
</glyph>
<glyph name="Lsmall" format="1">
  <advance width="440"/>
  <outline>
    <contour>
      <point x="58" y="0" type="line"/>
      <point x="414" y="0" type="line"/>
      <point x="414" y="134" type="line"/>
      <point x="230" y="134" type="line"/>
      <point x="230" y="500" type="line"/>
      <point x="58" y="500" type="line"/>
    </contour>
    <contour>
      <point x="148" y="564" type="move" name="aboveUC"/>
    </contour>
    <contour>
      <point x="252" y="-22" type="move" name="belowLC"/>
    </contour>
  </outline>
</glyph>
<glyph name="Mu.sc" format="1">
	<advance width="700"/>
	<outline>
		<component base="M.sc"/>
		<contour>
			<point name="aboveLC" x="350" y="564" type="move"/>
		</contour>
		<contour>
			<point name="belowLC" x="350" y="-22" type="move"/>
		</contour>
	</outline>
</glyph>
<glyph name="Mu.sc" format="1">
  <advance width="700"/>
  <outline>
    <contour>
      <point x="350" y="564" type="move" name="aboveLC"/>
    </contour>
    <contour>
      <point x="350" y="-22" type="move" name="belowLC"/>
    </contour>
    <component base="M.sc"/>
  </outline>
</glyph>
<glyph name="N.sc" format="1">
  <advance width="614"/>
  <outline>
    <contour>
      <point x="316" y="564" type="move" name="aboveUC"/>
    </contour>
    <contour>
      <point x="312" y="-22" type="move" name="belowLC"/>
    </contour>
    <contour>
      <point x="72" y="0" type="line"/>
      <point x="230" y="0" type="line"/>
      <point x="230" y="107" type="line" smooth="yes"/>
      <point x="230" y="176"/>
      <point x="216" y="269"/>
      <point x="208" y="332" type="curve"/>
      <point x="212" y="332" type="line"/>
      <point x="269" y="202" type="line"/>
      <point x="374" y="0" type="line"/>
      <point x="542" y="0" type="line"/>
      <point x="542" y="532" type="line"/>
      <point x="384" y="532" type="line"/>
      <point x="384" y="424" type="line" smooth="yes"/>
      <point x="384" y="355"/>
      <point x="398" y="258"/>
      <point x="406" y="200" type="curve"/>
      <point x="402" y="200" type="line"/>
      <point x="345" y="331" type="line"/>
      <point x="244" y="532" type="line"/>
      <point x="72" y="532" type="line"/>
    </contour>
  </outline>
</glyph>
<glyph name="O.sc" format="1">
  <advance width="626"/>
  <outline>
    <contour>
      <point x="314" y="-12" type="curve" smooth="yes"/>
      <point x="473" y="-12"/>
      <point x="582" y="91"/>
      <point x="582" y="269" type="curve" smooth="yes"/>
      <point x="582" y="446"/>
      <point x="473" y="544"/>
      <point x="314" y="544" type="curve" smooth="yes"/>
      <point x="153" y="544"/>
      <point x="44" y="447"/>
      <point x="44" y="269" type="curve" smooth="yes"/>
      <point x="44" y="91"/>
      <point x="153" y="-12"/>
    </contour>
    <contour>
      <point x="314" y="128" type="curve" smooth="yes"/>
      <point x="254" y="128"/>
      <point x="220" y="182"/>
      <point x="220" y="269" type="curve" smooth="yes"/>
      <point x="220" y="356"/>
      <point x="254" y="404"/>
      <point x="314" y="404" type="curve" smooth="yes"/>
      <point x="372" y="404"/>
      <point x="406" y="356"/>
      <point x="406" y="269" type="curve" smooth="yes"/>
      <point x="406" y="182"/>
      <point x="372" y="128"/>
    </contour>
    <contour>
      <point x="314" y="564" type="move" name="aboveUC"/>
    </contour>
    <contour>
      <point x="448" y="512" type="move" name="hornLC"/>
    </contour>
    <contour>
      <point x="314" y="0" type="move" name="ogonekUC"/>
    </contour>
    <contour>
      <point x="315" y="-22" type="move" name="belowLC"/>
    </contour>
  </outline>
</glyph>
<glyph name="Obarcyr" format="1">
  <advance width="692"/>
  <outline>
    <contour>
      <point x="346" y="672" type="move" name="aboveUC"/>
    </contour>
    <component base="Fita"/>
  </outline>
</glyph>
<glyph name="Ocyr" format="1">
  <advance width="692"/>
  <outline>
    <contour>
      <point x="346" y="672" type="move" name="aboveUC"/>
    </contour>
    <component base="O"/>
  </outline>
</glyph>
<glyph name="Ohorn.sc" format="1">
  <advance width="626"/>
  <outline>
    <component base="O.sc"/>
    <component base="horncmb" xOffset="442" yOffset="32"/>
    <contour>
      <point x="312" y="564" type="move" name="aboveUC"/>
    </contour>
    <contour>
      <point x="312" y="0" type="move" name="ogonekUC"/>
    </contour>
    <contour>
      <point x="313" y="-22" type="move" name="belowLC"/>
    </contour>
  </outline>
</glyph>
<glyph name="Omicron.sc" format="1">
  <advance width="626"/>
  <outline>
    <contour>
      <point x="314" y="564" type="move" name="aboveLC"/>
    </contour>
    <contour>
      <point x="315" y="-22" type="move" name="belowLC"/>
    </contour>
    <component base="O.sc"/>
  </outline>
</glyph>
<glyph name="Oogonek.sc" format="1">
  <advance width="626"/>
  <outline>
    <contour>
      <point x="314" y="564" type="move" name="aboveUC"/>
    </contour>
    <contour>
      <point x="338" y="-228" type="curve" smooth="yes"/>
      <point x="376" y="-228"/>
      <point x="424" y="-212"/>
      <point x="452" y="-190" type="curve"/>
      <point x="414" y="-104" type="line"/>
      <point x="405" y="-110"/>
      <point x="392" y="-118"/>
      <point x="380" y="-118" type="curve" smooth="yes"/>
      <point x="360" y="-118"/>
      <point x="340" y="-108"/>
      <point x="340" y="-84" type="curve" smooth="yes"/>
      <point x="340" y="-58"/>
      <point x="360" y="-26"/>
      <point x="408" y="-4" type="curve"/>
      <point x="518" y="42"/>
      <point x="582" y="119"/>
      <point x="582" y="269" type="curve"/>
      <point x="582" y="446"/>
      <point x="473" y="544"/>
      <point x="314" y="544" type="curve" smooth="yes"/>
      <point x="153" y="544"/>
      <point x="44" y="447"/>
      <point x="44" y="269" type="curve"/>
      <point x="44" y="106"/>
      <point x="134" y="4"/>
      <point x="280" y="-10" type="curve"/>
      <point x="252" y="-34"/>
      <point x="216" y="-76"/>
      <point x="216" y="-130" type="curve" smooth="yes"/>
      <point x="216" y="-192"/>
      <point x="270" y="-228"/>
    </contour>
    <contour>
      <point x="314" y="128" type="curve" smooth="yes"/>
      <point x="254" y="128"/>
      <point x="220" y="182"/>
      <point x="220" y="269" type="curve" smooth="yes"/>
      <point x="220" y="356"/>
      <point x="254" y="404"/>
      <point x="314" y="404" type="curve" smooth="yes"/>
      <point x="372" y="404"/>
      <point x="406" y="356"/>
      <point x="406" y="269" type="curve" smooth="yes"/>
      <point x="406" y="182"/>
      <point x="372" y="128"/>
    </contour>
  </outline>
</glyph>
<glyph name="P.sc" format="1">
  <advance width="564"/>
  <outline>
    <contour>
      <point x="306" y="564" type="move" name="aboveUC"/>
    </contour>
    <contour>
      <point x="170" y="-22" type="move" name="belowLC"/>
    </contour>
    <contour>
      <point x="72" y="0" type="line"/>
      <point x="244" y="0" type="line"/>
      <point x="244" y="156" type="line"/>
      <point x="301" y="156" type="line" smooth="yes"/>
      <point x="417" y="156"/>
      <point x="530" y="211"/>
      <point x="530" y="348" type="curve" smooth="yes"/>
      <point x="530" y="489"/>
      <point x="421" y="532"/>
      <point x="301" y="532" type="curve" smooth="yes"/>
      <point x="72" y="532" type="line"/>
    </contour>
    <contour>
      <point x="244" y="272" type="line"/>
      <point x="244" y="398" type="line"/>
      <point x="296" y="398" type="line" smooth="yes"/>
      <point x="344" y="398"/>
      <point x="368" y="378"/>
      <point x="368" y="338" type="curve" smooth="yes"/>
      <point x="368" y="300"/>
      <point x="342" y="272"/>
      <point x="296" y="272" type="curve" smooth="yes"/>
    </contour>
  </outline>
</glyph>
<glyph name="P.sups" format="1">
  <advance width="417"/>
  <outline>
    <contour>
      <point x="47" y="260" type="line"/>
      <point x="167" y="260" type="line"/>
      <point x="167" y="395" type="line"/>
      <point x="221" y="395" type="line" smooth="yes"/>
      <point x="311" y="395"/>
      <point x="396" y="442"/>
      <point x="396" y="549" type="curve" smooth="yes"/>
      <point x="396" y="657"/>
      <point x="314" y="692"/>
      <point x="221" y="692" type="curve" smooth="yes"/>
      <point x="47" y="692" type="line"/>
    </contour>
    <contour>
      <point x="167" y="488" type="line"/>
      <point x="167" y="598" type="line"/>
      <point x="213" y="598" type="line" smooth="yes"/>
      <point x="256" y="598"/>
      <point x="279" y="584"/>
      <point x="279" y="549" type="curve" smooth="yes"/>
      <point x="279" y="512"/>
      <point x="258" y="488"/>
      <point x="213" y="488" type="curve" smooth="yes"/>
    </contour>
  </outline>
</glyph>
<glyph name="Phi.sc" format="1">
  <advance width="728"/>
  <outline>
    <contour>
      <point x="334" y="44" type="curve" smooth="yes"/>
      <point x="394" y="44" type="line"/>
      <point x="564" y="44"/>
      <point x="680" y="118"/>
      <point x="680" y="268" type="curve" smooth="yes"/>
      <point x="680" y="420"/>
      <point x="564" y="492"/>
      <point x="394" y="492" type="curve" smooth="yes"/>
      <point x="334" y="492" type="line" smooth="yes"/>
      <point x="164" y="492"/>
      <point x="48" y="420"/>
      <point x="48" y="268" type="curve" smooth="yes"/>
      <point x="48" y="118"/>
      <point x="164" y="44"/>
    </contour>
    <contour>
      <point x="320" y="172" type="line"/>
      <point x="257" y="172"/>
      <point x="210" y="194"/>
      <point x="210" y="268" type="curve" smooth="yes"/>
      <point x="210" y="342"/>
      <point x="257" y="364"/>
      <point x="320" y="364" type="curve" smooth="yes"/>
      <point x="408" y="364" type="line" smooth="yes"/>
      <point x="471" y="364"/>
      <point x="518" y="342"/>
      <point x="518" y="268" type="curve" smooth="yes"/>
      <point x="518" y="194"/>
      <point x="471" y="172"/>
      <point x="408" y="172" type="curve" smooth="yes"/>
    </contour>
    <contour>
      <point x="288" y="-18" type="line"/>
      <point x="440" y="-18" type="line"/>
      <point x="440" y="550" type="line"/>
      <point x="288" y="550" type="line"/>
    </contour>
  </outline>
</glyph>
<glyph name="Q.sups" format="1">
  <advance width="468"/>
  <outline>
    <contour>
      <point x="231" y="252" type="curve" smooth="yes"/>
      <point x="353" y="252"/>
      <point x="437" y="336"/>
      <point x="437" y="477" type="curve" smooth="yes"/>
      <point x="437" y="619"/>
      <point x="353" y="700"/>
      <point x="231" y="700" type="curve" smooth="yes"/>
      <point x="108" y="700"/>
      <point x="26" y="620"/>
      <point x="26" y="477" type="curve" smooth="yes"/>
      <point x="26" y="336"/>
      <point x="108" y="252"/>
    </contour>
    <contour>
      <point x="231" y="350" type="curve" smooth="yes"/>
      <point x="179" y="350"/>
      <point x="149" y="398"/>
      <point x="149" y="477" type="curve" smooth="yes"/>
      <point x="149" y="554"/>
      <point x="179" y="597"/>
      <point x="231" y="597" type="curve" smooth="yes"/>
      <point x="282" y="597"/>
      <point x="314" y="554"/>
      <point x="314" y="477" type="curve" smooth="yes"/>
      <point x="314" y="398"/>
      <point x="282" y="350"/>
    </contour>
    <contour>
      <point x="381" y="138" type="curve" smooth="yes"/>
      <point x="420" y="138"/>
      <point x="449" y="145"/>
      <point x="467" y="155" type="curve"/>
      <point x="446" y="240" type="line"/>
      <point x="432" y="235"/>
      <point x="415" y="232"/>
      <point x="395" y="232" type="curve" smooth="yes"/>
      <point x="358" y="232"/>
      <point x="312" y="239"/>
      <point x="296" y="277" type="curve"/>
      <point x="175" y="264" type="line"/>
      <point x="207" y="189"/>
      <point x="278" y="138"/>
    </contour>
  </outline>
</glyph>
<glyph name="R.sups" format="1">
  <advance width="426"/>
  <outline>
    <contour>
      <point x="47" y="260" type="line"/>
      <point x="167" y="260" type="line"/>
      <point x="167" y="403" type="line"/>
      <point x="216" y="403" type="line" smooth="yes"/>
      <point x="310" y="403"/>
      <point x="392" y="451"/>
      <point x="392" y="553" type="curve" smooth="yes"/>
      <point x="392" y="660"/>
      <point x="310" y="692"/>
      <point x="216" y="692" type="curve" smooth="yes"/>
      <point x="47" y="692" type="line"/>
    </contour>
    <contour>
      <point x="167" y="496" type="line"/>
      <point x="167" y="598" type="line"/>
      <point x="208" y="598" type="line" smooth="yes"/>
      <point x="252" y="598"/>
      <point x="275" y="584"/>
      <point x="275" y="549" type="curve" smooth="yes"/>
      <point x="275" y="516"/>
      <point x="252" y="496"/>
      <point x="208" y="496" type="curve" smooth="yes"/>
    </contour>
    <contour>
      <point x="283" y="260" type="line"/>
      <point x="417" y="260" type="line"/>
      <point x="275" y="513" type="line"/>
      <point x="194" y="434" type="line"/>
    </contour>
  </outline>
</glyph>
<glyph name="Rho.sc" format="1">
	<advance width="564"/>
	<outline>
		<component base="P.sc"/>
		<contour>
			<point name="aboveLC" x="306" y="564" type="move"/>
		</contour>
		<contour>
			<point name="belowLC" x="170" y="-22" type="move"/>
		</contour>
	</outline>
</glyph>
<glyph name="Rho.sc" format="1">
  <advance width="564"/>
  <outline>
    <contour>
      <point x="306" y="564" type="move" name="aboveLC"/>
    </contour>
    <contour>
      <point x="170" y="-22" type="move" name="belowLC"/>
    </contour>
    <component base="P.sc"/>
  </outline>
</glyph>
<glyph name="Schwa" format="1">
  <advance width="682"/>
  <outline>
    <contour>
      <point x="350" y="672" type="move" name="aboveUC"/>
    </contour>
    <contour>
      <point x="362" y="-22" type="move" name="belowLC"/>
    </contour>
    <contour>
      <point x="340" y="-12" type="curve" smooth="yes"/>
      <point x="518" y="-12"/>
      <point x="638" y="104"/>
      <point x="638" y="326" type="curve" smooth="yes"/>
      <point x="638" y="548"/>
      <point x="516" y="662"/>
      <point x="344" y="662" type="curve" smooth="yes"/>
      <point x="238" y="662"/>
      <point x="162" y="628"/>
      <point x="108" y="580" type="curve"/>
      <point x="186" y="462" type="line"/>
      <point x="220" y="492"/>
      <point x="262" y="522"/>
      <point x="322" y="522" type="curve" smooth="yes"/>
      <point x="420" y="522"/>
      <point x="468" y="464"/>
      <point x="468" y="326" type="curve" smooth="yes"/>
      <point x="468" y="182"/>
      <point x="416" y="128"/>
      <point x="340" y="128" type="curve" smooth="yes"/>
      <point x="274" y="128"/>
      <point x="232" y="160"/>
      <point x="224" y="256" type="curve"/>
      <point x="512" y="256" type="line"/>
      <point x="512" y="380" type="line"/>
      <point x="52" y="380" type="line"/>
      <point x="50" y="360"/>
      <point x="48" y="340"/>
      <point x="48" y="322" type="curve" smooth="yes"/>
      <point x="48" y="100"/>
      <point x="162" y="-12"/>
    </contour>
  </outline>
</glyph>
<glyph name="Shcha.sc" format="1">
  <advance width="855"/>
  <outline>
    <contour>
      <point x="72" y="0" type="line"/>
      <point x="508" y="0" type="line"/>
      <point x="508" y="531" type="line"/>
      <point x="339" y="531" type="line"/>
      <point x="339" y="141" type="line"/>
      <point x="241" y="141" type="line"/>
      <point x="241" y="531" type="line"/>
      <point x="72" y="531" type="line"/>
    </contour>
    <contour>
      <point x="339" y="0" type="line"/>
      <point x="775" y="0" type="line"/>
      <point x="775" y="531" type="line"/>
      <point x="606" y="531" type="line"/>
      <point x="606" y="141" type="line"/>
      <point x="508" y="141" type="line"/>
      <point x="508" y="531" type="line"/>
      <point x="339" y="531" type="line"/>
    </contour>
    <contour>
      <point x="686" y="-158" type="line"/>
      <point x="830" y="-158" type="line"/>
      <point x="848" y="22" type="line"/>
      <point x="848" y="141" type="line"/>
      <point x="665" y="141" type="line"/>
      <point x="665" y="0" type="line"/>
      <point x="686" y="0" type="line"/>
    </contour>
  </outline>
</glyph>
<glyph name="Soft.sc" format="1">
  <advance width="554"/>
  <outline>
    <contour>
      <point x="72" y="0" type="line"/>
      <point x="295" y="0" type="line" smooth="yes"/>
      <point x="413" y="0"/>
      <point x="521" y="45"/>
      <point x="521" y="186" type="curve" smooth="yes"/>
      <point x="521" y="309"/>
      <point x="409" y="359"/>
      <point x="295" y="359" type="curve" smooth="yes"/>
      <point x="241" y="359" type="line"/>
      <point x="241" y="531" type="line"/>
      <point x="72" y="531" type="line"/>
    </contour>
    <contour>
      <point x="241" y="133" type="line"/>
      <point x="241" y="226" type="line"/>
      <point x="289" y="226" type="line"/>
      <point x="335" y="226"/>
      <point x="356" y="209"/>
      <point x="356" y="184" type="curve" smooth="yes"/>
      <point x="356" y="148"/>
      <point x="331" y="133"/>
      <point x="289" y="133" type="curve" smooth="yes"/>
    </contour>
  </outline>
</glyph>
<glyph name="T" format="1">
  <advance width="564"/>
  <outline>
    <contour>
      <point x="282" y="672" type="move" name="aboveUC"/>
    </contour>
    <contour>
      <point x="282" y="0" type="move" name="baseLC"/>
    </contour>
    <contour>
      <point x="282" y="-22" type="move" name="belowLC"/>
    </contour>
    <contour>
      <point x="196" y="0" type="line"/>
      <point x="368" y="0" type="line"/>
      <point x="368" y="506" type="line"/>
      <point x="540" y="506" type="line"/>
      <point x="540" y="650" type="line"/>
      <point x="24" y="650" type="line"/>
      <point x="24" y="506" type="line"/>
      <point x="196" y="506" type="line"/>
    </contour>
  </outline>
</glyph>
<glyph name="Tau.sc" format="1">
  <advance width="500"/>
  <outline>
    <contour>
      <point x="250" y="564" type="move" name="aboveLC"/>
    </contour>
    <contour>
      <point x="250" y="0" type="move" name="baseLC"/>
    </contour>
    <contour>
      <point x="250" y="-22" type="move" name="belowLC"/>
    </contour>
    <component base="T.sc"/>
  </outline>
</glyph>
<glyph name="Tbar.sc" format="1">
  <advance width="500"/>
  <outline>
    <contour>
      <point x="164" y="0" type="line"/>
      <point x="336" y="0" type="line"/>
      <point x="336" y="392" type="line"/>
      <point x="476" y="392" type="line"/>
      <point x="476" y="532" type="line"/>
      <point x="24" y="532" type="line"/>
      <point x="24" y="392" type="line"/>
      <point x="164" y="392" type="line"/>
    </contour>
    <contour>
      <point x="48" y="194" type="line"/>
      <point x="452" y="194" type="line"/>
      <point x="452" y="274" type="line"/>
      <point x="144" y="274" type="line"/>
      <point x="48" y="268" type="line"/>
    </contour>
    <contour>
      <point x="250" y="564" type="move" name="aboveUC"/>
    </contour>
    <contour>
      <point x="250" y="0" type="move" name="baseLC"/>
    </contour>
    <contour>
      <point x="250" y="-22" type="move" name="belowLC"/>
    </contour>
  </outline>
</glyph>
<glyph name="Theta" format="1">
  <advance width="692"/>
  <outline>
    <contour>
      <point x="254" y="258" type="line"/>
      <point x="438" y="258" type="line"/>
      <point x="438" y="408" type="line"/>
      <point x="254" y="408" type="line"/>
    </contour>
    <component base="O"/>
  </outline>
</glyph>
<glyph name="U.sc" format="1">
  <advance width="616"/>
  <outline>
    <contour>
      <point x="308" y="564" type="move" name="aboveUC"/>
    </contour>
    <contour>
      <point x="496" y="542" type="move" name="hornLC"/>
    </contour>
    <contour>
      <point x="308" y="0" type="move" name="ogonekUC"/>
    </contour>
    <contour>
      <point x="308" y="-22" type="move" name="belowLC"/>
    </contour>
    <contour>
      <point x="310" y="-12" type="curve" smooth="yes"/>
      <point x="475" y="-12"/>
      <point x="548" y="70"/>
      <point x="548" y="256" type="curve" smooth="yes"/>
      <point x="548" y="532" type="line"/>
      <point x="384" y="532" type="line"/>
      <point x="384" y="244" type="line" smooth="yes"/>
      <point x="384" y="160"/>
      <point x="367" y="128"/>
      <point x="312" y="128" type="curve" smooth="yes"/>
      <point x="258" y="128"/>
      <point x="238" y="160"/>
      <point x="238" y="244" type="curve" smooth="yes"/>
      <point x="238" y="532" type="line"/>
      <point x="68" y="532" type="line"/>
      <point x="68" y="256" type="line" smooth="yes"/>
      <point x="68" y="70"/>
      <point x="147" y="-12"/>
    </contour>
  </outline>
</glyph>
<glyph name="Upsilon.sc" format="1">
  <advance width="487"/>
  <outline>
    <contour>
      <point x="240" y="564" type="move" name="aboveLC"/>
    </contour>
    <contour>
      <point x="242" y="-22" type="move" name="belowLC"/>
    </contour>
    <component base="Y.sc"/>
  </outline>
</glyph>
<glyph name="Ustraight" format="1">
  <advance width="544"/>
  <outline>
    <contour>
      <point x="272" y="672" type="move" name="aboveUC"/>
    </contour>
    <component base="Y"/>
  </outline>
</glyph>
<glyph name="Ustraightstroke.sc" format="1">
  <advance width="544"/>
  <outline>
    <contour>
      <point x="272" y="672" type="move" name="aboveUC"/>
    </contour>
    <contour>
      <point x="44" y="204" type="line"/>
      <point x="500" y="204" type="line"/>
      <point x="500" y="284" type="line"/>
      <point x="140" y="284" type="line"/>
      <point x="44" y="278" type="line"/>
    </contour>
    <component base="Y"/>
  </outline>
</glyph>
<glyph name="X.sups" format="1">
  <advance width="401"/>
  <outline>
    <contour>
      <point x="7" y="260" type="line"/>
      <point x="135" y="260" type="line"/>
      <point x="165" y="335" type="line" smooth="yes"/>
      <point x="174" y="358"/>
      <point x="185" y="380"/>
      <point x="195" y="407" type="curve"/>
      <point x="197" y="407" type="line"/>
      <point x="208" y="380"/>
      <point x="218" y="358"/>
      <point x="228" y="335" type="curve" smooth="yes"/>
      <point x="260" y="260" type="line"/>
      <point x="394" y="260" type="line"/>
      <point x="277" y="477" type="line"/>
      <point x="388" y="692" type="line"/>
      <point x="259" y="692" type="line"/>
      <point x="236" y="626" type="line" smooth="yes"/>
      <point x="229" y="606"/>
      <point x="220" y="582"/>
      <point x="210" y="552" type="curve"/>
      <point x="207" y="552" type="line"/>
      <point x="195" y="582"/>
      <point x="183" y="606"/>
      <point x="175" y="626" type="curve" smooth="yes"/>
      <point x="148" y="692" type="line"/>
      <point x="14" y="692" type="line"/>
      <point x="126" y="482" type="line"/>
    </contour>
  </outline>
</glyph>
<glyph name="Y.sups" format="1">
  <advance width="370"/>
  <outline>
    <contour>
      <point x="126" y="260" type="line"/>
      <point x="246" y="260" type="line"/>
      <point x="246" y="408" type="line"/>
      <point x="377" y="692" type="line"/>
      <point x="252" y="692" type="line"/>
      <point x="222" y="606" type="line"/>
      <point x="210" y="573"/>
      <point x="199" y="542"/>
      <point x="188" y="508" type="curve"/>
      <point x="186" y="508" type="line"/>
      <point x="174" y="542"/>
      <point x="164" y="573"/>
      <point x="151" y="606" type="curve"/>
      <point x="121" y="692" type="line"/>
      <point x="-7" y="692" type="line"/>
      <point x="126" y="408" type="line"/>
    </contour>
  </outline>
</glyph>
<glyph name="Ze.sc" format="1">
  <advance width="505"/>
  <outline>
    <contour>
      <point x="242" y="-12" type="curve" smooth="yes"/>
      <point x="376" y="-12"/>
      <point x="476" y="46"/>
      <point x="476" y="160" type="curve" smooth="yes"/>
      <point x="476" y="216"/>
      <point x="438" y="262"/>
      <point x="388" y="278" type="curve"/>
      <point x="388" y="282" type="line"/>
      <point x="430" y="304"/>
      <point x="452" y="346"/>
      <point x="452" y="392" type="curve" smooth="yes"/>
      <point x="452" y="484"/>
      <point x="384" y="544"/>
      <point x="236" y="544" type="curve" smooth="yes"/>
      <point x="168" y="544"/>
      <point x="102" y="522"/>
      <point x="44" y="476" type="curve"/>
      <point x="128" y="364" type="line"/>
      <point x="166" y="390"/>
      <point x="192" y="404"/>
      <point x="230" y="404" type="curve" smooth="yes"/>
      <point x="264" y="404"/>
      <point x="286" y="390"/>
      <point x="286" y="366" type="curve" smooth="yes"/>
      <point x="286" y="338"/>
      <point x="270" y="324"/>
      <point x="230" y="324" type="curve" smooth="yes"/>
      <point x="164" y="324" type="line"/>
      <point x="164" y="218" type="line"/>
      <point x="246" y="218" type="line" smooth="yes"/>
      <point x="292" y="218"/>
      <point x="310" y="202"/>
      <point x="310" y="172" type="curve" smooth="yes"/>
      <point x="310" y="144"/>
      <point x="288" y="128"/>
      <point x="242" y="128" type="curve" smooth="yes"/>
      <point x="202" y="128"/>
      <point x="150" y="148"/>
      <point x="114" y="176" type="curve"/>
      <point x="32" y="60" type="line"/>
      <point x="94" y="8"/>
      <point x="174" y="-12"/>
    </contour>
  </outline>
</glyph>
<glyph name="Zeta.sc" format="1">
  <advance width="483"/>
  <outline>
    <contour>
      <point x="258" y="564" type="move" name="aboveLC"/>
    </contour>
    <contour>
      <point x="252" y="-22" type="move" name="belowLC"/>
    </contour>
    <component base="Z.sc"/>
  </outline>
</glyph>
<glyph name="Zhedescender.a" format="1">
  <advance width="962"/>
  <outline>
    <contour>
      <point x="790" y="-192" type="line"/>
      <point x="936" y="-192" type="line"/>
      <point x="954" y="24" type="line"/>
      <point x="954" y="144" type="line"/>
      <point x="756" y="144" type="line"/>
      <point x="756" y="0" type="line"/>
      <point x="790" y="0" type="line"/>
    </contour>
    <component base="Zhe.a" xOffset="10"/>
  </outline>
</glyph>
<glyph name="a.supa" format="1">
  <advance width="390"/>
  <outline>
    <contour>
      <point x="160" y="252" type="curve" smooth="yes"/>
      <point x="192" y="252"/>
      <point x="222" y="268"/>
      <point x="244" y="290" type="curve"/>
      <point x="248" y="290" type="line"/>
      <point x="256" y="260" type="line"/>
      <point x="352" y="260" type="line"/>
      <point x="352" y="591" type="line"/>
      <point x="260" y="591" type="line"/>
      <point x="250" y="558" type="line"/>
      <point x="246" y="558" type="line"/>
      <point x="222" y="586"/>
      <point x="194" y="600"/>
      <point x="164" y="600" type="curve" smooth="yes"/>
      <point x="96" y="600"/>
      <point x="24" y="536"/>
      <point x="24" y="430" type="curve" smooth="yes"/>
      <point x="24" y="318"/>
      <point x="77" y="252"/>
    </contour>
    <contour>
      <point x="194" y="346" type="curve" smooth="yes"/>
      <point x="165" y="346"/>
      <point x="146" y="368"/>
      <point x="146" y="432" type="curve" smooth="yes"/>
      <point x="146" y="484"/>
      <point x="168" y="506"/>
      <point x="192" y="506" type="curve" smooth="yes"/>
      <point x="206" y="506"/>
      <point x="218" y="502"/>
      <point x="232" y="490" type="curve"/>
      <point x="232" y="370" type="line"/>
      <point x="222" y="352"/>
      <point x="210" y="346"/>
    </contour>
  </outline>
</glyph>
<glyph name="a.sups" format="1">
  <advance width="364"/>
  <outline>
    <contour>
      <point x="128" y="252" type="curve" smooth="yes"/>
      <point x="164" y="252"/>
      <point x="194" y="268"/>
      <point x="218" y="292" type="curve"/>
      <point x="222" y="292" type="line"/>
      <point x="232" y="260" type="line"/>
      <point x="328" y="260" type="line"/>
      <point x="328" y="446" type="line" smooth="yes"/>
      <point x="328" y="552"/>
      <point x="272" y="600"/>
      <point x="186" y="600" type="curve" smooth="yes"/>
      <point x="134" y="600"/>
      <point x="84" y="584"/>
      <point x="36" y="556" type="curve"/>
      <point x="78" y="478" type="line"/>
      <point x="113" y="496"/>
      <point x="140" y="506"/>
      <point x="164" y="506" type="curve" smooth="yes"/>
      <point x="191" y="506"/>
      <point x="205" y="497"/>
      <point x="208" y="474" type="curve"/>
      <point x="80" y="462"/>
      <point x="26" y="424"/>
      <point x="26" y="354" type="curve" smooth="yes"/>
      <point x="26" y="300"/>
      <point x="64" y="252"/>
    </contour>
    <contour>
      <point x="169" y="342" type="curve" smooth="yes"/>
      <point x="150" y="342"/>
      <point x="140" y="350"/>
      <point x="140" y="364" type="curve" smooth="yes"/>
      <point x="140" y="382"/>
      <point x="156" y="400"/>
      <point x="208" y="406" type="curve"/>
      <point x="208" y="362" type="line"/>
      <point x="196" y="350"/>
      <point x="186" y="342"/>
    </contour>
  </outline>
</glyph>
<glyph name="a.sups" format="1">
  <advance width="364"/>
  <outline>
    <contour>
      <point x="128" y="360" type="curve" smooth="yes"/>
      <point x="164" y="360"/>
      <point x="194" y="376"/>
      <point x="218" y="400" type="curve"/>
      <point x="222" y="400" type="line"/>
      <point x="232" y="368" type="line"/>
      <point x="328" y="368" type="line"/>
      <point x="328" y="554" type="line" smooth="yes"/>
      <point x="328" y="660"/>
      <point x="272" y="708"/>
      <point x="186" y="708" type="curve" smooth="yes"/>
      <point x="134" y="708"/>
      <point x="84" y="692"/>
      <point x="36" y="664" type="curve"/>
      <point x="78" y="586" type="line"/>
      <point x="113" y="604"/>
      <point x="140" y="614"/>
      <point x="164" y="614" type="curve" smooth="yes"/>
      <point x="191" y="614"/>
      <point x="205" y="605"/>
      <point x="208" y="582" type="curve"/>
      <point x="80" y="570"/>
      <point x="26" y="532"/>
      <point x="26" y="462" type="curve" smooth="yes"/>
      <point x="26" y="408"/>
      <point x="64" y="360"/>
    </contour>
    <contour>
      <point x="169" y="450" type="curve" smooth="yes"/>
      <point x="150" y="450"/>
      <point x="140" y="458"/>
      <point x="140" y="472" type="curve" smooth="yes"/>
      <point x="140" y="490"/>
      <point x="156" y="508"/>
      <point x="208" y="514" type="curve"/>
      <point x="208" y="470" type="line"/>
      <point x="196" y="458"/>
      <point x="186" y="450"/>
    </contour>
  </outline>
</glyph>
<glyph name="acircumflexacute.alt" format="1">
  <advance width="580"/>
  <outline>
    <contour>
      <point x="268" y="500" type="move" name="aboveLC"/>
    </contour>
    <contour>
      <point x="268" y="-22" type="move" name="belowLC"/>
    </contour>
    <component base="alphalatin"/>
    <component base="circumflexacute" xOffset="306"/>
  </outline>
</glyph>
<glyph name="acute" format="1">
  <advance width="560"/>
  <outline>
    <contour>
      <point x="280" y="522" type="move" name="_aboveLC"/>
    </contour>
    <component base="acutecmb" xOffset="280"/>
  </outline>
</glyph>
<glyph name="acyr" format="1">
  <advance width="536"/>
  <outline>
    <contour>
      <point x="285" y="522" type="move" name="aboveLC"/>
    </contour>
    <component base="a"/>
  </outline>
</glyph>
<glyph name="aogonek" format="1">
  <advance width="536"/>
  <outline>
    <contour>
      <point x="285" y="522" type="move" name="aboveLC"/>
    </contour>
    <contour>
      <point x="392" y="-212" type="curve" smooth="yes"/>
      <point x="426" y="-212"/>
      <point x="474" y="-198"/>
      <point x="502" y="-176" type="curve"/>
      <point x="468" y="-100" type="line"/>
      <point x="460" y="-106"/>
      <point x="446" y="-112"/>
      <point x="434" y="-112" type="curve" smooth="yes"/>
      <point x="414" y="-112"/>
      <point x="394" y="-102"/>
      <point x="394" y="-78" type="curve" smooth="yes"/>
      <point x="394" y="-50"/>
      <point x="414" y="-16"/>
      <point x="482" y="0" type="curve"/>
      <point x="482" y="278" type="line" smooth="yes"/>
      <point x="482" y="442"/>
      <point x="404" y="512"/>
      <point x="274" y="512" type="curve" smooth="yes"/>
      <point x="196" y="512"/>
      <point x="124" y="488"/>
      <point x="54" y="446" type="curve"/>
      <point x="114" y="334" type="line"/>
      <point x="166" y="362"/>
      <point x="204" y="376"/>
      <point x="240" y="376" type="curve" smooth="yes"/>
      <point x="284" y="376"/>
      <point x="306" y="360"/>
      <point x="310" y="324" type="curve"/>
      <point x="118" y="304"/>
      <point x="38" y="246"/>
      <point x="38" y="142" type="curve" smooth="yes"/>
      <point x="38" y="60"/>
      <point x="94" y="-12"/>
      <point x="188" y="-12" type="curve" smooth="yes"/>
      <point x="242" y="-12"/>
      <point x="286" y="12"/>
      <point x="326" y="48" type="curve"/>
      <point x="330" y="48" type="line"/>
      <point x="344" y="-4" type="line"/>
      <point x="324" y="-18"/>
      <point x="280" y="-58"/>
      <point x="280" y="-118" type="curve" smooth="yes"/>
      <point x="280" y="-180"/>
      <point x="330" y="-212"/>
    </contour>
    <contour>
      <point x="248" y="120" type="curve" smooth="yes"/>
      <point x="218" y="120"/>
      <point x="202" y="133"/>
      <point x="202" y="156" type="curve" smooth="yes"/>
      <point x="202" y="184"/>
      <point x="228" y="210"/>
      <point x="310" y="222" type="curve"/>
      <point x="310" y="154" type="line"/>
      <point x="292" y="134"/>
      <point x="276" y="120"/>
    </contour>
  </outline>
</glyph>
<glyph name="asper" format="1">
  <advance width="560"/>
  <outline>
    <contour>
      <point x="280" y="522" type="move" name="_aboveLC"/>
    </contour>
    <component base="aspercmb" xOffset="280"/>
  </outline>
</glyph>
<glyph name="aspercmb" format="1">
  <advance width="0"/>
  <outline>
    <contour>
      <point x="0" y="522" type="move" name="_aboveLC"/>
    </contour>
    <contour>
      <point x="38" y="558" type="curve"/>
      <point x="50" y="624" type="line"/>
      <point x="28" y="627"/>
      <point x="10" y="632"/>
      <point x="10" y="648" type="curve" smooth="yes"/>
      <point x="10" y="664"/>
      <point x="30" y="674"/>
      <point x="88" y="678" type="curve"/>
      <point x="68" y="762" type="line"/>
      <point x="-70" y="758"/>
      <point x="-112" y="720"/>
      <point x="-112" y="666" type="curve" smooth="yes"/>
      <point x="-112" y="594"/>
      <point x="-44" y="562"/>
    </contour>
  </outline>
</glyph>
<glyph name="aspergrave.cap" format="1">
  <advance width="360"/>
  <outline>
    <contour>
      <point x="118" y="426" type="curve"/>
      <point x="130" y="492" type="line"/>
      <point x="114" y="500"/>
      <point x="100" y="509"/>
      <point x="100" y="532" type="curve" smooth="yes"/>
      <point x="100" y="553"/>
      <point x="118" y="573"/>
      <point x="168" y="578" type="curve"/>
      <point x="148" y="662" type="line"/>
      <point x="36" y="658"/>
      <point x="-12" y="614"/>
      <point x="-12" y="550" type="curve" smooth="yes"/>
      <point x="-12" y="474"/>
      <point x="56" y="436"/>
    </contour>
    <contour>
      <point x="262" y="430" type="line"/>
      <point x="374" y="430" type="line"/>
      <point x="344" y="660" type="line"/>
      <point x="194" y="660" type="line"/>
    </contour>
  </outline>
</glyph>
<glyph name="aspergravecmb" format="1">
  <advance width="0"/>
  <outline>
    <contour>
      <point x="0" y="522" type="move" name="_aboveLC"/>
    </contour>
    <contour>
      <point x="66" y="564" type="line"/>
      <point x="164" y="564" type="line"/>
      <point x="134" y="754" type="line"/>
      <point x="-12" y="754" type="line"/>
    </contour>
    <contour>
      <point x="-78" y="558" type="curve"/>
      <point x="-66" y="624" type="line"/>
      <point x="-82" y="627"/>
      <point x="-96" y="632"/>
      <point x="-96" y="648" type="curve" smooth="yes"/>
      <point x="-96" y="664"/>
      <point x="-78" y="674"/>
      <point x="-28" y="678" type="curve"/>
      <point x="-48" y="762" type="line"/>
      <point x="-160" y="758"/>
      <point x="-208" y="720"/>
      <point x="-208" y="666" type="curve" smooth="yes"/>
      <point x="-208" y="594"/>
      <point x="-139" y="566"/>
    </contour>
  </outline>
</glyph>
<glyph name="aspertilde.cap" format="1">
  <advance width="236"/>
  <outline>
    <contour>
      <point x="156" y="389" type="curve"/>
      <point x="166" y="441" type="line"/>
      <point x="150" y="443"/>
      <point x="140" y="446"/>
      <point x="140" y="455" type="curve" smooth="yes"/>
      <point x="140" y="465"/>
      <point x="153" y="471"/>
      <point x="204" y="475" type="curve"/>
      <point x="188" y="541" type="line"/>
      <point x="66" y="537"/>
      <point x="30" y="513"/>
      <point x="30" y="473" type="curve" smooth="yes"/>
      <point x="30" y="420"/>
      <point x="86" y="396"/>
    </contour>
    <contour>
      <point x="-24" y="574" type="curve"/>
      <point x="48" y="564" type="line"/>
      <point x="52" y="584"/>
      <point x="58" y="590"/>
      <point x="72" y="590" type="curve" smooth="yes"/>
      <point x="98" y="590"/>
      <point x="124" y="558"/>
      <point x="170" y="558" type="curve" smooth="yes"/>
      <point x="220" y="558"/>
      <point x="250" y="575"/>
      <point x="260" y="652" type="curve"/>
      <point x="188" y="662" type="line"/>
      <point x="184" y="642"/>
      <point x="178" y="636"/>
      <point x="164" y="636" type="curve" smooth="yes"/>
      <point x="138" y="636"/>
      <point x="112" y="668"/>
      <point x="66" y="668" type="curve" smooth="yes"/>
      <point x="16" y="668"/>
      <point x="-14" y="651"/>
    </contour>
  </outline>
</glyph>
<glyph name="b.sups" format="1">
  <advance width="390"/>
  <outline>
    <contour>
      <point x="228" y="252" type="curve" smooth="yes"/>
      <point x="298" y="252"/>
      <point x="366" y="316"/>
      <point x="366" y="432" type="curve" smooth="yes"/>
      <point x="366" y="532"/>
      <point x="314" y="600"/>
      <point x="236" y="600" type="curve" smooth="yes"/>
      <point x="207" y="600"/>
      <point x="177" y="587"/>
      <point x="154" y="566" type="curve"/>
      <point x="158" y="613" type="line"/>
      <point x="158" y="720" type="line"/>
      <point x="38" y="720" type="line"/>
      <point x="38" y="260" type="line"/>
      <point x="130" y="260" type="line"/>
      <point x="140" y="296" type="line"/>
      <point x="144" y="296" type="line"/>
      <point x="166" y="266"/>
      <point x="198" y="252"/>
    </contour>
    <contour>
      <point x="198" y="346" type="curve" smooth="yes"/>
      <point x="184" y="346"/>
      <point x="172" y="350"/>
      <point x="158" y="360" type="curve"/>
      <point x="158" y="482" type="line"/>
      <point x="172" y="498"/>
      <point x="184" y="504"/>
      <point x="200" y="504" type="curve" smooth="yes"/>
      <point x="228" y="504"/>
      <point x="244" y="484"/>
      <point x="244" y="430" type="curve" smooth="yes"/>
      <point x="244" y="368"/>
      <point x="222" y="346"/>
    </contour>
  </outline>
</glyph>
<glyph name="beta.alt" format="1">
  <advance width="614"/>
  <outline>
    <contour>
      <point x="334" y="-12" type="curve" smooth="yes"/>
      <point x="468" y="-12"/>
      <point x="582" y="52"/>
      <point x="582" y="202" type="curve" smooth="yes"/>
      <point x="582" y="290"/>
      <point x="518" y="362"/>
      <point x="434" y="376" type="curve"/>
      <point x="434" y="380" type="line"/>
      <point x="502" y="408"/>
      <point x="532" y="458"/>
      <point x="532" y="523" type="curve" smooth="yes"/>
      <point x="532" y="651"/>
      <point x="418" y="706"/>
      <point x="302" y="706" type="curve" smooth="yes"/>
      <point x="134" y="706"/>
      <point x="58" y="602"/>
      <point x="58" y="466" type="curve" smooth="yes"/>
      <point x="58" y="244" type="line" smooth="yes"/>
      <point x="58" y="60"/>
      <point x="194" y="-12"/>
    </contour>
    <contour>
      <point x="328" y="136" type="curve" smooth="yes"/>
      <point x="272" y="136"/>
      <point x="218" y="172"/>
      <point x="218" y="263" type="curve" smooth="yes"/>
      <point x="218" y="312"/>
      <point x="220" y="384"/>
      <point x="224" y="448" type="curve" smooth="yes"/>
      <point x="229" y="522"/>
      <point x="250" y="572"/>
      <point x="302" y="572" type="curve" smooth="yes"/>
      <point x="336" y="572"/>
      <point x="368" y="552"/>
      <point x="368" y="506" type="curve" smooth="yes"/>
      <point x="368" y="436"/>
      <point x="342" y="408"/>
      <point x="160" y="376" type="curve"/>
      <point x="180" y="254" type="line"/>
      <point x="264" y="282"/>
      <point x="314" y="292"/>
      <point x="338" y="292" type="curve" smooth="yes"/>
      <point x="388" y="292"/>
      <point x="414" y="256"/>
      <point x="414" y="214" type="curve" smooth="yes"/>
      <point x="414" y="160"/>
      <point x="374" y="136"/>
    </contour>
  </outline>
</glyph>
<glyph name="breve" format="1">
  <advance width="560"/>
  <outline>
    <component base="brevecmb" xOffset="280"/>
    <contour>
      <point x="280" y="522" type="move" name="_aboveLC"/>
    </contour>
    <contour>
      <point x="280" y="720" type="move" name="aboveLC"/>
    </contour>
  </outline>
</glyph>
<glyph name="breveacute.cap" format="1">
  <advance width="0"/>
  <outline>
    <contour>
      <point x="0" y="672" type="move" name="_aboveUC"/>
    </contour>
    <contour>
      <point x="-62" y="860" type="line"/>
      <point x="22" y="806" type="line"/>
      <point x="140" y="940" type="line"/>
      <point x="34" y="1004" type="line"/>
    </contour>
    <contour>
      <point x="0" y="694" type="curve" smooth="yes"/>
      <point x="102" y="694"/>
      <point x="160" y="738"/>
      <point x="170" y="834" type="curve"/>
      <point x="88" y="850" type="line"/>
      <point x="77" y="804"/>
      <point x="45" y="782"/>
      <point x="0" y="782" type="curve" smooth="yes"/>
      <point x="-45" y="782"/>
      <point x="-77" y="804"/>
      <point x="-88" y="850" type="curve"/>
      <point x="-170" y="834" type="line"/>
      <point x="-160" y="738"/>
      <point x="-102" y="694"/>
    </contour>
  </outline>
</glyph>
<glyph name="brevecmb.cap" format="1">
  <advance width="0"/>
  <outline>
    <contour>
      <point x="0" y="672" type="move" name="_aboveUC"/>
    </contour>
    <contour>
      <point x="0" y="694" type="curve" smooth="yes"/>
      <point x="102" y="694"/>
      <point x="160" y="738"/>
      <point x="170" y="834" type="curve"/>
      <point x="78" y="850" type="line"/>
      <point x="69" y="811"/>
      <point x="40" y="792"/>
      <point x="0" y="792" type="curve" smooth="yes"/>
      <point x="-40" y="792"/>
      <point x="-69" y="811"/>
      <point x="-78" y="850" type="curve"/>
      <point x="-170" y="834" type="line"/>
      <point x="-160" y="738"/>
      <point x="-102" y="694"/>
    </contour>
  </outline>
</glyph>
<glyph name="brevecmb.cyr" format="1">
  <advance width="0"/>
  <outline>
    <contour>
      <point x="0" y="522" type="move" name="_aboveLC"/>
    </contour>
    <contour>
      <point x="0" y="572" type="curve" smooth="yes"/>
      <point x="116" y="572"/>
      <point x="176" y="631"/>
      <point x="178" y="738" type="curve"/>
      <point x="46" y="738" type="line"/>
      <point x="44" y="684"/>
      <point x="34" y="662"/>
      <point x="0" y="662" type="curve" smooth="yes"/>
      <point x="-34" y="662"/>
      <point x="-44" y="684"/>
      <point x="-46" y="738" type="curve"/>
      <point x="-178" y="738" type="line"/>
      <point x="-176" y="631"/>
      <point x="-116" y="572"/>
    </contour>
  </outline>
</glyph>
<glyph name="brevecmb" format="1">
  <advance width="0"/>
  <outline>
    <contour>
      <point x="0" y="522" type="move" name="_aboveLC"/>
    </contour>
    <contour>
      <point x="0" y="572" type="curve" smooth="yes"/>
      <point x="118" y="572"/>
      <point x="172" y="638"/>
      <point x="174" y="732" type="curve"/>
      <point x="78" y="748" type="line"/>
      <point x="72" y="708"/>
      <point x="48" y="678"/>
      <point x="0" y="678" type="curve" smooth="yes"/>
      <point x="-48" y="678"/>
      <point x="-72" y="708"/>
      <point x="-78" y="748" type="curve"/>
      <point x="-174" y="732" type="line"/>
      <point x="-172" y="638"/>
      <point x="-117" y="572"/>
    </contour>
  </outline>
</glyph>
<glyph name="brevecmb.cyrcap" format="1">
  <advance width="0"/>
  <outline>
    <contour>
      <point x="0" y="672" type="move" name="_aboveUC"/>
    </contour>
    <contour>
      <point x="0" y="694" type="curve" smooth="yes"/>
      <point x="134" y="694"/>
      <point x="184" y="750"/>
      <point x="188" y="834" type="curve"/>
      <point x="44" y="834" type="line"/>
      <point x="42" y="797"/>
      <point x="28" y="778"/>
      <point x="0" y="778" type="curve" smooth="yes"/>
      <point x="-28" y="778"/>
      <point x="-42" y="797"/>
      <point x="-44" y="834" type="curve"/>
      <point x="-188" y="834" type="line"/>
      <point x="-184" y="750"/>
      <point x="-134" y="694"/>
    </contour>
  </outline>
</glyph>
<glyph name="brevehoi.cap" format="1">
  <outline>
    <contour>
      <point x="-36" y="808" type="line"/>
      <point x="35" y="812"/>
      <point x="88" y="836"/>
      <point x="88" y="898" type="curve" smooth="yes"/>
      <point x="88" y="942"/>
      <point x="54" y="978"/>
      <point x="-68" y="982" type="curve"/>
      <point x="-84" y="914" type="line"/>
      <point x="-33" y="910"/>
      <point x="-20" y="900"/>
      <point x="-20" y="884" type="curve" smooth="yes"/>
      <point x="-20" y="868"/>
      <point x="-32" y="863"/>
      <point x="-48" y="860" type="curve"/>
    </contour>
    <contour>
      <point x="0" y="694" type="curve" smooth="yes"/>
      <point x="102" y="694"/>
      <point x="160" y="738"/>
      <point x="170" y="834" type="curve"/>
      <point x="88" y="850" type="line"/>
      <point x="77" y="804"/>
      <point x="45" y="782"/>
      <point x="0" y="782" type="curve" smooth="yes"/>
      <point x="-45" y="782"/>
      <point x="-77" y="804"/>
      <point x="-88" y="850" type="curve"/>
      <point x="-170" y="834" type="line"/>
      <point x="-160" y="738"/>
      <point x="-102" y="694"/>
    </contour>
    <contour>
      <point x="0" y="672" type="move" name="_aboveUC"/>
    </contour>
  </outline>
</glyph>
<glyph name="brevehoi" format="1">
  <outline>
    <contour>
      <point x="-38" y="703" type="line"/>
      <point x="32" y="711"/>
      <point x="88" y="731"/>
      <point x="88" y="801" type="curve" smooth="yes"/>
      <point x="88" y="859"/>
      <point x="52" y="900"/>
      <point x="-70" y="904" type="curve"/>
      <point x="-86" y="813" type="line"/>
      <point x="-35" y="809"/>
      <point x="-22" y="799"/>
      <point x="-22" y="783" type="curve" smooth="yes"/>
      <point x="-22" y="767"/>
      <point x="-32" y="762"/>
      <point x="-48" y="759" type="curve"/>
    </contour>
    <contour>
      <point x="0" y="572" type="curve" smooth="yes"/>
      <point x="118" y="572"/>
      <point x="172" y="638"/>
      <point x="174" y="732" type="curve"/>
      <point x="88" y="748" type="line"/>
      <point x="81" y="702"/>
      <point x="54" y="668"/>
      <point x="0" y="668" type="curve" smooth="yes"/>
      <point x="-54" y="668"/>
      <point x="-81" y="702"/>
      <point x="-88" y="748" type="curve"/>
      <point x="-174" y="732" type="line"/>
      <point x="-172" y="638"/>
      <point x="-117" y="572"/>
    </contour>
    <contour>
      <point x="0" y="522" type="move" name="_aboveLC"/>
    </contour>
  </outline>
</glyph>
<glyph name="brevehoi.cap" format="1">
  <advance width="0"/>
  <outline>
    <contour>
      <point x="0" y="672" type="move" name="_aboveUC"/>
    </contour>
    <contour>
      <point x="-36" y="808" type="line"/>
      <point x="35" y="812"/>
      <point x="88" y="836"/>
      <point x="88" y="898" type="curve" smooth="yes"/>
      <point x="88" y="942"/>
      <point x="54" y="978"/>
      <point x="-68" y="982" type="curve"/>
      <point x="-84" y="914" type="line"/>
      <point x="-33" y="910"/>
      <point x="-20" y="900"/>
      <point x="-20" y="884" type="curve" smooth="yes"/>
      <point x="-20" y="868"/>
      <point x="-32" y="863"/>
      <point x="-48" y="860" type="curve"/>
    </contour>
    <contour>
      <point x="0" y="694" type="curve" smooth="yes"/>
      <point x="102" y="694"/>
      <point x="160" y="738"/>
      <point x="170" y="834" type="curve"/>
      <point x="88" y="850" type="line"/>
      <point x="77" y="804"/>
      <point x="45" y="782"/>
      <point x="0" y="782" type="curve" smooth="yes"/>
      <point x="-45" y="782"/>
      <point x="-77" y="804"/>
      <point x="-88" y="850" type="curve"/>
      <point x="-170" y="834" type="line"/>
      <point x="-160" y="738"/>
      <point x="-102" y="694"/>
    </contour>
  </outline>
</glyph>
<glyph name="breveinvertedbelowcmb" format="1">
  <advance width="0"/>
  <outline>
    <contour>
      <point x="0" y="-22" type="move" name="_belowLC"/>
    </contour>
    <contour>
      <point x="-144" y="-218" type="curve"/>
      <point x="-50" y="-218" type="line"/>
      <point x="-46" y="-188"/>
      <point x="-31" y="-166"/>
      <point x="0" y="-166" type="curve" smooth="yes"/>
      <point x="31" y="-166"/>
      <point x="46" y="-188"/>
      <point x="50" y="-218" type="curve"/>
      <point x="144" y="-218" type="line"/>
      <point x="142" y="-140"/>
      <point x="96" y="-74"/>
      <point x="0" y="-74" type="curve" smooth="yes"/>
      <point x="-96" y="-74"/>
      <point x="-142" y="-140"/>
    </contour>
  </outline>
</glyph>
<glyph name="breveinvertedcmb.cap" format="1">
  <advance width="0"/>
  <outline>
    <contour>
      <point x="0" y="672" type="move" name="_aboveUC"/>
    </contour>
    <contour>
      <point x="-170" y="700" type="curve"/>
      <point x="-58" y="700" type="line"/>
      <point x="-52" y="737"/>
      <point x="-30" y="756"/>
      <point x="0" y="756" type="curve" smooth="yes"/>
      <point x="30" y="756"/>
      <point x="52" y="737"/>
      <point x="58" y="700" type="curve"/>
      <point x="170" y="700" type="line"/>
      <point x="162" y="790"/>
      <point x="102" y="840"/>
      <point x="0" y="840" type="curve" smooth="yes"/>
      <point x="-102" y="840"/>
      <point x="-162" y="790"/>
    </contour>
  </outline>
</glyph>
<glyph name="breveinvertedcmb" format="1">
  <advance width="0"/>
  <outline>
    <contour>
      <point x="0" y="522" type="move" name="_aboveLC"/>
    </contour>
    <contour>
      <point x="-78" y="564" type="line"/>
      <point x="-72" y="604"/>
      <point x="-48" y="634"/>
      <point x="0" y="634" type="curve" smooth="yes"/>
      <point x="48" y="634"/>
      <point x="72" y="604"/>
      <point x="78" y="564" type="curve"/>
      <point x="174" y="580" type="line"/>
      <point x="172" y="674"/>
      <point x="117" y="740"/>
      <point x="0" y="740" type="curve" smooth="yes"/>
      <point x="-118" y="740"/>
      <point x="-172" y="674"/>
      <point x="-174" y="580" type="curve"/>
    </contour>
  </outline>
</glyph>
<glyph name="brevetilde.cap" format="1">
  <advance width="0"/>
  <outline>
    <contour>
      <point x="0" y="672" type="move" name="_aboveUC"/>
    </contour>
    <contour>
      <point x="0" y="700" type="curve" smooth="yes"/>
      <point x="102" y="700"/>
      <point x="154" y="742"/>
      <point x="162" y="814" type="curve"/>
      <point x="82" y="828" type="line"/>
      <point x="73" y="802"/>
      <point x="52" y="780"/>
      <point x="0" y="780" type="curve" smooth="yes"/>
      <point x="-52" y="780"/>
      <point x="-73" y="802"/>
      <point x="-82" y="828" type="curve"/>
      <point x="-162" y="814" type="line"/>
      <point x="-154" y="742"/>
      <point x="-102" y="700"/>
    </contour>
    <contour>
      <point x="-156" y="864" type="curve"/>
      <point x="-76" y="854" type="line"/>
      <point x="-72" y="880"/>
      <point x="-62" y="890"/>
      <point x="-46" y="890" type="curve" smooth="yes"/>
      <point x="-24" y="890"/>
      <point x="6" y="848"/>
      <point x="58" y="848" type="curve" smooth="yes"/>
      <point x="114" y="848"/>
      <point x="152" y="881"/>
      <point x="156" y="966" type="curve"/>
      <point x="76" y="976" type="line"/>
      <point x="72" y="950"/>
      <point x="62" y="940"/>
      <point x="46" y="940" type="curve" smooth="yes"/>
      <point x="24" y="940"/>
      <point x="-6" y="982"/>
      <point x="-58" y="982" type="curve" smooth="yes"/>
      <point x="-114" y="982"/>
      <point x="-152" y="949"/>
    </contour>
  </outline>
</glyph>
<glyph name="caronbelowcmb" format="1">
  <advance width="0"/>
  <outline>
    <contour>
      <point x="0" y="-22" type="move" name="_belowLC"/>
    </contour>
    <contour>
      <point x="-68" y="-210" type="line"/>
      <point x="68" y="-210" type="line"/>
      <point x="164" y="-56" type="line"/>
      <point x="50" y="-56" type="line"/>
      <point x="2" y="-130" type="line"/>
      <point x="-2" y="-130" type="line"/>
      <point x="-50" y="-56" type="line"/>
      <point x="-164" y="-56" type="line"/>
    </contour>
  </outline>
</glyph>
<glyph name="caroncmb" format="1">
  <advance width="0"/>
  <outline>
    <contour>
      <point x="0" y="522" type="move" name="_aboveLC"/>
    </contour>
    <contour>
      <point x="-88" y="574" type="line"/>
      <point x="88" y="574" type="line"/>
      <point x="194" y="748" type="line"/>
      <point x="60" y="748" type="line"/>
      <point x="2" y="664" type="line"/>
      <point x="-2" y="664" type="line"/>
      <point x="-60" y="748" type="line"/>
      <point x="-194" y="748" type="line"/>
    </contour>
  </outline>
</glyph>
<glyph name="cedilla" format="1">
  <advance width="560"/>
  <outline>
    <contour>
      <point x="280" y="0" type="move" name="_baseLC"/>
    </contour>
    <component base="cedillacmb" xOffset="280"/>
  </outline>
</glyph>
<glyph name="cedillacmb.cap" format="1">
  <advance width="0"/>
  <outline>
    <contour>
      <point x="0" y="0" type="move" name="_baseLC"/>
    </contour>
    <contour>
      <point x="-108" y="-224" type="line"/>
      <point x="24" y="-220"/>
      <point x="102" y="-188"/>
      <point x="102" y="-116" type="curve" smooth="yes"/>
      <point x="102" y="-74"/>
      <point x="76" y="-52"/>
      <point x="24" y="-40" type="curve"/>
      <point x="52" y="4" type="line"/>
      <point x="-46" y="4" type="line"/>
      <point x="-96" y="-76" type="line"/>
      <point x="-34" y="-84"/>
      <point x="-20" y="-98"/>
      <point x="-20" y="-116" type="curve" smooth="yes"/>
      <point x="-20" y="-144"/>
      <point x="-44" y="-154"/>
      <point x="-120" y="-158" type="curve"/>
    </contour>
  </outline>
</glyph>
<glyph name="circumflexacute.cap" format="1">
  <advance width="0"/>
  <outline>
    <contour>
      <point x="0" y="672" type="move" name="_aboveUC"/>
    </contour>
    <contour>
      <point x="-170" y="700" type="line"/>
      <point x="-50" y="700" type="line"/>
      <point x="-2" y="752" type="line"/>
      <point x="2" y="752" type="line"/>
      <point x="50" y="700" type="line"/>
      <point x="170" y="700" type="line"/>
      <point x="74" y="818" type="line"/>
      <point x="-74" y="818" type="line"/>
    </contour>
    <contour>
      <point x="121" y="770" type="line"/>
      <point x="217" y="770" type="line"/>
      <point x="319" y="894" type="line"/>
      <point x="189" y="894" type="line"/>
    </contour>
  </outline>
</glyph>
<glyph name="circumflexacute" format="1">
  <advance width="0"/>
  <outline>
    <contour>
      <point x="0" y="522" type="move" name="_aboveLC"/>
    </contour>
    <contour>
      <point x="-148" y="574" type="line"/>
      <point x="-44" y="574" type="line"/>
      <point x="-2" y="636" type="line"/>
      <point x="2" y="636" type="line"/>
      <point x="44" y="574" type="line"/>
      <point x="148" y="574" type="line"/>
      <point x="68" y="706" type="line"/>
      <point x="-68" y="706" type="line"/>
    </contour>
    <contour>
      <point x="114" y="648" type="line"/>
      <point x="208" y="648" type="line"/>
      <point x="304" y="768" type="line"/>
      <point x="180" y="768" type="line"/>
    </contour>
  </outline>
</glyph>
<glyph name="circumflexacute.cap" format="1">
  <advance width="0"/>
  <outline>
    <contour>
      <point x="0" y="672" type="move" name="_aboveUC"/>
    </contour>
    <contour>
      <point x="-94" y="680" type="line"/>
      <point x="-2" y="752" type="line"/>
      <point x="2" y="752" type="line"/>
      <point x="94" y="680" type="line"/>
      <point x="162" y="724" type="line"/>
      <point x="74" y="828" type="line"/>
      <point x="-74" y="828" type="line"/>
      <point x="-162" y="724" type="line"/>
    </contour>
    <contour>
      <point x="164" y="758" type="line"/>
      <point x="270" y="830" type="line"/>
      <point x="216" y="898" type="line"/>
      <point x="114" y="814" type="line"/>
    </contour>
  </outline>
</glyph>
<glyph name="circumflexbreve.cap" format="1">
  <advance width="0"/>
  <outline>
    <contour>
      <point x="0" y="672" type="move" name="_aboveUC"/>
    </contour>
    <contour>
      <point x="-170" y="700" type="line"/>
      <point x="-50" y="700" type="line"/>
      <point x="-2" y="752" type="line"/>
      <point x="2" y="752" type="line"/>
      <point x="50" y="700" type="line"/>
      <point x="170" y="700" type="line"/>
      <point x="74" y="818" type="line"/>
      <point x="-74" y="818" type="line"/>
    </contour>
    <contour>
      <point x="0" y="854" type="curve" smooth="yes"/>
      <point x="90" y="854"/>
      <point x="134" y="898"/>
      <point x="142" y="976" type="curve"/>
      <point x="66" y="976" type="line"/>
      <point x="58" y="946"/>
      <point x="42" y="928"/>
      <point x="0" y="928" type="curve" smooth="yes"/>
      <point x="-42" y="928"/>
      <point x="-58" y="946"/>
      <point x="-66" y="976" type="curve"/>
      <point x="-142" y="976" type="line"/>
      <point x="-134" y="898"/>
      <point x="-90" y="854"/>
    </contour>
  </outline>
</glyph>
<glyph name="circumflexcmb" format="1">
  <advance width="0"/>
  <outline>
    <contour>
      <point x="0" y="522" type="move" name="_aboveLC"/>
    </contour>
    <contour>
      <point x="0" y="740" type="move" name="aboveLC"/>
    </contour>
    <contour>
      <point x="-194" y="618" type="line"/>
      <point x="-130" y="558" type="line"/>
      <point x="-2" y="642" type="line"/>
      <point x="2" y="642" type="line"/>
      <point x="130" y="558" type="line"/>
      <point x="194" y="618" type="line"/>
      <point x="88" y="746" type="line"/>
      <point x="-88" y="746" type="line"/>
    </contour>
  </outline>
</glyph>
<glyph name="circumflexcmb.cap" format="1">
  <advance width="0"/>
  <outline>
    <contour>
      <point x="0" y="672" type="move" name="_aboveUC"/>
    </contour>
    <contour>
      <point x="-178" y="724" type="line"/>
      <point x="-104" y="680" type="line"/>
      <point x="-2" y="760" type="line"/>
      <point x="2" y="760" type="line"/>
      <point x="104" y="680" type="line"/>
      <point x="178" y="724" type="line"/>
      <point x="94" y="834" type="line"/>
      <point x="-94" y="834" type="line"/>
    </contour>
  </outline>
</glyph>
<glyph name="circumflexgrave" format="1">
  <advance width="0"/>
  <outline>
    <contour>
      <point x="0" y="522" type="move" name="_aboveLC"/>
    </contour>
    <contour>
      <point x="-148" y="574" type="line"/>
      <point x="-44" y="574" type="line"/>
      <point x="-2" y="636" type="line"/>
      <point x="2" y="636" type="line"/>
      <point x="44" y="574" type="line"/>
      <point x="148" y="574" type="line"/>
      <point x="68" y="706" type="line"/>
      <point x="-68" y="706" type="line"/>
    </contour>
    <contour>
      <point x="174" y="648" type="line"/>
      <point x="268" y="648" type="line"/>
      <point x="202" y="768" type="line"/>
      <point x="78" y="768" type="line"/>
    </contour>
  </outline>
</glyph>
<glyph name="circumflexhoi" format="1">
  <advance width="0"/>
  <outline>
    <contour>
      <point x="0" y="522" type="move" name="_aboveLC"/>
    </contour>
    <contour>
      <point x="-104" y="564" type="line"/>
      <point x="-2" y="626" type="line"/>
      <point x="2" y="626" type="line"/>
      <point x="104" y="564" type="line"/>
      <point x="158" y="624" type="line"/>
      <point x="68" y="716" type="line"/>
      <point x="-68" y="716" type="line"/>
      <point x="-158" y="624" type="line"/>
    </contour>
    <contour>
      <point x="146" y="648" type="line"/>
      <point x="216" y="656"/>
      <point x="272" y="676"/>
      <point x="272" y="746" type="curve" smooth="yes"/>
      <point x="272" y="792"/>
      <point x="236" y="824"/>
      <point x="114" y="828" type="curve"/>
      <point x="98" y="758" type="line"/>
      <point x="149" y="754"/>
      <point x="162" y="744"/>
      <point x="162" y="728" type="curve" smooth="yes"/>
      <point x="162" y="712"/>
      <point x="152" y="707"/>
      <point x="136" y="704" type="curve"/>
    </contour>
  </outline>
</glyph>
<glyph name="circumflextilde" format="1">
  <outline>
    <contour>
      <point x="-104" y="564" type="line"/>
      <point x="-2" y="616" type="line"/>
      <point x="2" y="616" type="line"/>
      <point x="104" y="564" type="line"/>
      <point x="158" y="624" type="line"/>
      <point x="68" y="706" type="line"/>
      <point x="-68" y="706" type="line"/>
      <point x="-158" y="624" type="line"/>
    </contour>
    <contour>
      <point x="-152" y="732" type="curve"/>
      <point x="-76" y="724" type="line"/>
      <point x="-70" y="750"/>
      <point x="-60" y="760"/>
      <point x="-46" y="760" type="curve" smooth="yes"/>
      <point x="-20" y="760"/>
      <point x="2" y="718"/>
      <point x="56" y="718" type="curve" smooth="yes"/>
      <point x="108" y="718"/>
      <point x="143" y="752"/>
      <point x="152" y="838" type="curve"/>
      <point x="76" y="846" type="line"/>
      <point x="70" y="820"/>
      <point x="60" y="810"/>
      <point x="46" y="810" type="curve" smooth="yes"/>
      <point x="20" y="810"/>
      <point x="-2" y="852"/>
      <point x="-56" y="852" type="curve" smooth="yes"/>
      <point x="-108" y="852"/>
      <point x="-143" y="818"/>
    </contour>
    <contour>
      <point x="0" y="522" type="move" name="_aboveLC"/>
    </contour>
  </outline>
</glyph>
<glyph name="clickalveolar" format="1">
  <advance width="346"/>
  <outline>
    <contour>
      <point x="6" y="330" type="line"/>
      <point x="338" y="330" type="line"/>
      <point x="338" y="410" type="line"/>
      <point x="82" y="410" type="line"/>
      <point x="6" y="404" type="line"/>
    </contour>
    <contour>
      <point x="6" y="124" type="line"/>
      <point x="338" y="124" type="line"/>
      <point x="338" y="204" type="line"/>
      <point x="82" y="204" type="line"/>
      <point x="6" y="198" type="line"/>
    </contour>
    <component base="bar" xOffset="36"/>
  </outline>
</glyph>
<glyph name="colonmonetary" format="1">
  <advance width="540"/>
  <outline>
    <contour>
      <point x="334" y="-12" type="curve" smooth="yes"/>
      <point x="410" y="-12"/>
      <point x="477" y="20"/>
      <point x="530" y="80" type="curve"/>
      <point x="436" y="168" type="line"/>
      <point x="411" y="138"/>
      <point x="382" y="120"/>
      <point x="344" y="120" type="curve" smooth="yes"/>
      <point x="268" y="120"/>
      <point x="224" y="190"/>
      <point x="224" y="318" type="curve" smooth="yes"/>
      <point x="224" y="442"/>
      <point x="266" y="514"/>
      <point x="348" y="514" type="curve" smooth="yes"/>
      <point x="384" y="514"/>
      <point x="411" y="494"/>
      <point x="438" y="466" type="curve"/>
      <point x="532" y="558" type="line"/>
      <point x="483" y="617"/>
      <point x="418" y="646"/>
      <point x="354" y="646" type="curve" smooth="yes"/>
      <point x="178" y="646"/>
      <point x="52" y="524"/>
      <point x="52" y="312" type="curve" smooth="yes"/>
      <point x="52" y="97"/>
      <point x="174" y="-12"/>
    </contour>
    <contour>
      <point x="202" y="-110" type="line"/>
      <point x="256" y="-110" type="line"/>
      <point x="358" y="744" type="line"/>
      <point x="304" y="744" type="line"/>
    </contour>
    <contour>
      <point x="290" y="-110" type="line"/>
      <point x="344" y="-110" type="line"/>
      <point x="446" y="744" type="line"/>
      <point x="392" y="744" type="line"/>
    </contour>
  </outline>
</glyph>
<glyph name="commaabovecmb" format="1">
  <advance width="0"/>
  <outline>
    <contour>
      <point x="0" y="522" type="move" name="_aboveLC"/>
    </contour>
    <contour>
      <point x="-36" y="540" type="line"/>
      <point x="36" y="566"/>
      <point x="70" y="615"/>
      <point x="70" y="674" type="curve" smooth="yes"/>
      <point x="70" y="731"/>
      <point x="46" y="762"/>
      <point x="-2" y="762" type="curve" smooth="yes"/>
      <point x="-34" y="762"/>
      <point x="-60" y="738"/>
      <point x="-60" y="700" type="curve" smooth="yes"/>
      <point x="-60" y="666"/>
      <point x="-34" y="644"/>
      <point x="-3" y="644" type="curve" smooth="yes"/>
      <point x="12" y="644"/>
      <point x="27" y="652"/>
      <point x="38" y="661" type="curve"/>
      <point x="4" y="709" type="line"/>
      <point x="6" y="656" type="line"/>
      <point x="6" y="624"/>
      <point x="-18" y="604"/>
      <point x="-60" y="590" type="curve"/>
    </contour>
  </outline>
</glyph>
<glyph name="commabelowcmb.alt" format="1">
  <advance width="0"/>
  <outline>
    <contour>
      <point x="0" y="522" type="move" name="_aboveLC"/>
    </contour>
    <contour>
      <point x="48" y="546" type="curve"/>
      <point x="80" y="606" type="line"/>
      <point x="36" y="610"/>
      <point x="20" y="622"/>
      <point x="20" y="638" type="curve" smooth="yes"/>
      <point x="20" y="660"/>
      <point x="44" y="670"/>
      <point x="120" y="674" type="curve"/>
      <point x="108" y="740" type="line"/>
      <point x="-24" y="736"/>
      <point x="-102" y="704"/>
      <point x="-102" y="632" type="curve" smooth="yes"/>
      <point x="-102" y="582"/>
      <point x="-66" y="554"/>
    </contour>
  </outline>
</glyph>
<glyph name="commabelowcmb" format="1">
  <advance width="0"/>
  <outline>
    <contour>
      <point x="0" y="-22" type="move" name="_belowLC"/>
    </contour>
    <contour>
      <point x="-108" y="-234" type="line"/>
      <point x="24" y="-230"/>
      <point x="102" y="-198"/>
      <point x="102" y="-126" type="curve" smooth="yes"/>
      <point x="102" y="-76"/>
      <point x="66" y="-48"/>
      <point x="-48" y="-40" type="curve"/>
      <point x="-80" y="-100" type="line"/>
      <point x="-36" y="-104"/>
      <point x="-20" y="-116"/>
      <point x="-20" y="-132" type="curve" smooth="yes"/>
      <point x="-20" y="-154"/>
      <point x="-44" y="-164"/>
      <point x="-120" y="-168" type="curve"/>
    </contour>
  </outline>
</glyph>
<glyph name="dblgravecmb.cap" format="1">
  <advance width="0"/>
  <outline>
    <contour>
      <point x="0" y="672" type="move" name="_aboveUC"/>
    </contour>
    <contour>
      <point x="-134" y="690" type="line"/>
      <point x="-50" y="730" type="line"/>
      <point x="-154" y="894" type="line"/>
      <point x="-262" y="834" type="line"/>
    </contour>
    <contour>
      <point x="64" y="690" type="line"/>
      <point x="148" y="730" type="line"/>
      <point x="44" y="894" type="line"/>
      <point x="-64" y="834" type="line"/>
    </contour>
  </outline>
</glyph>
<glyph name="dialytikatilde" format="1">
  <advance width="560"/>
  <outline>
    <contour>
      <point x="280" y="522" type="move" name="_aboveLC"/>
    </contour>
    <component base="dieresistilde" xOffset="280"/>
  </outline>
</glyph>
<glyph name="diamondblack" format="1">
  <advance width="360"/>
  <outline>
    <contour>
      <point x="180" y="88" type="line"/>
      <point x="354" y="262" type="line"/>
      <point x="180" y="436" type="line"/>
      <point x="6" y="262" type="line"/>
    </contour>
  </outline>
</glyph>
<glyph name="dieresisacute.cap" format="1">
  <outline>
    <contour>
      <point x="-114" y="694" type="curve" smooth="yes"/>
      <point x="-74" y="694"/>
      <point x="-46" y="724"/>
      <point x="-46" y="762" type="curve" smooth="yes"/>
      <point x="-46" y="800"/>
      <point x="-74" y="830"/>
      <point x="-114" y="830" type="curve" smooth="yes"/>
      <point x="-154" y="830"/>
      <point x="-182" y="800"/>
      <point x="-182" y="762" type="curve" smooth="yes"/>
      <point x="-182" y="724"/>
      <point x="-154" y="694"/>
    </contour>
    <contour>
      <point x="-62" y="870" type="line"/>
      <point x="12" y="826" type="line"/>
      <point x="140" y="960" type="line"/>
      <point x="34" y="1024" type="line"/>
    </contour>
    <contour>
      <point x="114" y="694" type="curve" smooth="yes"/>
      <point x="154" y="694"/>
      <point x="182" y="724"/>
      <point x="182" y="762" type="curve" smooth="yes"/>
      <point x="182" y="800"/>
      <point x="154" y="830"/>
      <point x="114" y="830" type="curve" smooth="yes"/>
      <point x="74" y="830"/>
      <point x="46" y="800"/>
      <point x="46" y="762" type="curve" smooth="yes"/>
      <point x="46" y="724"/>
      <point x="74" y="694"/>
    </contour>
    <contour>
      <point x="0" y="672" type="move" name="_aboveUC"/>
    </contour>
  </outline>
</glyph>
<glyph name="dieresisacute" format="1">
  <advance width="0"/>
  <outline>
    <contour>
      <point x="0" y="522" type="move" name="_aboveLC"/>
    </contour>
    <contour>
      <point x="-104" y="564" type="curve" smooth="yes"/>
      <point x="-64" y="564"/>
      <point x="-36" y="594"/>
      <point x="-36" y="632" type="curve" smooth="yes"/>
      <point x="-36" y="670"/>
      <point x="-64" y="700"/>
      <point x="-104" y="700" type="curve" smooth="yes"/>
      <point x="-144" y="700"/>
      <point x="-172" y="670"/>
      <point x="-172" y="632" type="curve" smooth="yes"/>
      <point x="-172" y="594"/>
      <point x="-144" y="564"/>
    </contour>
    <contour>
      <point x="-74" y="744" type="line"/>
      <point x="34" y="744" type="line"/>
      <point x="154" y="858" type="line"/>
      <point x="10" y="858" type="line"/>
    </contour>
    <contour>
      <point x="104" y="564" type="curve" smooth="yes"/>
      <point x="144" y="564"/>
      <point x="172" y="594"/>
      <point x="172" y="632" type="curve" smooth="yes"/>
      <point x="172" y="670"/>
      <point x="144" y="700"/>
      <point x="104" y="700" type="curve" smooth="yes"/>
      <point x="64" y="700"/>
      <point x="36" y="670"/>
      <point x="36" y="632" type="curve" smooth="yes"/>
      <point x="36" y="594"/>
      <point x="64" y="564"/>
    </contour>
  </outline>
</glyph>
<glyph name="dieresiscmb.cap" format="1">
  <advance width="0"/>
  <outline>
    <contour>
      <point x="0" y="672" type="move" name="_aboveUC"/>
    </contour>
    <contour>
      <point x="-104" y="694" type="curve" smooth="yes"/>
      <point x="-58" y="694"/>
      <point x="-26" y="728"/>
      <point x="-26" y="772" type="curve" smooth="yes"/>
      <point x="-26" y="816"/>
      <point x="-58" y="850"/>
      <point x="-104" y="850" type="curve" smooth="yes"/>
      <point x="-150" y="850"/>
      <point x="-182" y="816"/>
      <point x="-182" y="772" type="curve" smooth="yes"/>
      <point x="-182" y="728"/>
      <point x="-150" y="694"/>
    </contour>
    <contour>
      <point x="104" y="694" type="curve" smooth="yes"/>
      <point x="150" y="694"/>
      <point x="182" y="728"/>
      <point x="182" y="772" type="curve" smooth="yes"/>
      <point x="182" y="816"/>
      <point x="150" y="850"/>
      <point x="104" y="850" type="curve" smooth="yes"/>
      <point x="58" y="850"/>
      <point x="26" y="816"/>
      <point x="26" y="772" type="curve" smooth="yes"/>
      <point x="26" y="728"/>
      <point x="58" y="694"/>
    </contour>
  </outline>
</glyph>
<glyph name="dieresisgrave.cap" format="1">
  <advance width="0"/>
  <outline>
    <contour>
      <point x="0" y="672" type="move" name="_aboveUC"/>
    </contour>
    <contour>
      <point x="-104" y="694" type="curve"/>
      <point x="-64" y="694"/>
      <point x="-36" y="724"/>
      <point x="-36" y="762" type="curve" smooth="yes"/>
      <point x="-36" y="800"/>
      <point x="-64" y="830"/>
      <point x="-104" y="830" type="curve" smooth="yes"/>
      <point x="-144" y="830"/>
      <point x="-172" y="800"/>
      <point x="-172" y="762" type="curve" smooth="yes"/>
      <point x="-172" y="724"/>
      <point x="-144" y="694"/>
    </contour>
    <contour>
      <point x="-52" y="860" type="line"/>
      <point x="84" y="860" type="line"/>
      <point x="6" y="984" type="line"/>
      <point x="-172" y="984" type="line"/>
    </contour>
    <contour>
      <point x="104" y="694" type="curve"/>
      <point x="144" y="694"/>
      <point x="172" y="724"/>
      <point x="172" y="762" type="curve" smooth="yes"/>
      <point x="172" y="800"/>
      <point x="144" y="830"/>
      <point x="104" y="830" type="curve" smooth="yes"/>
      <point x="64" y="830"/>
      <point x="36" y="800"/>
      <point x="36" y="762" type="curve" smooth="yes"/>
      <point x="36" y="724"/>
      <point x="64" y="694"/>
    </contour>
  </outline>
</glyph>
<glyph name="dieresismacron.cap" format="1">
  <advance width="0"/>
  <outline>
    <contour>
      <point x="0" y="672" type="move" name="_aboveUC"/>
    </contour>
    <contour>
      <point x="-114" y="694" type="curve" smooth="yes"/>
      <point x="-74" y="694"/>
      <point x="-46" y="724"/>
      <point x="-46" y="762" type="curve" smooth="yes"/>
      <point x="-46" y="800"/>
      <point x="-74" y="830"/>
      <point x="-114" y="830" type="curve" smooth="yes"/>
      <point x="-154" y="830"/>
      <point x="-182" y="800"/>
      <point x="-182" y="762" type="curve" smooth="yes"/>
      <point x="-182" y="724"/>
      <point x="-154" y="694"/>
    </contour>
    <contour>
      <point x="-158" y="876" type="line"/>
      <point x="158" y="876" type="line"/>
      <point x="158" y="954" type="line"/>
      <point x="-158" y="954" type="line"/>
    </contour>
    <contour>
      <point x="114" y="694" type="curve" smooth="yes"/>
      <point x="154" y="694"/>
      <point x="182" y="724"/>
      <point x="182" y="762" type="curve" smooth="yes"/>
      <point x="182" y="800"/>
      <point x="154" y="830"/>
      <point x="114" y="830" type="curve" smooth="yes"/>
      <point x="74" y="830"/>
      <point x="46" y="800"/>
      <point x="46" y="762" type="curve" smooth="yes"/>
      <point x="46" y="724"/>
      <point x="74" y="694"/>
    </contour>
  </outline>
</glyph>
<glyph name="dieresistonoscmb" format="1">
  <advance width="0"/>
  <outline>
    <contour>
      <point x="0" y="522" type="move" name="_aboveLC"/>
    </contour>
    <contour>
      <point x="-56" y="584" type="line"/>
      <point x="18" y="568" type="line"/>
      <point x="94" y="788" type="line"/>
      <point x="-22" y="812" type="line"/>
    </contour>
    <contour>
      <point x="-140" y="580" type="curve" smooth="yes"/>
      <point x="-106" y="580"/>
      <point x="-78" y="604"/>
      <point x="-78" y="642" type="curve" smooth="yes"/>
      <point x="-78" y="680"/>
      <point x="-106" y="704"/>
      <point x="-140" y="704" type="curve" smooth="yes"/>
      <point x="-174" y="704"/>
      <point x="-202" y="680"/>
      <point x="-202" y="642" type="curve" smooth="yes"/>
      <point x="-202" y="604"/>
      <point x="-174" y="580"/>
    </contour>
    <contour>
      <point x="140" y="580" type="curve" smooth="yes"/>
      <point x="174" y="580"/>
      <point x="202" y="604"/>
      <point x="202" y="642" type="curve" smooth="yes"/>
      <point x="202" y="680"/>
      <point x="174" y="704"/>
      <point x="140" y="704" type="curve" smooth="yes"/>
      <point x="106" y="704"/>
      <point x="78" y="680"/>
      <point x="78" y="642" type="curve" smooth="yes"/>
      <point x="78" y="604"/>
      <point x="106" y="580"/>
    </contour>
  </outline>
</glyph>
<glyph name="dotbelowcmb" format="1">
  <advance width="0"/>
  <outline>
    <contour>
      <point x="0" y="-22" type="move" name="_belowLC"/>
    </contour>
    <component base="dotaccentcmb" yOffset="-796"/>
  </outline>
</glyph>
<glyph name="dotlessi" format="1">
  <advance width="288"/>
  <outline>
    <contour>
      <point x="190" y="0" type="move" name="ogonekLC"/>
    </contour>
    <contour>
      <point x="144" y="522" type="move" name="aboveLC"/>
    </contour>
    <contour>
      <point x="144" y="-22" type="move" name="belowLC"/>
    </contour>
    <contour>
      <point x="58" y="0" type="line"/>
      <point x="230" y="0" type="line"/>
      <point x="230" y="500" type="line"/>
      <point x="58" y="500" type="line"/>
    </contour>
  </outline>
</glyph>
<glyph name="dotlessjstroke" format="1">
  <advance width="340"/>
  <outline>
    <contour>
      <point x="14" y="220" type="line"/>
      <point x="322" y="220" type="line"/>
      <point x="322" y="300" type="line"/>
      <point x="90" y="300" type="line"/>
      <point x="14" y="294" type="line"/>
    </contour>
    <component base="dotlessj" xOffset="24"/>
    <contour>
      <point x="170" y="522" type="move" name="aboveLC"/>
    </contour>
  </outline>
</glyph>
<glyph name="eacute.sups" format="1">
  <advance width="350"/>
  <outline>
    <contour>
      <point x="124" y="640" type="line"/>
      <point x="210" y="640" type="line"/>
      <point x="296" y="742" type="line"/>
      <point x="182" y="742" type="line"/>
    </contour>
    <component base="e.sups"/>
  </outline>
</glyph>
<glyph name="egrave.sups" format="1">
  <advance width="350"/>
  <outline>
    <contour>
      <point x="156" y="640" type="line"/>
      <point x="242" y="640" type="line"/>
      <point x="184" y="742" type="line"/>
      <point x="70" y="742" type="line"/>
    </contour>
    <component base="e.sups"/>
  </outline>
</glyph>
<glyph name="egrave.sups" format="1">
  <advance width="350"/>
  <outline>
    <contour>
      <point x="170" y="742" type="line"/>
      <point x="230" y="800" type="line"/>
      <point x="120" y="930" type="line"/>
      <point x="40" y="852" type="line"/>
    </contour>
    <component base="e.sups"/>
  </outline>
</glyph>
<glyph name="f.sups" format="1">
  <advance width="244"/>
  <outline>
    <contour>
      <point x="58" y="260" type="line"/>
      <point x="178" y="260" type="line"/>
      <point x="178" y="596" type="line" smooth="yes"/>
      <point x="178" y="631"/>
      <point x="192" y="644"/>
      <point x="212" y="644" type="curve" smooth="yes"/>
      <point x="224" y="644"/>
      <point x="236" y="642"/>
      <point x="244" y="640" type="curve"/>
      <point x="266" y="724" type="line"/>
      <point x="250" y="730"/>
      <point x="224" y="736"/>
      <point x="194" y="736" type="curve" smooth="yes"/>
      <point x="92" y="736"/>
      <point x="58" y="666"/>
      <point x="58" y="592" type="curve" smooth="yes"/>
    </contour>
    <contour>
      <point x="14" y="500" type="line"/>
      <point x="233" y="500" type="line"/>
      <point x="233" y="592" type="line"/>
      <point x="65" y="592" type="line"/>
      <point x="14" y="588" type="line"/>
    </contour>
  </outline>
</glyph>
<glyph name="fisheye" format="1">
  <advance width="870"/>
  <outline>
    <contour>
      <point x="435" y="-75" type="curve" smooth="yes"/>
      <point x="666" y="-75"/>
      <point x="840" y="95"/>
      <point x="840" y="330" type="curve" smooth="yes"/>
      <point x="840" y="565"/>
      <point x="666" y="735"/>
      <point x="435" y="735" type="curve" smooth="yes"/>
      <point x="204" y="735"/>
      <point x="30" y="565"/>
      <point x="30" y="330" type="curve" smooth="yes"/>
      <point x="30" y="95"/>
      <point x="204" y="-75"/>
    </contour>
    <contour>
      <point x="435" y="25" type="curve" smooth="yes"/>
      <point x="265" y="25"/>
      <point x="140" y="153"/>
      <point x="140" y="330" type="curve" smooth="yes"/>
      <point x="140" y="507"/>
      <point x="265" y="635"/>
      <point x="435" y="635" type="curve" smooth="yes"/>
      <point x="605" y="635"/>
      <point x="730" y="507"/>
      <point x="730" y="330" type="curve" smooth="yes"/>
      <point x="730" y="153"/>
      <point x="605" y="25"/>
    </contour>
    <contour>
      <point x="435" y="110" type="curve" smooth="yes"/>
      <point x="555" y="110"/>
      <point x="645" y="206"/>
      <point x="645" y="330" type="curve" smooth="yes"/>
      <point x="645" y="453"/>
      <point x="555" y="550"/>
      <point x="435" y="550" type="curve" smooth="yes"/>
      <point x="315" y="550"/>
      <point x="225" y="453"/>
      <point x="225" y="330" type="curve" smooth="yes"/>
      <point x="225" y="207"/>
      <point x="315" y="110"/>
    </contour>
  </outline>
</glyph>
<glyph name="floorleft" format="1">
  <advance width="360"/>
  <outline>
    <contour>
      <point x="84" y="-58" type="line"/>
      <point x="308" y="-58" type="line"/>
      <point x="308" y="32" type="line"/>
      <point x="212" y="32" type="line"/>
      <point x="212" y="634" type="line"/>
      <point x="84" y="634" type="line"/>
    </contour>
  </outline>
</glyph>
<glyph name="g.alt" format="1">
	<advance width="592"/>
	<outline>
		<component base="gscript"/>
		<contour>
			<point name="aboveLC" x="306" y="522" type="move"/>
		</contour>
		<contour>
			<point name="belowLC" x="450" y="-218" type="move"/>
		</contour>
	</outline>
</glyph>
<glyph name="g.alt" format="1">
  <advance width="592"/>
  <outline>
    <contour>
      <point x="306" y="522" type="move" name="aboveLC"/>
    </contour>
    <contour>
      <point x="450" y="-218" type="move" name="belowLC"/>
    </contour>
    <component base="gscript"/>
  </outline>
</glyph>
<glyph name="ghestroke" format="1">
  <advance width="470"/>
  <outline>
    <contour>
      <point x="22" y="186" type="line"/>
      <point x="374" y="186" type="line"/>
      <point x="374" y="266" type="line"/>
      <point x="98" y="266" type="line"/>
      <point x="22" y="260" type="line"/>
    </contour>
    <component base="ghe" xOffset="30"/>
  </outline>
</glyph>
<glyph name="glottalstopreversedmod" format="1">
  <advance width="358"/>
  <outline>
    <contour>
      <point x="131" y="260" type="line"/>
      <point x="250" y="260" type="line"/>
      <point x="250" y="467" type="line"/>
      <point x="174" y="517"/>
      <point x="150" y="545"/>
      <point x="150" y="582" type="curve" smooth="yes"/>
      <point x="150" y="616"/>
      <point x="174" y="632"/>
      <point x="208" y="632" type="curve" smooth="yes"/>
      <point x="234" y="632"/>
      <point x="259" y="616"/>
      <point x="278" y="593" type="curve"/>
      <point x="336" y="667" type="line"/>
      <point x="304" y="702"/>
      <point x="258" y="727"/>
      <point x="194" y="727" type="curve" smooth="yes"/>
      <point x="107" y="727"/>
      <point x="31" y="681"/>
      <point x="31" y="587" type="curve" smooth="yes"/>
      <point x="31" y="516"/>
      <point x="72" y="473"/>
      <point x="131" y="425" type="curve"/>
    </contour>
  </outline>
</glyph>
<glyph name="gravecmb.cap" format="1">
	<outline>
		<contour>
			<point x="8" y="674" type="line"/>
			<point x="84" y="760" type="line"/>
			<point x="-98" y="904" type="line"/>
			<point x="-188" y="794" type="line"/>
		</contour>
		<contour>
			<point name="_aboveUC" x="0" y="672" type="move"/>
		</contour>
	</outline>
</glyph>
<glyph name="gravecmb" format="1">
  <advance width="0"/>
  <outline>
    <contour>
      <point x="0" y="522" type="move" name="_aboveLC"/>
    </contour>
    <contour>
      <point x="-70" y="574" type="line"/>
      <point x="78" y="574" type="line"/>
      <point x="0" y="748" type="line"/>
      <point x="-196" y="748" type="line"/>
    </contour>
  </outline>
</glyph>
<glyph name="gravecmb.cap" format="1">
  <advance width="0"/>
  <outline>
    <contour>
      <point x="0" y="672" type="move" name="_aboveUC"/>
    </contour>
    <contour>
      <point x="8" y="674" type="line"/>
      <point x="84" y="760" type="line"/>
      <point x="-98" y="904" type="line"/>
      <point x="-188" y="794" type="line"/>
    </contour>
  </outline>
</glyph>
<glyph name="hoicmb.cap" format="1">
  <advance width="0"/>
  <outline>
    <contour>
      <point x="0" y="672" type="move" name="_aboveUC"/>
    </contour>
    <contour>
      <point x="-38" y="688" type="line"/>
      <point x="44" y="692"/>
      <point x="112" y="724"/>
      <point x="112" y="796" type="curve" smooth="yes"/>
      <point x="112" y="850"/>
      <point x="70" y="888"/>
      <point x="-68" y="892" type="curve"/>
      <point x="-88" y="808" type="line"/>
      <point x="-30" y="804"/>
      <point x="-10" y="794"/>
      <point x="-10" y="778" type="curve" smooth="yes"/>
      <point x="-10" y="762"/>
      <point x="-28" y="757"/>
      <point x="-50" y="754" type="curve"/>
    </contour>
  </outline>
</glyph>
<glyph name="hungarumlautcmb.cap" format="1">
  <advance width="0"/>
  <outline>
    <contour>
      <point x="0" y="672" type="move" name="_aboveUC"/>
    </contour>
    <contour>
      <point x="-168" y="700" type="line"/>
      <point x="-44" y="700" type="line"/>
      <point x="64" y="834" type="line"/>
      <point x="-90" y="834" type="line"/>
    </contour>
    <contour>
      <point x="30" y="700" type="line"/>
      <point x="154" y="700" type="line"/>
      <point x="262" y="834" type="line"/>
      <point x="108" y="834" type="line"/>
    </contour>
  </outline>
</glyph>
<glyph name="hungarumlautcmb" format="1">
  <advance width="0"/>
  <outline>
    <contour>
      <point x="0" y="522" type="move" name="_aboveLC"/>
    </contour>
    <contour>
      <point x="-52" y="564" type="line"/>
      <point x="60" y="738" type="line"/>
      <point x="-54" y="788" type="line"/>
      <point x="-142" y="604" type="line"/>
    </contour>
    <contour>
      <point x="138" y="564" type="line"/>
      <point x="250" y="738" type="line"/>
      <point x="136" y="788" type="line"/>
      <point x="48" y="604" type="line"/>
    </contour>
  </outline>
</glyph>
<glyph name="i.sups" format="1">
  <advance width="196"/>
  <outline>
    <contour>
      <point x="98" y="630" type="curve" smooth="yes"/>
      <point x="136" y="630"/>
      <point x="164" y="654"/>
      <point x="164" y="688" type="curve" smooth="yes"/>
      <point x="164" y="722"/>
      <point x="136" y="746"/>
      <point x="98" y="746" type="curve" smooth="yes"/>
      <point x="59" y="746"/>
      <point x="32" y="722"/>
      <point x="32" y="688" type="curve" smooth="yes"/>
      <point x="32" y="654"/>
      <point x="59" y="630"/>
    </contour>
    <contour>
      <point x="38" y="260" type="line"/>
      <point x="158" y="260" type="line"/>
      <point x="158" y="592" type="line"/>
      <point x="38" y="592" type="line"/>
    </contour>
  </outline>
</glyph>
<glyph name="ie" format="1">
  <advance width="526"/>
  <outline>
    <contour>
      <point x="272" y="522" type="move" name="aboveLC"/>
    </contour>
    <component base="e"/>
  </outline>
</glyph>
<glyph name="interrobang" format="1">
  <advance width="498"/>
  <outline>
    <contour>
      <point x="222" y="244" type="curve"/>
      <point x="292" y="244" type="line"/>
      <point x="280" y="318"/>
      <point x="458" y="346"/>
      <point x="458" y="512" type="curve" smooth="yes"/>
      <point x="458" y="620"/>
      <point x="358" y="682"/>
      <point x="230" y="682" type="curve" smooth="yes"/>
      <point x="152" y="682"/>
      <point x="65" y="648"/>
      <point x="12" y="588" type="curve"/>
      <point x="106" y="502" type="line"/>
      <point x="141" y="536"/>
      <point x="172" y="554"/>
      <point x="218" y="554" type="curve" smooth="yes"/>
      <point x="263" y="554"/>
      <point x="304" y="530"/>
      <point x="304" y="480" type="curve" smooth="yes"/>
      <point x="304" y="380"/>
      <point x="211" y="369"/>
    </contour>
    <contour>
      <point x="172" y="244" type="line"/>
      <point x="272" y="244" type="line"/>
      <point x="270" y="382" type="line"/>
      <point x="274" y="500" type="line"/>
      <point x="138" y="500" type="line"/>
      <point x="152" y="382" type="line"/>
    </contour>
    <contour>
      <point x="226" y="-12" type="curve" smooth="yes"/>
      <point x="284" y="-12"/>
      <point x="326" y="34"/>
      <point x="326" y="92" type="curve" smooth="yes"/>
      <point x="326" y="150"/>
      <point x="284" y="196"/>
      <point x="226" y="196" type="curve" smooth="yes"/>
      <point x="168" y="196"/>
      <point x="126" y="150"/>
      <point x="126" y="92" type="curve" smooth="yes"/>
      <point x="126" y="34"/>
      <point x="168" y="-12"/>
    </contour>
  </outline>
</glyph>
<glyph name="iogonek" format="1">
  <advance width="288"/>
  <outline>
    <contour>
      <point x="154" y="-212" type="curve" smooth="yes"/>
      <point x="188" y="-212"/>
      <point x="236" y="-198"/>
      <point x="264" y="-176" type="curve"/>
      <point x="230" y="-100" type="line"/>
      <point x="219" y="-106"/>
      <point x="208" y="-112"/>
      <point x="197" y="-112" type="curve" smooth="yes"/>
      <point x="175" y="-112"/>
      <point x="156" y="-101"/>
      <point x="156" y="-78" type="curve" smooth="yes"/>
      <point x="156" y="-50"/>
      <point x="172" y="-16"/>
      <point x="230" y="0" type="curve"/>
      <point x="230" y="500" type="line"/>
      <point x="58" y="500" type="line"/>
      <point x="58" y="0" type="line"/>
      <point x="108" y="0" type="line"/>
      <point x="84" y="-17"/>
      <point x="42" y="-59"/>
      <point x="42" y="-118" type="curve" smooth="yes"/>
      <point x="42" y="-180"/>
      <point x="92" y="-212"/>
    </contour>
    <contour>
      <point x="144" y="562" type="curve" smooth="yes"/>
      <point x="200" y="562"/>
      <point x="240" y="598"/>
      <point x="240" y="648" type="curve" smooth="yes"/>
      <point x="240" y="698"/>
      <point x="200" y="734"/>
      <point x="144" y="734" type="curve" smooth="yes"/>
      <point x="88" y="734"/>
      <point x="48" y="698"/>
      <point x="48" y="648" type="curve" smooth="yes"/>
      <point x="48" y="598"/>
      <point x="88" y="562"/>
    </contour>
  </outline>
</glyph>
<glyph name="iotasubscript" format="1">
  <advance width="560"/>
  <outline>
    <contour>
      <point x="280" y="-22" type="move" name="_belowLC"/>
    </contour>
    <component base="iotasubscriptcmb" xOffset="280"/>
  </outline>
</glyph>
<glyph name="jcrossedtail" format="1">
  <advance width="390"/>
  <outline>
    <contour>
      <point x="328" y="-250" type="curve"/>
      <point x="460" y="-192" type="line"/>
      <point x="374" y="17"/>
      <point x="217" y="120"/>
      <point x="124" y="120" type="curve" smooth="yes"/>
      <point x="23" y="120"/>
      <point x="-38" y="62"/>
      <point x="-38" y="-26" type="curve" smooth="yes"/>
      <point x="-38" y="-118"/>
      <point x="24" y="-188"/>
      <point x="128" y="-188" type="curve" smooth="yes"/>
      <point x="264" y="-188"/>
      <point x="332" y="-86"/>
      <point x="332" y="26" type="curve" smooth="yes"/>
      <point x="332" y="500" type="line"/>
      <point x="160" y="500" type="line"/>
      <point x="160" y="0" type="line" smooth="yes"/>
      <point x="160" y="-40"/>
      <point x="146" y="-58"/>
      <point x="122" y="-58" type="curve" smooth="yes"/>
      <point x="98" y="-58"/>
      <point x="88" y="-40"/>
      <point x="88" y="-22" type="curve" smooth="yes"/>
      <point x="88" y="-4"/>
      <point x="102" y="8"/>
      <point x="122" y="8" type="curve" smooth="yes"/>
      <point x="170" y="8"/>
      <point x="268" y="-92"/>
    </contour>
    <contour>
      <point x="246" y="562" type="curve" smooth="yes"/>
      <point x="302" y="562"/>
      <point x="342" y="598"/>
      <point x="342" y="648" type="curve" smooth="yes"/>
      <point x="342" y="698"/>
      <point x="302" y="734"/>
      <point x="246" y="734" type="curve" smooth="yes"/>
      <point x="190" y="734"/>
      <point x="150" y="698"/>
      <point x="150" y="648" type="curve" smooth="yes"/>
      <point x="150" y="598"/>
      <point x="190" y="562"/>
    </contour>
  </outline>
</glyph>
<glyph name="k.sups" format="1">
  <advance width="384"/>
  <outline>
    <contour>
      <point x="38" y="260" type="line"/>
      <point x="158" y="260" type="line"/>
      <point x="158" y="340" type="line"/>
      <point x="186" y="374" type="line"/>
      <point x="252" y="260" type="line"/>
      <point x="380" y="260" type="line"/>
      <point x="252" y="450" type="line"/>
      <point x="374" y="592" type="line"/>
      <point x="246" y="592" type="line"/>
      <point x="162" y="478" type="line"/>
      <point x="158" y="478" type="line"/>
      <point x="158" y="720" type="line"/>
      <point x="38" y="720" type="line"/>
    </contour>
  </outline>
</glyph>
<glyph name="ka.a" format="1">
  <advance width="564"/>
  <outline>
    <contour>
      <point x="58" y="0" type="line"/>
      <point x="230" y="0" type="line"/>
      <point x="230" y="190" type="line"/>
      <point x="276" y="190" type="line"/>
      <point x="352" y="324" type="line"/>
      <point x="230" y="324" type="line"/>
      <point x="230" y="500" type="line"/>
      <point x="58" y="500" type="line"/>
    </contour>
    <contour>
      <point x="382" y="232" type="line"/>
      <point x="422" y="318" type="line" smooth="yes"/>
      <point x="434" y="344"/>
      <point x="452" y="350"/>
      <point x="466" y="350" type="curve" smooth="yes"/>
      <point x="483" y="350"/>
      <point x="490" y="348"/>
      <point x="496" y="346" type="curve"/>
      <point x="522" y="504" type="line"/>
      <point x="508" y="510"/>
      <point x="494" y="512"/>
      <point x="460" y="512" type="curve" smooth="yes"/>
      <point x="400" y="512"/>
      <point x="351" y="490"/>
      <point x="320" y="426" type="curve" smooth="yes"/>
      <point x="240" y="264" type="line"/>
    </contour>
    <contour>
      <point x="474" y="-12" type="curve" smooth="yes"/>
      <point x="506" y="-12"/>
      <point x="522" y="-10"/>
      <point x="536" y="-4" type="curve"/>
      <point x="510" y="154" type="line"/>
      <point x="504" y="152"/>
      <point x="499" y="150"/>
      <point x="484" y="150" type="curve" smooth="yes"/>
      <point x="468" y="150"/>
      <point x="454" y="156"/>
      <point x="442" y="176" type="curve" smooth="yes"/>
      <point x="384" y="278" type="line"/>
      <point x="240" y="246" type="line"/>
      <point x="322" y="92" type="line" smooth="yes"/>
      <point x="362" y="8"/>
      <point x="412" y="-12"/>
    </contour>
  </outline>
</glyph>
<glyph name="kabashkir" format="1">
  <advance width="672"/>
  <outline>
    <contour>
      <point x="26" y="366" type="line"/>
      <point x="166" y="366" type="line"/>
      <point x="338" y="500" type="line"/>
      <point x="26" y="500" type="line"/>
    </contour>
    <component base="ka" xOffset="108"/>
  </outline>
</glyph>
<glyph name="kabashkir.b" format="1">
  <advance width="672"/>
  <outline>
    <contour>
      <point x="26" y="366" type="line"/>
      <point x="166" y="366" type="line"/>
      <point x="338" y="500" type="line"/>
      <point x="26" y="500" type="line"/>
    </contour>
    <component base="ka.b" xOffset="108"/>
  </outline>
</glyph>
<glyph name="l.alt" format="1">
  <advance width="288"/>
  <outline>
    <contour>
      <point x="143" y="730" type="move" name="aboveLC"/>
    </contour>
    <contour>
      <point x="143" y="-22" type="move" name="belowLC"/>
    </contour>
    <contour>
      <point x="58" y="0" type="line"/>
      <point x="230" y="0" type="line"/>
      <point x="230" y="696" type="line"/>
      <point x="58" y="696" type="line"/>
    </contour>
  </outline>
</glyph>
<glyph name="l.supa" format="1">
  <advance width="196"/>
  <outline>
    <contour>
      <point x="38" y="260" type="line"/>
      <point x="158" y="260" type="line"/>
      <point x="158" y="720" type="line"/>
      <point x="38" y="720" type="line"/>
    </contour>
  </outline>
</glyph>
<glyph name="l.sups" format="1">
  <advance width="202"/>
  <outline>
    <contour>
      <point x="144" y="252" type="curve" smooth="yes"/>
      <point x="172" y="252"/>
      <point x="188" y="256"/>
      <point x="202" y="262" type="curve"/>
      <point x="188" y="348" type="line"/>
      <point x="182" y="346"/>
      <point x="180" y="346"/>
      <point x="176" y="346" type="curve" smooth="yes"/>
      <point x="166" y="346"/>
      <point x="158" y="354"/>
      <point x="158" y="376" type="curve" smooth="yes"/>
      <point x="158" y="720" type="line"/>
      <point x="38" y="720" type="line"/>
      <point x="38" y="380" type="line" smooth="yes"/>
      <point x="38" y="304"/>
      <point x="64" y="252"/>
    </contour>
  </outline>
</glyph>
<glyph name="leftangleabovecmb" format="1">
  <advance width="0"/>
  <outline>
    <contour>
      <point x="0" y="522" type="move" name="_aboverightLC"/>
    </contour>
    <contour>
      <point x="104" y="574" type="line"/>
      <point x="104" y="728" type="line"/>
      <point x="-92" y="728" type="line"/>
      <point x="-92" y="648" type="line"/>
      <point x="16" y="648" type="line"/>
      <point x="16" y="574" type="line"/>
    </contour>
  </outline>
</glyph>
<glyph name="lefttackbelowcmb" format="1">
  <advance width="0"/>
  <outline>
    <contour>
      <point x="0" y="-22" type="move" name="_belowLC"/>
    </contour>
    <contour>
      <point x="-92" y="-196" type="line"/>
      <point x="102" y="-196" type="line"/>
      <point x="102" y="-116" type="line"/>
      <point x="-92" y="-116" type="line"/>
    </contour>
    <contour>
      <point x="16" y="-260" type="line"/>
      <point x="104" y="-260" type="line"/>
      <point x="104" y="-52" type="line"/>
      <point x="16" y="-52" type="line"/>
    </contour>
  </outline>
</glyph>
<glyph name="lenis" format="1">
  <advance width="560"/>
  <outline>
    <contour>
      <point x="280" y="522" type="move" name="_aboveLC"/>
    </contour>
    <component base="leniscmb" xOffset="280"/>
  </outline>
</glyph>
<glyph name="lenisgrave.cap" format="1">
  <advance width="360"/>
  <outline>
    <contour>
      <point x="42" y="426" type="line"/>
      <point x="104" y="436"/>
      <point x="172" y="474"/>
      <point x="172" y="550" type="curve" smooth="yes"/>
      <point x="172" y="614"/>
      <point x="124" y="658"/>
      <point x="12" y="662" type="curve"/>
      <point x="-8" y="578" type="line"/>
      <point x="42" y="573"/>
      <point x="60" y="553"/>
      <point x="60" y="532" type="curve" smooth="yes"/>
      <point x="60" y="509"/>
      <point x="46" y="500"/>
      <point x="30" y="492" type="curve"/>
    </contour>
    <contour>
      <point x="262" y="430" type="line"/>
      <point x="374" y="430" type="line"/>
      <point x="344" y="660" type="line"/>
      <point x="194" y="660" type="line"/>
    </contour>
  </outline>
</glyph>
<glyph name="lenisgravecmb" format="1">
  <advance width="0"/>
  <outline>
    <contour>
      <point x="0" y="522" type="move" name="_aboveLC"/>
    </contour>
    <contour>
      <point x="-158" y="558" type="line"/>
      <point x="-97" y="566"/>
      <point x="-28" y="594"/>
      <point x="-28" y="666" type="curve" smooth="yes"/>
      <point x="-28" y="720"/>
      <point x="-76" y="758"/>
      <point x="-188" y="762" type="curve"/>
      <point x="-208" y="678" type="line"/>
      <point x="-158" y="674"/>
      <point x="-140" y="664"/>
      <point x="-140" y="648" type="curve" smooth="yes"/>
      <point x="-140" y="632"/>
      <point x="-154" y="627"/>
      <point x="-170" y="624" type="curve"/>
    </contour>
    <contour>
      <point x="66" y="564" type="line"/>
      <point x="164" y="564" type="line"/>
      <point x="134" y="754" type="line"/>
      <point x="-12" y="754" type="line"/>
    </contour>
  </outline>
</glyph>
<glyph name="lezh" format="1">
  <advance width="664"/>
  <outline>
    <contour>
      <point x="119" y="366" type="line"/>
      <point x="354" y="366" type="line"/>
      <point x="354" y="500" type="line"/>
      <point x="119" y="500" type="line"/>
    </contour>
    <component base="l.alt"/>
    <component base="ezh" xOffset="190"/>
  </outline>
</glyph>
<glyph name="lretroflex" format="1">
  <advance width="298"/>
  <outline>
    <contour>
      <point x="242" y="-188" type="curve" smooth="yes"/>
      <point x="283" y="-188"/>
      <point x="306" y="-182"/>
      <point x="326" y="-174" type="curve"/>
      <point x="296" y="-48" type="line"/>
      <point x="286" y="-52"/>
      <point x="279" y="-54"/>
      <point x="270" y="-54" type="curve" smooth="yes"/>
      <point x="241" y="-54"/>
      <point x="230" y="-37"/>
      <point x="230" y="10" type="curve"/>
      <point x="230" y="696" type="line"/>
      <point x="58" y="696" type="line"/>
      <point x="58" y="16" type="line" smooth="yes"/>
      <point x="58" y="-91"/>
      <point x="100" y="-188"/>
    </contour>
  </outline>
</glyph>
<glyph name="lslash.alt" format="1">
  <advance width="316"/>
  <outline>
    <contour>
      <point x="30" y="232" type="line"/>
      <point x="78" y="260" type="line"/>
      <point x="209" y="320" type="line"/>
      <point x="346" y="394" type="line"/>
      <point x="288" y="500" type="line"/>
      <point x="209" y="456" type="line"/>
      <point x="78" y="396" type="line"/>
      <point x="-28" y="338" type="line"/>
    </contour>
    <component base="l.alt" xOffset="12"/>
  </outline>
</glyph>
<glyph name="lslash" format="1">
  <advance width="318"/>
  <outline>
    <contour>
      <point x="30" y="232" type="line"/>
      <point x="78" y="260" type="line"/>
      <point x="209" y="320" type="line"/>
      <point x="346" y="394" type="line"/>
      <point x="288" y="500" type="line"/>
      <point x="209" y="456" type="line"/>
      <point x="78" y="396" type="line"/>
      <point x="-28" y="338" type="line"/>
    </contour>
    <component base="l" xOffset="12"/>
  </outline>
</glyph>
<glyph name="m.sups" format="1">
  <advance width="584"/>
  <outline>
    <contour>
      <point x="38" y="260" type="line"/>
      <point x="158" y="260" type="line"/>
      <point x="158" y="476" type="line"/>
      <point x="174" y="492"/>
      <point x="188" y="500"/>
      <point x="200" y="500" type="curve" smooth="yes"/>
      <point x="226" y="500"/>
      <point x="234" y="484"/>
      <point x="234" y="448" type="curve" smooth="yes"/>
      <point x="234" y="260" type="line"/>
      <point x="354" y="260" type="line"/>
      <point x="354" y="476" type="line"/>
      <point x="370" y="492"/>
      <point x="384" y="500"/>
      <point x="396" y="500" type="curve" smooth="yes"/>
      <point x="422" y="500"/>
      <point x="430" y="484"/>
      <point x="430" y="448" type="curve" smooth="yes"/>
      <point x="430" y="260" type="line"/>
      <point x="550" y="260" type="line"/>
      <point x="550" y="462" type="line" smooth="yes"/>
      <point x="550" y="546"/>
      <point x="516" y="600"/>
      <point x="442" y="600" type="curve" smooth="yes"/>
      <point x="396" y="600"/>
      <point x="366" y="574"/>
      <point x="339" y="546" type="curve"/>
      <point x="320" y="580"/>
      <point x="291" y="600"/>
      <point x="246" y="600" type="curve" smooth="yes"/>
      <point x="200" y="600"/>
      <point x="172" y="576"/>
      <point x="146" y="550" type="curve"/>
      <point x="144" y="550" type="line"/>
      <point x="135" y="592" type="line"/>
      <point x="38" y="592" type="line"/>
    </contour>
  </outline>
</glyph>
<glyph name="macronacute.cap" format="1">
  <advance width="0"/>
  <outline>
    <contour>
      <point x="0" y="672" type="move" name="_aboveUC"/>
    </contour>
    <contour>
      <point x="-36" y="836" type="line"/>
      <point x="144" y="928" type="line"/>
      <point x="76" y="1022" type="line"/>
      <point x="-92" y="914" type="line"/>
    </contour>
    <contour>
      <point x="-158" y="716" type="line"/>
      <point x="158" y="716" type="line"/>
      <point x="158" y="824" type="line"/>
      <point x="-158" y="824" type="line"/>
    </contour>
  </outline>
</glyph>
<glyph name="macronbelowcmb" format="1">
  <advance width="0"/>
  <outline>
    <contour>
      <point x="0" y="-22" type="move" name="_belowLC"/>
    </contour>
    <contour>
      <point x="-144" y="-196" type="line"/>
      <point x="144" y="-196" type="line"/>
      <point x="144" y="-88" type="line"/>
      <point x="-144" y="-88" type="line"/>
    </contour>
  </outline>
</glyph>
<glyph name="macroncmb.cap" format="1">
  <advance width="0"/>
  <outline>
    <contour>
      <point x="0" y="672" type="move" name="_aboveUC"/>
    </contour>
    <contour>
      <point x="-158" y="716" type="line"/>
      <point x="158" y="716" type="line"/>
      <point x="158" y="824" type="line"/>
      <point x="-158" y="824" type="line"/>
    </contour>
  </outline>
</glyph>
<glyph name="o.sups" format="1">
  <advance width="376"/>
  <outline>
    <contour>
      <point x="188" y="252" type="curve" smooth="yes"/>
      <point x="274" y="252"/>
      <point x="354" y="316"/>
      <point x="354" y="425" type="curve" smooth="yes"/>
      <point x="354" y="535"/>
      <point x="274" y="600"/>
      <point x="188" y="600" type="curve" smooth="yes"/>
      <point x="102" y="600"/>
      <point x="22" y="535"/>
      <point x="22" y="425" type="curve" smooth="yes"/>
      <point x="22" y="316"/>
      <point x="102" y="252"/>
    </contour>
    <contour>
      <point x="188" y="346" type="curve" smooth="yes"/>
      <point x="155" y="346"/>
      <point x="144" y="377"/>
      <point x="144" y="425" type="curve" smooth="yes"/>
      <point x="144" y="474"/>
      <point x="155" y="506"/>
      <point x="188" y="506" type="curve" smooth="yes"/>
      <point x="221" y="506"/>
      <point x="232" y="474"/>
      <point x="232" y="425" type="curve" smooth="yes"/>
      <point x="232" y="377"/>
      <point x="221" y="346"/>
    </contour>
  </outline>
</glyph>
<glyph name="o.sups" format="1">
  <advance width="376"/>
  <outline>
    <contour>
      <point x="188" y="360" type="curve" smooth="yes"/>
      <point x="274" y="360"/>
      <point x="354" y="424"/>
      <point x="354" y="533" type="curve" smooth="yes"/>
      <point x="354" y="643"/>
      <point x="274" y="708"/>
      <point x="188" y="708" type="curve" smooth="yes"/>
      <point x="102" y="708"/>
      <point x="22" y="643"/>
      <point x="22" y="533" type="curve" smooth="yes"/>
      <point x="22" y="424"/>
      <point x="102" y="360"/>
    </contour>
    <contour>
      <point x="188" y="454" type="curve" smooth="yes"/>
      <point x="155" y="454"/>
      <point x="144" y="485"/>
      <point x="144" y="533" type="curve" smooth="yes"/>
      <point x="144" y="582"/>
      <point x="155" y="614"/>
      <point x="188" y="614" type="curve" smooth="yes"/>
      <point x="221" y="614"/>
      <point x="232" y="582"/>
      <point x="232" y="533" type="curve" smooth="yes"/>
      <point x="232" y="485"/>
      <point x="221" y="454"/>
    </contour>
  </outline>
</glyph>
<glyph name="obarcyr" format="1">
  <advance width="560"/>
  <outline>
    <contour>
      <point x="280" y="522" type="move" name="aboveLC"/>
    </contour>
    <component base="obar"/>
  </outline>
</glyph>
<glyph name="ogonek" format="1">
  <advance width="560"/>
  <outline>
    <contour>
      <point x="280" y="0" type="move" name="_ogonekLC"/>
    </contour>
    <component base="ogonekcmb" xOffset="280"/>
  </outline>
</glyph>
<glyph name="ogonekcmb.cap" format="1">
	<outline>
		<contour>
			<point x="24" y="-228" type="curve" smooth="yes"/>
			<point x="62" y="-228"/>
			<point x="110" y="-212"/>
			<point x="138" y="-190" type="curve"/>
			<point x="100" y="-104" type="line"/>
			<point x="91" y="-110"/>
			<point x="78" y="-118"/>
			<point x="66" y="-118" type="curve" smooth="yes"/>
			<point x="46" y="-118"/>
			<point x="26" y="-108"/>
			<point x="26" y="-84" type="curve" smooth="yes"/>
			<point x="26" y="-56"/>
			<point x="46" y="-26"/>
			<point x="80" y="2" type="curve"/>
			<point x="-22" y="2" type="line"/>
			<point x="-47" y="-15"/>
			<point x="-98" y="-65"/>
			<point x="-98" y="-130" type="curve" smooth="yes"/>
			<point x="-98" y="-192"/>
			<point x="-44" y="-228"/>
		</contour>
		<contour>
			<point name="_ogonekUC" x="0" y="0" type="move"/>
		</contour>
	</outline>
</glyph>
<glyph name="ohorn" format="1">
  <advance width="560"/>
  <outline>
    <contour>
      <point x="280" y="522" type="move" name="aboveLC"/>
    </contour>
    <contour>
      <point x="280" y="-22" type="move" name="belowLC"/>
    </contour>
    <contour>
      <point x="452" y="438" type="line"/>
      <point x="524" y="460"/>
      <point x="576" y="511"/>
      <point x="576" y="592" type="curve" smooth="yes"/>
      <point x="576" y="632"/>
      <point x="560" y="672"/>
      <point x="544" y="692" type="curve"/>
      <point x="418" y="638" type="line"/>
      <point x="426" y="625"/>
      <point x="434" y="604"/>
      <point x="434" y="580" type="curve" smooth="yes"/>
      <point x="434" y="525"/>
      <point x="408" y="502"/>
      <point x="374" y="492" type="curve"/>
    </contour>
    <component base="o" xOffset="-4"/>
  </outline>
</glyph>
<glyph name="one.dnom" format="1">
  <advance width="380"/>
  <outline>
    <contour>
      <point x="162" y="0" type="line"/>
      <point x="288" y="0" type="line"/>
      <point x="288" y="390" type="line"/>
      <point x="190" y="390" type="line"/>
      <point x="154" y="366"/>
      <point x="130" y="354"/>
      <point x="72" y="346" type="curve"/>
      <point x="72" y="270" type="line"/>
      <point x="162" y="270" type="line"/>
    </contour>
  </outline>
</glyph>
<glyph name="oogonek" format="1">
  <advance width="560"/>
  <outline>
    <contour>
      <point x="280" y="522" type="move" name="aboveLC"/>
    </contour>
    <contour>
      <point x="298" y="-212" type="curve" smooth="yes"/>
      <point x="332" y="-212"/>
      <point x="380" y="-198"/>
      <point x="408" y="-176" type="curve"/>
      <point x="374" y="-100" type="line"/>
      <point x="365" y="-106"/>
      <point x="352" y="-112"/>
      <point x="340" y="-112" type="curve" smooth="yes"/>
      <point x="320" y="-112"/>
      <point x="300" y="-102"/>
      <point x="300" y="-78" type="curve" smooth="yes"/>
      <point x="300" y="-52"/>
      <point x="315" y="-21"/>
      <point x="364" y="2" type="curve" smooth="yes"/>
      <point x="462" y="48"/>
      <point x="528" y="120"/>
      <point x="528" y="250" type="curve" smooth="yes"/>
      <point x="528" y="416"/>
      <point x="408" y="512"/>
      <point x="280" y="512" type="curve" smooth="yes"/>
      <point x="152" y="512"/>
      <point x="32" y="416"/>
      <point x="32" y="250" type="curve" smooth="yes"/>
      <point x="32" y="101"/>
      <point x="129" y="8"/>
      <point x="241" y="-9" type="curve"/>
      <point x="217" y="-30"/>
      <point x="186" y="-68"/>
      <point x="186" y="-118" type="curve" smooth="yes"/>
      <point x="186" y="-180"/>
      <point x="236" y="-212"/>
    </contour>
    <contour>
      <point x="280" y="126" type="curve" smooth="yes"/>
      <point x="228" y="126"/>
      <point x="208" y="174"/>
      <point x="208" y="250" type="curve" smooth="yes"/>
      <point x="208" y="326"/>
      <point x="228" y="374"/>
      <point x="280" y="374" type="curve" smooth="yes"/>
      <point x="332" y="374"/>
      <point x="352" y="326"/>
      <point x="352" y="250" type="curve" smooth="yes"/>
      <point x="352" y="174"/>
      <point x="332" y="126"/>
    </contour>
  </outline>
</glyph>
<glyph name="overline" format="1">
  <advance width="500"/>
  <outline>
    <contour>
      <point x="12" y="564" type="line"/>
      <point x="488" y="564" type="line"/>
      <point x="488" y="658" type="line"/>
      <point x="12" y="658" type="line"/>
    </contour>
  </outline>
</glyph>
<glyph name="overlinecmb" format="1">
  <advance width="0"/>
  <outline>
    <contour>
      <point x="0" y="522" type="move" name="_aboveLC"/>
    </contour>
    <contour>
      <point x="-154" y="588" type="line"/>
      <point x="154" y="588" type="line"/>
      <point x="154" y="696" type="line"/>
      <point x="-154" y="696" type="line"/>
    </contour>
  </outline>
</glyph>
<glyph name="perispomenicmb.cap" format="1">
  <advance width="0"/>
  <outline>
    <contour>
      <point x="0" y="672" type="move" name="_aboveUC"/>
    </contour>
    <component base="tildecmb.cap"/>
  </outline>
</glyph>
<glyph name="plusbelowcmb" format="1">
  <advance width="0"/>
  <outline>
    <contour>
      <point x="0" y="-22" type="move" name="_belowLC"/>
    </contour>
    <contour>
      <point x="-112" y="-196" type="line"/>
      <point x="112" y="-196" type="line"/>
      <point x="112" y="-116" type="line"/>
      <point x="-112" y="-116" type="line"/>
    </contour>
    <contour>
      <point x="-44" y="-260" type="line"/>
      <point x="44" y="-260" type="line"/>
      <point x="44" y="-52" type="line"/>
      <point x="-44" y="-52" type="line"/>
    </contour>
  </outline>
</glyph>
<glyph name="primereversed" format="1">
  <advance width="320"/>
  <outline>
    <contour>
      <point x="126" y="364" type="line"/>
      <point x="74" y="544" type="line"/>
      <point x="48" y="684" type="line"/>
      <point x="220" y="684" type="line"/>
      <point x="238" y="364" type="line"/>
    </contour>
  </outline>
</glyph>
<glyph name="questiondown.sc" format="1">
  <advance width="478"/>
  <outline>
    <contour>
      <point x="238" y="-64" type="curve" smooth="yes"/>
      <point x="314" y="-64"/>
      <point x="376" y="-36"/>
      <point x="426" y="6" type="curve"/>
      <point x="352" y="102" type="line"/>
      <point x="318" y="76"/>
      <point x="294" y="64"/>
      <point x="260" y="64" type="curve" smooth="yes"/>
      <point x="235" y="64"/>
      <point x="214" y="74"/>
      <point x="214" y="96" type="curve" smooth="yes"/>
      <point x="214" y="142"/>
      <point x="344" y="182"/>
      <point x="326" y="256" type="curve"/>
      <point x="176" y="256" type="line"/>
      <point x="185" y="192"/>
      <point x="50" y="176"/>
      <point x="50" y="72" type="curve" smooth="yes"/>
      <point x="50" y="-26"/>
      <point x="134" y="-64"/>
    </contour>
    <contour>
      <point x="252" y="304" type="curve" smooth="yes"/>
      <point x="310" y="304"/>
      <point x="352" y="350"/>
      <point x="352" y="408" type="curve" smooth="yes"/>
      <point x="352" y="466"/>
      <point x="310" y="512"/>
      <point x="252" y="512" type="curve" smooth="yes"/>
      <point x="194" y="512"/>
      <point x="152" y="466"/>
      <point x="152" y="408" type="curve" smooth="yes"/>
      <point x="152" y="350"/>
      <point x="194" y="304"/>
    </contour>
  </outline>
</glyph>
<glyph name="ringcmb" format="1">
  <advance width="0"/>
  <outline>
    <contour>
      <point x="0" y="522" type="move" name="_aboveLC"/>
    </contour>
    <contour>
      <point x="0" y="568" type="curve" smooth="yes"/>
      <point x="94" y="568"/>
      <point x="140" y="616"/>
      <point x="140" y="674" type="curve" smooth="yes"/>
      <point x="140" y="732"/>
      <point x="94" y="780"/>
      <point x="0" y="780" type="curve" smooth="yes"/>
      <point x="-94" y="780"/>
      <point x="-140" y="732"/>
      <point x="-140" y="674" type="curve" smooth="yes"/>
      <point x="-140" y="616"/>
      <point x="-94" y="568"/>
    </contour>
    <contour>
      <point x="0" y="630" type="curve" smooth="yes"/>
      <point x="-21" y="630"/>
      <point x="-38" y="648"/>
      <point x="-38" y="674" type="curve" smooth="yes"/>
      <point x="-38" y="700"/>
      <point x="-21" y="718"/>
      <point x="0" y="718" type="curve" smooth="yes"/>
      <point x="21" y="718"/>
      <point x="38" y="700"/>
      <point x="38" y="674" type="curve" smooth="yes"/>
      <point x="38" y="648"/>
      <point x="21" y="630"/>
    </contour>
  </outline>
</glyph>
<glyph name="ringhalfleftbelowcmb" format="1">
  <advance width="0"/>
  <outline>
    <contour>
      <point x="0" y="-22" type="move" name="_belowLC"/>
    </contour>
    <contour>
      <point x="66" y="-262" type="curve"/>
      <point x="66" y="-200" type="line"/>
      <point x="18" y="-202"/>
      <point x="2" y="-182"/>
      <point x="2" y="-156" type="curve" smooth="yes"/>
      <point x="2" y="-130"/>
      <point x="18" y="-110"/>
      <point x="66" y="-112" type="curve"/>
      <point x="66" y="-50" type="line"/>
      <point x="-38" y="-46"/>
      <point x="-80" y="-92"/>
      <point x="-80" y="-156" type="curve" smooth="yes"/>
      <point x="-80" y="-220"/>
      <point x="-38" y="-266"/>
    </contour>
  </outline>
</glyph>
<glyph name="ringhalfleftmod" format="1">
  <advance width="180"/>
  <outline>
    <contour>
      <point x="156" y="550" type="curve"/>
      <point x="156" y="612" type="line"/>
      <point x="108" y="610"/>
      <point x="92" y="630"/>
      <point x="92" y="656" type="curve" smooth="yes"/>
      <point x="92" y="682"/>
      <point x="108" y="702"/>
      <point x="156" y="700" type="curve"/>
      <point x="156" y="762" type="line"/>
      <point x="52" y="766"/>
      <point x="10" y="720"/>
      <point x="10" y="656" type="curve" smooth="yes"/>
      <point x="10" y="592"/>
      <point x="52" y="546"/>
    </contour>
  </outline>
</glyph>
<glyph name="ruble" format="1">
  <advance width="540"/>
  <outline>
    <contour>
      <point x="58" y="0" type="line"/>
      <point x="220" y="0" type="line"/>
      <point x="220" y="262" type="line"/>
      <point x="246" y="262" type="line" smooth="yes"/>
      <point x="366" y="262"/>
      <point x="480" y="314"/>
      <point x="480" y="446" type="curve" smooth="yes"/>
      <point x="480" y="577"/>
      <point x="372" y="634"/>
      <point x="246" y="634" type="curve" smooth="yes"/>
      <point x="58" y="634" type="line"/>
    </contour>
    <contour>
      <point x="220" y="346" type="line"/>
      <point x="220" y="528" type="line"/>
      <point x="242" y="528" type="line" smooth="yes"/>
      <point x="290" y="528"/>
      <point x="322" y="500"/>
      <point x="322" y="436" type="curve" smooth="yes"/>
      <point x="322" y="384"/>
      <point x="290" y="346"/>
      <point x="242" y="346" type="curve" smooth="yes"/>
    </contour>
    <contour>
      <point x="0" y="134" type="line"/>
      <point x="412" y="134" type="line"/>
      <point x="412" y="218" type="line"/>
      <point x="76" y="218" type="line"/>
      <point x="0" y="212" type="line"/>
    </contour>
    <contour>
      <point x="0" y="262" type="line"/>
      <point x="132" y="262" type="line"/>
      <point x="132" y="346" type="line"/>
      <point x="76" y="346" type="line"/>
      <point x="0" y="340" type="line"/>
    </contour>
  </outline>
</glyph>
<glyph name="s.sups" format="1">
  <advance width="302"/>
  <outline>
    <contour>
      <point x="143" y="252" type="curve" smooth="yes"/>
      <point x="238" y="252"/>
      <point x="288" y="300"/>
      <point x="288" y="363" type="curve" smooth="yes"/>
      <point x="288" y="422"/>
      <point x="242" y="448"/>
      <point x="204" y="462" type="curve" smooth="yes"/>
      <point x="172" y="474"/>
      <point x="140" y="480"/>
      <point x="140" y="496" type="curve" smooth="yes"/>
      <point x="140" y="508"/>
      <point x="150" y="514"/>
      <point x="168" y="514" type="curve" smooth="yes"/>
      <point x="188" y="514"/>
      <point x="212" y="502"/>
      <point x="236" y="486" type="curve"/>
      <point x="288" y="556" type="line"/>
      <point x="258" y="578"/>
      <point x="220" y="600"/>
      <point x="164" y="600" type="curve" smooth="yes"/>
      <point x="84" y="600"/>
      <point x="30" y="556"/>
      <point x="30" y="491" type="curve" smooth="yes"/>
      <point x="30" y="436"/>
      <point x="74" y="408"/>
      <point x="114" y="392" type="curve" smooth="yes"/>
      <point x="148" y="378"/>
      <point x="178" y="372"/>
      <point x="178" y="356" type="curve" smooth="yes"/>
      <point x="178" y="344"/>
      <point x="168" y="338"/>
      <point x="146" y="338" type="curve" smooth="yes"/>
      <point x="124" y="338"/>
      <point x="96" y="348"/>
      <point x="64" y="370" type="curve"/>
      <point x="14" y="296" type="line"/>
      <point x="49" y="270"/>
      <point x="100" y="252"/>
    </contour>
  </outline>
</glyph>
<glyph name="squareblack" format="1">
  <advance width="360"/>
  <outline>
    <contour>
      <point x="54" y="134" type="line"/>
      <point x="306" y="134" type="line"/>
      <point x="306" y="390" type="line"/>
      <point x="54" y="390" type="line"/>
    </contour>
  </outline>
</glyph>
<glyph name="squareshadow" format="1">
  <advance width="870"/>
  <outline>
    <contour>
      <point x="45" y="-60" type="line"/>
      <point x="745" y="-60" type="line"/>
      <point x="825" y="30" type="line"/>
      <point x="825" y="720" type="line"/>
      <point x="135" y="720" type="line"/>
      <point x="45" y="640" type="line"/>
    </contour>
    <contour>
      <point x="119" y="14" type="line"/>
      <point x="119" y="616" type="line"/>
      <point x="721" y="616" type="line"/>
      <point x="721" y="14" type="line"/>
    </contour>
  </outline>
</glyph>
<glyph name="t.sups" format="1">
  <advance width="270"/>
  <outline>
    <contour>
      <point x="178" y="252" type="curve" smooth="yes"/>
      <point x="216" y="252"/>
      <point x="240" y="258"/>
      <point x="260" y="264" type="curve"/>
      <point x="240" y="348" type="line"/>
      <point x="230" y="344"/>
      <point x="222" y="344"/>
      <point x="212" y="344" type="curve" smooth="yes"/>
      <point x="192" y="344"/>
      <point x="174" y="356"/>
      <point x="174" y="392" type="curve" smooth="yes"/>
      <point x="174" y="500" type="line"/>
      <point x="248" y="500" type="line"/>
      <point x="248" y="592" type="line"/>
      <point x="174" y="592" type="line"/>
      <point x="174" y="676" type="line"/>
      <point x="74" y="676" type="line"/>
      <point x="60" y="592" type="line"/>
      <point x="10" y="588" type="line"/>
      <point x="10" y="500" type="line"/>
      <point x="54" y="500" type="line"/>
      <point x="54" y="390" type="line" smooth="yes"/>
      <point x="54" y="308"/>
      <point x="90" y="252"/>
    </contour>
  </outline>
</glyph>
<glyph name="three.dnom" format="1">
  <advance width="380"/>
  <outline>
    <contour>
      <point x="188" y="-12" type="curve" smooth="yes"/>
      <point x="270" y="-12"/>
      <point x="344" y="38"/>
      <point x="344" y="110" type="curve" smooth="yes"/>
      <point x="344" y="154"/>
      <point x="316" y="186"/>
      <point x="278" y="204" type="curve"/>
      <point x="312" y="226"/>
      <point x="330" y="252"/>
      <point x="330" y="292" type="curve" smooth="yes"/>
      <point x="330" y="360"/>
      <point x="264" y="402"/>
      <point x="190" y="402" type="curve" smooth="yes"/>
      <point x="126" y="402"/>
      <point x="86" y="382"/>
      <point x="40" y="334" type="curve"/>
      <point x="110" y="272" type="line"/>
      <point x="126" y="292"/>
      <point x="144" y="308"/>
      <point x="168" y="308" type="curve" smooth="yes"/>
      <point x="192" y="308"/>
      <point x="208" y="296"/>
      <point x="208" y="274" type="curve" smooth="yes"/>
      <point x="208" y="244"/>
      <point x="181" y="234"/>
      <point x="140" y="234" type="curve"/>
      <point x="140" y="164" type="line"/>
      <point x="197" y="164"/>
      <point x="222" y="150"/>
      <point x="222" y="120" type="curve" smooth="yes"/>
      <point x="222" y="96"/>
      <point x="201" y="82"/>
      <point x="174" y="82" type="curve" smooth="yes"/>
      <point x="144" y="82"/>
      <point x="122" y="94"/>
      <point x="98" y="126" type="curve"/>
      <point x="24" y="68" type="line"/>
      <point x="60" y="14"/>
      <point x="118" y="-12"/>
    </contour>
  </outline>
</glyph>
<glyph name="tilde" format="1">
  <advance width="560"/>
  <outline>
    <contour>
      <point x="280" y="522" type="move" name="_aboveLC"/>
    </contour>
    <component base="tildecmb" xOffset="280"/>
  </outline>
</glyph>
<glyph name="tildecmb.cap" format="1">
  <advance width="0"/>
  <outline>
    <contour>
      <point x="0" y="672" type="move" name="_aboveUC"/>
    </contour>
    <contour>
      <point x="70" y="694" type="curve"/>
      <point x="139" y="694"/>
      <point x="196" y="734"/>
      <point x="206" y="842" type="curve"/>
      <point x="96" y="842" type="line" smooth="yes"/>
      <point x="90" y="809"/>
      <point x="80" y="804"/>
      <point x="64" y="804" type="curve" smooth="yes"/>
      <point x="36" y="804"/>
      <point x="0" y="848"/>
      <point x="-70" y="848" type="curve"/>
      <point x="-139" y="848"/>
      <point x="-196" y="808"/>
      <point x="-206" y="700" type="curve"/>
      <point x="-96" y="700" type="line" smooth="yes"/>
      <point x="-90" y="732"/>
      <point x="-80" y="738"/>
      <point x="-64" y="738" type="curve" smooth="yes"/>
      <point x="-36" y="738"/>
      <point x="0" y="694"/>
    </contour>
  </outline>
</glyph>
<glyph name="tildecmb" format="1">
  <advance width="0"/>
  <outline>
    <contour>
      <point x="0" y="522" type="move" name="_aboveLC"/>
    </contour>
    <contour>
      <point x="64" y="568" type="curve" smooth="yes"/>
      <point x="133" y="568"/>
      <point x="186" y="613"/>
      <point x="196" y="735" type="curve"/>
      <point x="90" y="735" type="line"/>
      <point x="84" y="695"/>
      <point x="74" y="691"/>
      <point x="58" y="691" type="curve" smooth="yes"/>
      <point x="34" y="691"/>
      <point x="-4" y="741"/>
      <point x="-64" y="741" type="curve" smooth="yes"/>
      <point x="-133" y="741"/>
      <point x="-186" y="696"/>
      <point x="-196" y="574" type="curve"/>
      <point x="-90" y="574" type="line"/>
      <point x="-84" y="614"/>
      <point x="-74" y="618"/>
      <point x="-58" y="618" type="curve" smooth="yes"/>
      <point x="-34" y="618"/>
      <point x="4" y="568"/>
    </contour>
  </outline>
</glyph>
<glyph name="tonos.cap" format="1">
  <advance width="140"/>
  <outline>
    <contour>
      <point x="-10" y="450" type="line"/>
      <point x="98" y="430" type="line"/>
      <point x="162" y="650" type="line"/>
      <point x="18" y="670" type="line"/>
    </contour>
  </outline>
</glyph>
<glyph name="tretroflex" format="1">
  <advance width="400"/>
  <outline>
    <contour>
      <point x="176" y="664" type="move" name="aboveLC"/>
    </contour>
    <contour>
      <point x="264" y="-168" type="curve" smooth="yes"/>
      <point x="319" y="-168"/>
      <point x="356" y="-158"/>
      <point x="382" y="-150" type="curve"/>
      <point x="356" y="-26" type="line"/>
      <point x="344" y="-30"/>
      <point x="328" y="-34"/>
      <point x="312" y="-34" type="curve" smooth="yes"/>
      <point x="280" y="-34"/>
      <point x="252" y="-16"/>
      <point x="252" y="39" type="curve" smooth="yes"/>
      <point x="252" y="366" type="line"/>
      <point x="366" y="366" type="line"/>
      <point x="366" y="500" type="line"/>
      <point x="252" y="500" type="line"/>
      <point x="252" y="630" type="line"/>
      <point x="110" y="630" type="line"/>
      <point x="90" y="500" type="line"/>
      <point x="14" y="494" type="line"/>
      <point x="14" y="366" type="line"/>
      <point x="80" y="366" type="line"/>
      <point x="80" y="36" type="line" smooth="yes"/>
      <point x="80" y="-86"/>
      <point x="134" y="-168"/>
    </contour>
  </outline>
</glyph>
<glyph name="triangleblackleft" format="1">
  <advance width="870"/>
  <outline>
    <contour>
      <point x="825" y="720" type="line"/>
      <point x="823" y="720" type="line"/>
      <point x="25" y="332" type="line"/>
      <point x="25" y="328" type="line"/>
      <point x="823" y="-60" type="line"/>
      <point x="825" y="-60" type="line"/>
    </contour>
  </outline>
</glyph>
<glyph name="triangleblackright" format="1">
  <advance width="870"/>
  <outline>
    <contour>
      <point x="45" y="-60" type="line"/>
      <point x="47" y="-60" type="line"/>
      <point x="845" y="328" type="line"/>
      <point x="845" y="332" type="line"/>
      <point x="47" y="720" type="line"/>
      <point x="45" y="720" type="line"/>
    </contour>
  </outline>
</glyph>
<glyph name="trianglewhitedown" format="1">
  <advance width="870"/>
  <outline>
    <contour>
      <point x="825" y="720" type="line"/>
      <point x="45" y="720" type="line"/>
      <point x="45" y="718" type="line"/>
      <point x="433" y="-80" type="line"/>
      <point x="437" y="-80" type="line"/>
      <point x="825" y="718" type="line"/>
    </contour>
    <contour>
      <point x="640" y="610" type="line"/>
      <point x="435" y="165" type="line"/>
      <point x="230" y="610" type="line"/>
    </contour>
  </outline>
</glyph>
<glyph name="trianglewhiteleft" format="1">
  <advance width="870"/>
  <outline>
    <contour>
      <point x="825" y="720" type="line"/>
      <point x="823" y="720" type="line"/>
      <point x="25" y="332" type="line"/>
      <point x="25" y="328" type="line"/>
      <point x="823" y="-60" type="line"/>
      <point x="825" y="-60" type="line"/>
    </contour>
    <contour>
      <point x="715" y="535" type="line"/>
      <point x="715" y="125" type="line"/>
      <point x="265" y="330" type="line"/>
    </contour>
  </outline>
</glyph>
<glyph name="trianglewhiteup" format="1">
  <advance width="870"/>
  <outline>
    <contour>
      <point x="45" y="-60" type="line"/>
      <point x="825" y="-60" type="line"/>
      <point x="825" y="-58" type="line"/>
      <point x="437" y="740" type="line"/>
      <point x="433" y="740" type="line"/>
      <point x="45" y="-58" type="line"/>
    </contour>
    <contour>
      <point x="230" y="50" type="line"/>
      <point x="435" y="495" type="line"/>
      <point x="640" y="50" type="line"/>
    </contour>
  </outline>
</glyph>
<glyph name="two.cap" format="1">
  <advance width="540"/>
  <outline>
    <contour>
      <point x="36" y="0" type="line"/>
      <point x="496" y="0" type="line"/>
      <point x="496" y="144" type="line"/>
      <point x="390" y="144" type="line" smooth="yes"/>
      <point x="362" y="144"/>
      <point x="316" y="140"/>
      <point x="284" y="136" type="curve"/>
      <point x="372" y="226"/>
      <point x="466" y="347"/>
      <point x="466" y="454" type="curve" smooth="yes"/>
      <point x="466" y="580"/>
      <point x="376" y="662"/>
      <point x="248" y="662" type="curve" smooth="yes"/>
      <point x="154" y="662"/>
      <point x="94" y="630"/>
      <point x="28" y="560" type="curve"/>
      <point x="120" y="468" type="line"/>
      <point x="150" y="498"/>
      <point x="182" y="528"/>
      <point x="224" y="528" type="curve" smooth="yes"/>
      <point x="270" y="528"/>
      <point x="302" y="501"/>
      <point x="302" y="444" type="curve" smooth="yes"/>
      <point x="302" y="354"/>
      <point x="189" y="239"/>
      <point x="36" y="98" type="curve"/>
    </contour>
  </outline>
</glyph>
<glyph name="two.dnom" format="1">
  <advance width="380"/>
  <outline>
    <contour>
      <point x="42" y="0" type="line"/>
      <point x="340" y="0" type="line"/>
      <point x="340" y="104" type="line"/>
      <point x="240" y="104" type="line"/>
      <point x="284" y="156"/>
      <point x="328" y="209"/>
      <point x="328" y="268" type="curve" smooth="yes"/>
      <point x="328" y="352"/>
      <point x="268" y="402"/>
      <point x="178" y="402" type="curve" smooth="yes"/>
      <point x="116" y="402"/>
      <point x="66" y="376"/>
      <point x="22" y="320" type="curve"/>
      <point x="92" y="256" type="line"/>
      <point x="114" y="284"/>
      <point x="134" y="300"/>
      <point x="158" y="300" type="curve" smooth="yes"/>
      <point x="190" y="300"/>
      <point x="208" y="280"/>
      <point x="208" y="246" type="curve" smooth="yes"/>
      <point x="208" y="202"/>
      <point x="134" y="138"/>
      <point x="42" y="66" type="curve"/>
    </contour>
  </outline>
</glyph>
<glyph name="ubar" format="1">
  <advance width="634"/>
  <outline>
    <contour>
      <point x="320" y="522" type="move" name="aboveLC"/>
    </contour>
    <contour>
      <point x="14" y="270" type="line"/>
      <point x="616" y="270" type="line"/>
      <point x="616" y="350" type="line"/>
      <point x="90" y="350" type="line"/>
      <point x="14" y="344" type="line"/>
    </contour>
    <component base="u" xOffset="30"/>
  </outline>
</glyph>
<glyph name="uptackbelowcmb" format="1">
  <advance width="0"/>
  <outline>
    <contour>
      <point x="0" y="-22" type="move" name="_belowLC"/>
    </contour>
    <contour>
      <point x="-112" y="-236" type="line"/>
      <point x="112" y="-236" type="line"/>
      <point x="112" y="-156" type="line"/>
      <point x="-112" y="-156" type="line"/>
    </contour>
    <contour>
      <point x="-44" y="-236" type="line"/>
      <point x="44" y="-236" type="line"/>
      <point x="44" y="-52" type="line"/>
      <point x="-44" y="-52" type="line"/>
    </contour>
  </outline>
</glyph>
<glyph name="ustraightstroke" format="1">
  <advance width="544"/>
  <outline>
    <contour>
      <point x="274" y="522" type="move" name="aboveLC"/>
    </contour>
    <contour>
      <point x="190" y="-176" type="line"/>
      <point x="362" y="-176" type="line"/>
      <point x="362" y="0" type="line"/>
      <point x="532" y="500" type="line"/>
      <point x="368" y="500" type="line"/>
      <point x="316" y="298" type="line"/>
      <point x="304" y="246"/>
      <point x="290" y="200"/>
      <point x="278" y="148" type="curve"/>
      <point x="274" y="148" type="line"/>
      <point x="262" y="200"/>
      <point x="248" y="246"/>
      <point x="236" y="298" type="curve"/>
      <point x="184" y="500" type="line"/>
      <point x="12" y="500" type="line"/>
      <point x="190" y="0" type="line"/>
    </contour>
    <contour>
      <point x="50" y="0" type="line"/>
      <point x="494" y="0" type="line"/>
      <point x="494" y="80" type="line"/>
      <point x="126" y="80" type="line"/>
      <point x="50" y="74" type="line"/>
    </contour>
  </outline>
</glyph>
<glyph name="v" format="1">
  <advance width="544"/>
  <outline>
    <contour>
      <point x="274" y="522" type="move" name="aboveLC"/>
    </contour>
    <contour>
      <point x="274" y="-22" type="move" name="belowLC"/>
    </contour>
    <contour>
      <point x="176" y="0" type="line"/>
      <point x="374" y="0" type="line"/>
      <point x="532" y="500" type="line"/>
      <point x="368" y="500" type="line"/>
      <point x="314" y="282" type="line" smooth="yes"/>
      <point x="302" y="232"/>
      <point x="290" y="180"/>
      <point x="278" y="126" type="curve"/>
      <point x="274" y="126" type="line"/>
      <point x="262" y="180"/>
      <point x="250" y="232"/>
      <point x="238" y="282" type="curve" smooth="yes"/>
      <point x="184" y="500" type="line"/>
      <point x="12" y="500" type="line"/>
    </contour>
  </outline>
</glyph>
<glyph name="varia.cap" format="1">
  <advance width="140"/>
  <outline>
    <contour>
      <point x="42" y="430" type="line"/>
      <point x="154" y="430" type="line"/>
      <point x="124" y="660" type="line"/>
      <point x="-26" y="660" type="line"/>
    </contour>
  </outline>
</glyph>
<glyph name="varia.cap" format="1">
  <advance width="140"/>
  <outline>
    <contour>
      <point x="42" y="430" type="line"/>
      <point x="150" y="450" type="line"/>
      <point x="122" y="670" type="line"/>
      <point x="-22" y="650" type="line"/>
    </contour>
  </outline>
</glyph>
<glyph name="variacmb" format="1">
  <advance width="0"/>
  <outline>
    <contour>
      <point x="0" y="522" type="move" name="_aboveLC"/>
    </contour>
    <contour>
      <point x="-52" y="554" type="line"/>
      <point x="62" y="574" type="line"/>
      <point x="32" y="802" type="line"/>
      <point x="-134" y="774" type="line"/>
    </contour>
  </outline>
</glyph>
<glyph name="xabovecmb" format="1">
  <advance width="0"/>
  <outline>
    <contour>
      <point x="0" y="522" type="move" name="_aboveLC"/>
    </contour>
    <contour>
      <point x="-51" y="535" type="line"/>
      <point x="0" y="586" type="line"/>
      <point x="51" y="535" type="line"/>
      <point x="107" y="591" type="line"/>
      <point x="56" y="642" type="line"/>
      <point x="107" y="693" type="line"/>
      <point x="51" y="749" type="line"/>
      <point x="0" y="698" type="line"/>
      <point x="-51" y="749" type="line"/>
      <point x="-107" y="693" type="line"/>
      <point x="-56" y="642" type="line"/>
      <point x="-107" y="591" type="line"/>
    </contour>
  </outline>
</glyph>
<glyph name="yuan" format="1">
  <advance width="540"/>
  <outline>
    <contour>
      <point x="184" y="0" type="line"/>
      <point x="356" y="0" type="line"/>
      <point x="356" y="234" type="line"/>
      <point x="506" y="234" type="line"/>
      <point x="506" y="318" type="line"/>
      <point x="374" y="318" type="line"/>
      <point x="532" y="634" type="line"/>
      <point x="360" y="634" type="line"/>
      <point x="320" y="516" type="line"/>
      <point x="305" y="473"/>
      <point x="289" y="429"/>
      <point x="274" y="386" type="curve"/>
      <point x="270" y="386" type="line"/>
      <point x="254" y="428"/>
      <point x="239" y="472"/>
      <point x="224" y="516" type="curve" smooth="yes"/>
      <point x="184" y="634" type="line"/>
      <point x="8" y="634" type="line"/>
      <point x="166" y="318" type="line"/>
      <point x="34" y="318" type="line"/>
      <point x="34" y="234" type="line"/>
      <point x="184" y="234" type="line"/>
    </contour>
  </outline>
</glyph>
<glyph name="zero.dnom" format="1">
  <advance width="380"/>
  <outline>
    <contour>
      <point x="190" y="-12" type="curve" smooth="yes"/>
      <point x="286" y="-12"/>
      <point x="358" y="66"/>
      <point x="358" y="196" type="curve" smooth="yes"/>
      <point x="358" y="326"/>
      <point x="286" y="402"/>
      <point x="190" y="402" type="curve" smooth="yes"/>
      <point x="94" y="402"/>
      <point x="22" y="326"/>
      <point x="22" y="196" type="curve" smooth="yes"/>
      <point x="22" y="66"/>
      <point x="94" y="-12"/>
    </contour>
    <contour>
      <point x="190" y="82" type="curve" smooth="yes"/>
      <point x="164" y="82"/>
      <point x="140" y="108"/>
      <point x="140" y="196" type="curve" smooth="yes"/>
      <point x="140" y="284"/>
      <point x="164" y="308"/>
      <point x="190" y="308" type="curve" smooth="yes"/>
      <point x="216" y="308"/>
      <point x="240" y="284"/>
      <point x="240" y="196" type="curve" smooth="yes"/>
      <point x="240" y="108"/>
      <point x="216" y="82"/>
    </contour>
  </outline>
</glyph>
<glyph name="zeta" format="1">
  <advance width="476"/>
  <outline>
    <contour>
      <point x="394" y="-188" type="line"/>
      <point x="438" y="-120"/>
      <point x="456" y="-48"/>
      <point x="456" y="-12" type="curve" smooth="yes"/>
      <point x="456" y="68"/>
      <point x="419" y="105"/>
      <point x="316" y="126" type="curve" smooth="yes"/>
      <point x="226" y="144"/>
      <point x="208" y="172"/>
      <point x="208" y="240" type="curve" smooth="yes"/>
      <point x="208" y="326"/>
      <point x="306" y="486"/>
      <point x="440" y="562" type="curve"/>
      <point x="446" y="562" type="line"/>
      <point x="446" y="696" type="line"/>
      <point x="64" y="696" type="line"/>
      <point x="64" y="562" type="line"/>
      <point x="123" y="568"/>
      <point x="222" y="570"/>
      <point x="258" y="572" type="curve"/>
      <point x="112" y="460"/>
      <point x="32" y="334"/>
      <point x="32" y="230" type="curve" smooth="yes"/>
      <point x="32" y="64"/>
      <point x="126" y="12"/>
      <point x="216" y="-8" type="curve" smooth="yes"/>
      <point x="286" y="-24"/>
      <point x="306" y="-34"/>
      <point x="306" y="-60" type="curve" smooth="yes"/>
      <point x="306" y="-85"/>
      <point x="286" y="-110"/>
      <point x="260" y="-146" type="curve"/>
    </contour>
  </outline>
</glyph>
<glyph name="zhe.a" format="1">
	<advance width="792"/>
	<outline>
		<contour>
			<point x="320" y="0" type="line"/>
			<point x="472" y="0" type="line"/>
			<point x="472" y="190" type="line"/>
			<point x="518" y="190" type="line"/>
			<point x="594" y="324" type="line"/>
			<point x="472" y="324" type="line"/>
			<point x="472" y="500" type="line"/>
			<point x="320" y="500" type="line"/>
		</contour>
		<contour>
			<point x="172" y="232" type="line"/>
			<point x="314" y="264" type="line"/>
			<point x="244" y="408" type="line" smooth="yes"/>
			<point x="204" y="492"/>
			<point x="154" y="512"/>
			<point x="76" y="512" type="curve" smooth="yes"/>
			<point x="60" y="512"/>
			<point x="46" y="510"/>
			<point x="32" y="504" type="curve"/>
			<point x="58" y="346" type="line"/>
			<point x="64" y="348"/>
			<point x="71" y="350"/>
			<point x="78" y="350" type="curve" smooth="yes"/>
			<point x="102" y="350"/>
			<point x="121" y="344"/>
			<point x="138" y="306" type="curve" smooth="yes"/>
		</contour>
		<contour>
			<point x="60" y="-12" type="curve" smooth="yes"/>
			<point x="138" y="-12"/>
			<point x="188" y="8"/>
			<point x="228" y="92" type="curve" smooth="yes"/>
			<point x="310" y="246" type="line"/>
			<point x="166" y="278" type="line"/>
			<point x="120" y="194" type="line" smooth="yes"/>
			<point x="102" y="160"/>
			<point x="86" y="150"/>
			<point x="62" y="150" type="curve" smooth="yes"/>
			<point x="55" y="150"/>
			<point x="48" y="152"/>
			<point x="42" y="154" type="curve"/>
			<point x="16" y="-4" type="line"/>
			<point x="30" y="-10"/>
			<point x="44" y="-12"/>
		</contour>
		<contour>
			<point x="320" y="0" type="line"/>
			<point x="472" y="0" type="line"/>
			<point x="472" y="500" type="line"/>
			<point x="320" y="500" type="line"/>
			<point x="320" y="324" type="line"/>
			<point x="198" y="324" type="line"/>
			<point x="274" y="190" type="line"/>
			<point x="320" y="190" type="line"/>
		</contour>
		<contour>
			<point x="620" y="232" type="line"/>
			<point x="654" y="306" type="line" smooth="yes"/>
			<point x="671" y="344"/>
			<point x="690" y="350"/>
			<point x="714" y="350" type="curve" smooth="yes"/>
			<point x="721" y="350"/>
			<point x="728" y="348"/>
			<point x="734" y="346" type="curve"/>
			<point x="760" y="504" type="line"/>
			<point x="746" y="510"/>
			<point x="732" y="512"/>
			<point x="716" y="512" type="curve" smooth="yes"/>
			<point x="638" y="512"/>
			<point x="588" y="492"/>
			<point x="548" y="408" type="curve" smooth="yes"/>
			<point x="478" y="264" type="line"/>
		</contour>
		<contour>
			<point x="732" y="-12" type="curve" smooth="yes"/>
			<point x="748" y="-12"/>
			<point x="762" y="-10"/>
			<point x="776" y="-4" type="curve"/>
			<point x="750" y="154" type="line"/>
			<point x="744" y="152"/>
			<point x="737" y="150"/>
			<point x="730" y="150" type="curve" smooth="yes"/>
			<point x="706" y="150"/>
			<point x="690" y="160"/>
			<point x="672" y="194" type="curve" smooth="yes"/>
			<point x="626" y="278" type="line"/>
			<point x="482" y="246" type="line"/>
			<point x="564" y="92" type="line" smooth="yes"/>
			<point x="604" y="8"/>
			<point x="654" y="-12"/>
		</contour>
	</outline>
</glyph>
<glyph name="zhe.b" format="1">
	<advance width="792"/>
	<outline>
		<contour>
			<point x="4" y="0" type="line"/>
			<point x="198" y="0" type="line"/>
			<point x="296" y="183" type="line"/>
			<point x="318" y="183" type="line"/>
			<point x="318" y="0" type="line"/>
			<point x="474" y="0" type="line"/>
			<point x="474" y="183" type="line"/>
			<point x="496" y="183" type="line"/>
			<point x="594" y="0" type="line"/>
			<point x="788" y="0" type="line"/>
			<point x="616" y="274" type="line"/>
			<point x="774" y="500" type="line"/>
			<point x="578" y="500" type="line"/>
			<point x="486" y="328" type="line"/>
			<point x="474" y="328" type="line"/>
			<point x="474" y="500" type="line"/>
			<point x="318" y="500" type="line"/>
			<point x="318" y="328" type="line"/>
			<point x="306" y="328" type="line"/>
			<point x="214" y="500" type="line"/>
			<point x="18" y="500" type="line"/>
			<point x="176" y="274" type="line"/>
		</contour>
	</outline>
</glyph>
